<svg width="35" height="28" viewBox="0 0 35 28" fill="none" xmlns="http://www.w3.org/2000/svg">
<path d="M7 0.5H1C0.447715 0.5 0 0.947715 0 1.5C0 2.05228 0.447715 2.5 1 2.5H5.5L8.5 20H31.5L34.5 5.5H9.2L10.86 15.1833C10.9409 15.6551 11.3499 16 11.8286 16C12.4397 16 12.9026 15.4482 12.7964 14.8464L11.5 7.5H32C31.3333 10.8333 30 17.6 30 18C28 18 16.5 18 10 18L7 0.5Z" fill="#37ADCF"/>
<path fill-rule="evenodd" clip-rule="evenodd" d="M14 28C15.933 28 17.5 26.433 17.5 24.5C17.5 22.567 15.933 21 14 21C12.067 21 10.5 22.567 10.5 24.5C10.5 26.433 12.067 28 14 28ZM14 26C14.8284 26 15.5 25.3284 15.5 24.5C15.5 23.6716 14.8284 23 14 23C13.1716 23 12.5 23.6716 12.5 24.5C12.5 25.3284 13.1716 26 14 26Z" fill="#37ADCF"/>
<path fill-rule="evenodd" clip-rule="evenodd" d="M26.5 28C28.433 28 30 26.433 30 24.5C30 22.567 28.433 21 26.5 21C24.567 21 23 22.567 23 24.5C23 26.433 24.567 28 26.5 28ZM26.5 26C27.3284 26 28 25.3284 28 24.5C28 23.6716 27.3284 23 26.5 23C25.6716 23 25 23.6716 25 24.5C25 25.3284 25.6716 26 26.5 26Z" fill="#37ADCF"/>
<path d="M16 24.5C16 23.9477 16.4477 23.5 17 23.5H21C21.5523 23.5 22 23.9477 22 24.5C22 25.0523 21.5523 25.5 21 25.5H17C16.4477 25.5 16 25.0523 16 24.5Z" fill="#37ADCF"/>
</svg>
