<svg width="48" height="39" viewBox="0 0 48 39" fill="none" xmlns="http://www.w3.org/2000/svg">
<path d="M24 34.127L32.4851 22.4713C37.1705 16.6942 37.1705 8.13027 32.4851 3.4844C27.7985 -1.16147 20.2004 -1.16147 15.5138 3.4844C10.8284 8.13027 10.7324 16.5049 15.5138 22.4713L24 34.127ZM17.0575 5.01464C20.892 1.21338 27.108 1.21338 30.9425 5.01464C34.7771 8.81591 34.7291 15.7404 30.9425 20.7204L24 30.7562L17.0575 20.7193C13.2229 15.7869 13.2229 8.81482 17.0575 5.01464ZM24 18.4526C27.6142 18.4526 30.5455 15.5479 30.5455 11.964C30.5455 8.38117 27.6142 5.47534 24 5.47534C20.3847 5.47534 17.4545 8.38117 17.4545 11.964C17.4545 15.5479 20.3847 18.4526 24 18.4526ZM24 7.63822C26.4098 7.63822 28.3636 9.57508 28.3636 11.964C28.3636 14.3529 26.4098 16.2897 24 16.2897C21.5902 16.2897 19.6364 14.3529 19.6364 11.964C19.6364 9.57508 21.5902 7.63822 24 7.63822ZM42.5455 28.1856H31.6364C31.0342 28.1856 30.5455 28.669 30.5455 29.267C30.5455 29.8651 31.0342 30.3485 31.6364 30.3485H42.5455C44.3531 30.3485 45.8182 31.8008 45.8182 33.5928C45.8182 35.3847 44.3531 36.8371 42.5455 36.8371H5.45455C3.64691 36.8371 2.18182 35.3847 2.18182 33.5928C2.18182 31.8008 3.64691 30.3485 5.45455 30.3485H16.3636C16.9658 30.3485 17.4545 29.8651 17.4545 29.267C17.4545 28.669 16.9658 28.1856 16.3636 28.1856H5.45455C2.44255 28.1856 0 30.6059 0 33.5928C0 36.5797 2.44255 39 5.45455 39H42.5455C45.5575 39 48 36.5797 48 33.5928C48 30.6059 45.5575 28.1856 42.5455 28.1856Z" fill="#E62C76"/>
</svg>
