<svg width="90" height="80" viewBox="0 0 90 80" fill="none" xmlns="http://www.w3.org/2000/svg">
<path d="M89.5476 37.2672H85.2295V19.6108C85.2295 15.3778 81.3554 11.9342 76.5933 11.9342H70.745L64.76 2.36911C63.8479 0.907318 62.112 0 60.2294 0C59.3519 0 58.4814 0.201148 57.7127 0.580273L34.7438 11.9339H9.08736C4.32528 11.9339 0.451172 15.3776 0.451172 19.6105V72.3232C0.451172 76.5561 4.32528 79.9998 9.08736 79.9998H76.5933C81.3554 79.9998 85.2295 76.5561 85.2295 72.3232V56.8424H89.5476V37.2672ZM76.5933 15.0047C79.2532 15.0047 81.4261 16.8009 81.718 19.0993H75.227L72.6671 15.0047H76.5933ZM59.3933 3.264C60.2033 2.86027 61.2934 3.14265 61.7406 3.85981L71.2749 19.0979H27.3582L59.3933 3.264ZM81.7749 72.3232C81.7749 74.8626 79.4499 76.9293 76.5931 76.9293H9.08736C6.23049 76.9293 3.90549 74.8626 3.90549 72.3232V19.6108C3.90549 17.0713 6.23049 15.0047 9.08736 15.0047H28.5326L20.2488 19.0996H10.1669C9.21179 19.0996 8.43966 19.7873 8.43966 20.6349C8.43966 21.4825 9.21179 22.1703 10.1669 22.1703H14.036H77.1478H81.7749V37.2686H69.1437C63.2779 37.2686 58.504 41.5123 58.504 46.7262V47.3865C58.504 52.6006 63.2781 56.844 69.1437 56.844H81.7749V72.3232ZM86.093 53.7719H85.2295H69.1437C65.1814 53.7719 61.9583 50.9071 61.9583 47.3848V46.7245C61.9583 43.2025 65.1812 40.3374 69.1437 40.3374H85.2295H86.093V53.7719ZM74.4342 47.1808C74.4342 49.054 72.7276 50.5707 70.6205 50.5707C68.5132 50.5707 66.8069 49.0537 66.8069 47.1808C66.8069 45.3079 68.5135 43.7909 70.6205 43.7909C72.7278 43.7906 74.4342 45.3091 74.4342 47.1808Z" fill="#37ADCF"/>
</svg>
