<svg width="39" height="47" viewBox="0 0 39 47" fill="none" xmlns="http://www.w3.org/2000/svg">
<path d="M25.3327 25.8937H24.0824C24.0926 25.769 24.0992 25.6433 24.0992 25.516V24.1104C24.0992 24.065 24.0948 24.0208 24.0885 23.9772C26.1414 22.707 27.6371 20.6209 28.1182 18.1757H28.1483C29.8688 18.1757 31.2685 16.776 31.2685 15.0554C31.2685 13.8474 30.578 12.7982 29.5712 12.2799C29.791 11.7739 29.9222 11.2211 29.9456 10.6407C29.9581 10.5802 29.9648 10.5175 29.9648 10.4533C29.9648 4.68935 25.2755 0 19.5115 0C13.7905 0 9.12906 4.61977 9.05976 10.3247C9.05379 10.3668 9.04966 10.4096 9.04966 10.4534C9.04966 11.0903 9.17992 11.6974 9.41492 12.2496C8.37587 12.7566 7.6582 13.8237 7.6582 15.0555C7.6582 16.7761 9.05792 18.1758 10.7785 18.1758C11.267 20.659 12.8021 22.7719 14.9046 24.036C14.9025 24.0606 14.9008 24.0853 14.9008 24.1104V25.516C14.9008 25.6433 14.9074 25.769 14.9176 25.8937H13.6674C6.6589 25.8937 0.957031 31.5956 0.957031 38.6041V46.082C0.957031 46.5889 1.36801 47 1.875 47H37.125C37.632 47 38.043 46.5889 38.043 46.082V38.6041C38.043 31.5956 32.3411 25.8937 25.3327 25.8937ZM28.4839 13.8173C29.0295 13.9654 29.4326 14.4637 29.4326 15.0556C29.4326 15.7178 28.9286 16.2644 28.2841 16.3325V14.1367C28.2841 14.0913 28.2797 14.0469 28.2734 14.0033C28.3457 13.9437 28.4154 13.8812 28.4839 13.8173ZM10.6129 14.1367V16.3279C9.98277 16.2463 9.49414 15.7075 9.49414 15.0555C9.49414 14.4429 9.92568 13.9298 10.5005 13.8024C10.5455 13.8447 10.5914 13.886 10.638 13.9266C10.6221 13.9942 10.6129 14.0643 10.6129 14.1367ZM19.5115 1.83594C23.9532 1.83594 27.6206 5.2137 28.0803 9.5354H10.9426C11.4023 5.2137 15.0698 1.83594 19.5115 1.83594ZM11.0422 11.3713H27.9577C27.5784 12.4463 26.5522 13.2188 25.349 13.2188H13.651C12.4478 13.2188 11.4216 12.4463 11.0422 11.3713ZM12.4488 16.4718V14.8942C12.8322 14.9981 13.235 15.0546 13.651 15.0546H15.4478C15.2502 15.2418 15.1262 15.5058 15.1262 15.7987C15.1262 16.3644 15.5864 16.8247 16.1523 16.8247C16.7181 16.8247 17.1784 16.3644 17.1784 15.7987C17.1784 15.5057 17.0543 15.2417 16.8567 15.0546H22.1435C21.9458 15.2418 21.8218 15.5058 21.8218 15.7987C21.8218 16.3644 22.2821 16.8247 22.8479 16.8247C23.4138 16.8247 23.874 16.3644 23.874 15.7987C23.874 15.5057 23.7499 15.2417 23.5524 15.0546H25.3492C25.7281 15.0546 26.096 15.0077 26.4484 14.9209V16.4718C26.4484 20.3246 23.3083 23.459 19.4487 23.459C15.5888 23.4591 12.4488 20.3247 12.4488 16.4718ZM22.2633 24.8358V25.516C22.2633 27.0365 21.0236 28.2734 19.5 28.2734C17.9764 28.2734 16.7367 27.0365 16.7367 25.516V24.8693C17.5916 25.1453 18.5028 25.295 19.4485 25.295C20.4322 25.295 21.3788 25.1334 22.2633 24.8358ZM9.21875 45.1421H8.85156V43.6035C8.85156 43.2541 8.99174 42.9368 9.21875 42.7049V45.1421ZM15.6814 45.1421H11.0547V36.1441H15.6814V45.1421ZM15.6648 34.3082H11.54L12.5731 31.9453H16.0001L15.6648 34.3082ZM21.4826 45.1421H17.5175V36.1441H21.4826V45.1421ZM17.5192 34.3082L17.8545 31.9453H21.1454L21.4808 34.3082H17.5192ZM27.9453 45.1421H23.3186V36.1441H27.9453V45.1421ZM22.9997 31.9453H26.4257L27.4596 34.3082H23.3351L22.9997 31.9453ZM30.1484 45.1421H29.7812V42.7049C30.0083 42.9368 30.1484 43.2541 30.1484 43.6035V45.1421ZM36.207 45.1641H31.9844V43.6035C31.9844 42.2019 31.0556 41.0133 29.7812 40.6204V35.2261C29.7812 35.1018 29.7554 34.9716 29.7042 34.8581L27.8669 30.6593C27.7208 30.3252 27.3907 30.1094 27.026 30.1094H19.5H11.9726C11.6078 30.1094 11.2777 30.3254 11.1314 30.6596L9.29558 34.8584C9.245 34.9722 9.21875 35.1016 9.21875 35.2261V40.6204C7.94443 41.0134 7.01562 42.2019 7.01562 43.6035V45.1641H2.79297V38.6041C2.79297 32.6079 7.67124 27.7296 13.6674 27.7296H15.4717C16.2556 29.147 17.7672 30.1094 19.5 30.1094C21.2328 30.1094 22.7444 29.147 23.5283 27.7296H25.3327C31.3289 27.7296 36.207 32.6079 36.207 38.6041V45.1641Z" fill="#E62C76"/>
<path d="M21.705 19.0843C21.3465 18.7258 20.7653 18.7258 20.4068 19.0843C20.1643 19.3269 19.8417 19.4605 19.4987 19.4605C19.1556 19.4605 18.8331 19.3269 18.5905 19.0843C18.2321 18.7257 17.6508 18.7259 17.2923 19.0843C16.9339 19.4427 16.9338 20.024 17.2923 20.3825C17.8817 20.9718 18.6652 21.2964 19.4987 21.2964C20.3321 21.2964 21.1157 20.9719 21.705 20.3825C22.0635 20.024 22.0635 19.4427 21.705 19.0843Z" fill="#E62C76"/>
<path d="M26.2884 7.57121C25.5752 5.89619 24.2735 4.54935 22.623 3.7788C22.1636 3.56427 21.6172 3.76292 21.4028 4.22227C21.1884 4.68163 21.3868 5.22791 21.8463 5.44244C23.086 6.02122 24.0636 7.03263 24.5993 8.29053C24.748 8.63963 25.0873 8.84911 25.4443 8.84911C25.5642 8.84911 25.6861 8.82543 25.8034 8.77549C26.2699 8.57675 26.487 8.03763 26.2884 7.57121Z" fill="#E62C76"/>
<path d="M19.5235 3.09082C19.5223 3.09082 19.5125 3.09082 19.5113 3.09082C19.0051 3.09082 18.5987 3.50069 18.5977 4.00695C18.5966 4.51321 19.0101 4.92474 19.5164 4.92676C19.5176 4.92676 19.5274 4.92676 19.5286 4.92676C20.0348 4.92676 20.4412 4.51688 20.4422 4.01062C20.4432 3.50436 20.0298 3.09275 19.5235 3.09082Z" fill="#E62C76"/>
</svg>
