<svg width="88" height="88" viewBox="0 0 88 88" fill="none" xmlns="http://www.w3.org/2000/svg">
<path d="M44 0C19.6994 0 0 19.6994 0 44C0 68.3006 19.6994 88 44 88C68.3006 88 88 68.3006 88 44C87.9674 19.713 68.287 0.0326292 44 0ZM33.1236 4.44944C28.7676 8.55479 25.4644 13.6489 23.493 19.3007C20.2185 18.5055 17.0117 17.4542 13.902 16.1564C19.0923 10.538 25.7501 6.48308 33.1236 4.44944ZM11.8849 18.4899C15.3177 20.0432 18.8772 21.3002 22.524 22.2472C20.4595 28.8099 19.3602 35.6378 19.2611 42.5169V42.4575H3.04539C3.35018 33.728 6.44847 25.3267 11.8849 18.4899ZM11.8849 69.3519C6.44847 62.5151 3.35018 54.1138 3.04539 45.3843L19.2611 45.4238C19.3546 52.3227 20.4538 59.1711 22.524 65.7528C18.8819 66.6486 15.3229 67.8527 11.8849 69.3519ZM13.902 71.804V71.6854C17.0117 70.3874 20.2185 69.3361 23.493 68.5411C25.4416 74.2498 28.7463 79.4002 33.1236 83.5506C25.7457 81.5058 19.0873 77.4368 13.902 71.804ZM42.5169 84.8953C35.8724 84.0449 30.0584 77.5982 26.3604 68.027C31.6812 66.9559 37.0898 66.3799 42.5169 66.3065V84.8953ZM42.5169 63.2216C36.7558 63.295 31.0148 63.9174 25.3717 65.0805C23.3924 58.7323 22.3399 52.1318 22.2472 45.4831V45.4238H42.5169V63.2216ZM42.5169 42.4575H22.2472C22.3228 35.749 23.3754 29.0872 25.3717 22.6822C31.0109 23.8851 36.7519 24.5473 42.5169 24.6598V42.4575ZM42.5169 21.6935C37.0905 21.6262 31.682 21.057 26.3604 19.9928C30.0584 10.382 35.8724 3.95506 42.5169 3.10472V21.6935ZM76.1151 18.6085C81.5515 25.4453 84.6498 33.8466 84.9546 42.5762H68.7389C68.6494 35.664 67.5499 28.802 65.476 22.2076C69.1181 21.3118 72.6771 20.1078 76.1151 18.6085ZM74.0782 16.196C70.9685 17.4937 67.7617 18.545 64.4872 19.3402C62.5272 13.6761 59.2304 8.56814 54.8764 4.44944C62.2471 6.49742 68.8983 10.5662 74.0782 16.196ZM45.4831 3.10472C52.1276 3.95506 57.9416 10.4018 61.6395 19.973C56.3188 21.0439 50.9102 21.6198 45.4831 21.6935V3.10472ZM45.4831 24.6598C51.2442 24.5866 56.9854 23.9642 62.6283 22.8009C64.6246 29.2059 65.6772 35.8677 65.7528 42.5762H45.4831V24.6598ZM45.4831 45.5425H65.7528C65.6772 52.251 64.6246 58.9128 62.6283 65.3177C56.9891 64.1147 51.2481 63.4527 45.4831 63.3402V45.5425ZM45.4831 84.8953V66.3065C50.9095 66.3735 56.318 66.9428 61.6395 68.0072C57.9416 77.618 52.1276 84.0449 45.4831 84.8953ZM54.8764 83.5506C59.2351 79.4395 62.5386 74.3385 64.507 68.6796C67.7815 69.4745 70.9883 70.5258 74.098 71.8238C68.9102 77.4494 62.2521 81.5115 54.8764 83.5506ZM76.1151 69.5101C72.6823 67.9568 69.123 66.6996 65.476 65.7528C67.5405 59.1901 68.6397 52.3622 68.7389 45.4831V45.5425H84.9546C84.6498 54.272 81.5515 62.6733 76.1151 69.5101Z" fill="#37ADCF"/>
</svg>
