<svg width="47" height="39" viewBox="0 0 47 39" fill="none" xmlns="http://www.w3.org/2000/svg">
<path d="M37.8205 0.222656H9.17954C4.11793 0.222656 0 4.34059 0 9.4022V37.8595C0 38.3665 0.410976 38.7775 0.917972 38.7775C1.42488 38.7775 1.83594 38.3665 1.83594 37.8595V35.1054H28.6406V37.8595C28.6406 38.3665 29.0517 38.7775 29.5586 38.7775C30.0656 38.7775 30.4766 38.3665 30.4766 37.8595V35.1054H45.1641V37.8595C45.1641 38.3665 45.5751 38.7775 46.082 38.7775C46.589 38.7775 47 38.3665 47 37.8595V9.4022C47 4.34059 42.8821 0.222656 37.8205 0.222656ZM28.6406 9.4022V33.2695H1.83594V9.4022C1.83594 5.35293 5.13027 2.0586 9.17954 2.0586H32.3186C30.0869 3.73464 28.6406 6.40263 28.6406 9.4022ZM45.1641 33.2695H30.4766V9.4022C30.4766 5.35293 33.7711 2.0586 37.8205 2.0586C41.8697 2.0586 45.1641 5.35293 45.1641 9.4022V33.2695Z" fill="#E62C76"/>
<path d="M42.9415 11.2855C42.9305 11.2776 42.9193 11.2701 42.908 11.2629C42.8943 11.2539 42.8804 11.2456 42.8663 11.2375C42.8544 11.2307 42.8422 11.2242 42.83 11.2179C42.8162 11.2108 42.8022 11.2042 42.7881 11.1976C42.7747 11.1916 42.7611 11.186 42.7473 11.1806C42.7338 11.1751 42.7201 11.1702 42.7063 11.1655C42.6917 11.1605 42.677 11.156 42.662 11.1517C42.6482 11.148 42.6344 11.1444 42.6205 11.1412C42.6056 11.1378 42.5906 11.1346 42.5753 11.1318C42.5605 11.1292 42.5455 11.1268 42.5305 11.125C42.5163 11.1231 42.5019 11.1214 42.4875 11.1202C42.4707 11.1189 42.4539 11.1182 42.437 11.1177C42.4287 11.1175 42.4205 11.1164 42.412 11.1164H33.232C33.2235 11.1164 33.2152 11.1175 33.2068 11.1177C33.1901 11.1182 33.1735 11.119 33.1569 11.1202C33.1423 11.1214 33.1278 11.123 33.1133 11.125C33.0985 11.127 33.0837 11.1292 33.069 11.1318C33.0537 11.1345 33.0385 11.1377 33.0235 11.1412C33.0097 11.1444 32.9959 11.148 32.9823 11.1517C32.9672 11.156 32.9524 11.1605 32.9377 11.1655C32.9241 11.1702 32.9105 11.1751 32.897 11.1806C32.8831 11.186 32.8694 11.1917 32.8559 11.1978C32.8419 11.2041 32.8281 11.2108 32.8145 11.2177C32.8019 11.2242 32.7896 11.2309 32.7776 11.2377C32.7637 11.2456 32.75 11.254 32.7366 11.2625C32.725 11.2701 32.7135 11.2778 32.7022 11.2859C32.6893 11.295 32.6769 11.3043 32.6645 11.314C32.6527 11.3234 32.6413 11.3329 32.6301 11.3428C32.6192 11.3523 32.6084 11.362 32.5977 11.3721C32.5856 11.3838 32.5739 11.3958 32.5624 11.4082C32.5567 11.4143 32.5505 11.4197 32.545 11.4259C32.5417 11.4297 32.5392 11.4336 32.5359 11.4374C32.5244 11.4507 32.5136 11.4645 32.5031 11.4784C32.4951 11.4888 32.4869 11.4993 32.4795 11.51C32.4701 11.5234 32.4615 11.5375 32.4528 11.5514C32.4454 11.5633 32.4379 11.5749 32.4311 11.5871C32.4236 11.6005 32.4169 11.6144 32.41 11.6283C32.4036 11.6415 32.3969 11.6543 32.3911 11.6676C32.385 11.6814 32.38 11.6955 32.3746 11.7096C32.3693 11.7235 32.3639 11.7374 32.3593 11.7514C32.3547 11.7653 32.3512 11.7795 32.3473 11.7939C32.3433 11.8085 32.339 11.8234 32.3358 11.8383C32.3329 11.8519 32.3307 11.8659 32.3284 11.8797C32.3256 11.8958 32.3228 11.9118 32.321 11.9279C32.3194 11.9412 32.3187 11.9544 32.3177 11.9679C32.3165 11.9852 32.3154 12.0021 32.3151 12.0196C32.3151 12.0246 32.3143 12.0294 32.3143 12.0345V18.5824C32.3143 19.0894 32.7254 19.5003 33.2323 19.5003H42.4119C42.9188 19.5003 43.3299 19.0894 43.3299 18.5824V12.0345C43.3299 12.0294 43.3292 12.0246 43.3292 12.0198C43.3288 12.0021 43.3278 11.9848 43.3265 11.9674C43.3256 11.9542 43.3248 11.9412 43.3233 11.9281C43.3214 11.9117 43.3186 11.8955 43.3158 11.8791C43.3136 11.8656 43.3114 11.8519 43.3084 11.8385C43.3051 11.8232 43.3009 11.808 43.2968 11.7929C43.293 11.7792 43.2894 11.7651 43.2851 11.7517C43.2803 11.737 43.2747 11.7227 43.2691 11.7081C43.264 11.6947 43.2591 11.6812 43.2534 11.6679C43.2473 11.6541 43.2402 11.6405 43.2334 11.6267C43.2269 11.6136 43.2205 11.6003 43.2133 11.5874C43.2062 11.5746 43.1983 11.5623 43.1905 11.5498C43.1822 11.5365 43.174 11.5232 43.1651 11.5105C43.1572 11.499 43.1486 11.4881 43.1401 11.477C43.13 11.4638 43.1197 11.4506 43.1089 11.4381C43.1055 11.4341 43.1026 11.4298 43.099 11.4258C43.0932 11.4192 43.0867 11.4134 43.0806 11.407C43.0697 11.3952 43.0586 11.3837 43.0469 11.3726C43.036 11.362 43.0247 11.3519 43.0133 11.3419C43.0025 11.3326 42.9916 11.3233 42.9803 11.3145C42.9675 11.3045 42.9547 11.2948 42.9415 11.2855ZM39.9906 12.9524L37.8221 14.8726L35.6535 12.9524H39.9906ZM41.494 17.6644H34.15V14.0734L37.2136 16.7861C37.3872 16.9399 37.6047 17.0168 37.8221 17.0168C38.0395 17.0168 38.2569 16.9399 38.4307 16.7861L41.494 14.0736V17.6644Z" fill="#E62C76"/>
<path d="M42.4107 28.68H33.2308C32.7239 28.68 32.3129 29.0909 32.3129 29.5979C32.3129 30.1048 32.7239 30.5159 33.2308 30.5159H42.4107C42.9176 30.5159 43.3287 30.1048 43.3287 29.5979C43.3287 29.0909 42.9176 28.68 42.4107 28.68Z" fill="#E62C76"/>
<path d="M42.4101 25.0079H35.8893C35.3823 25.0079 34.9713 25.419 34.9713 25.9259C34.9713 26.4329 35.3823 26.8439 35.8893 26.8439H42.4101C42.917 26.8439 43.328 26.4329 43.328 25.9259C43.328 25.419 42.917 25.0079 42.4101 25.0079Z" fill="#E62C76"/>
<path d="M33.2308 26.8439H33.2527C33.7596 26.8439 34.1706 26.433 34.1706 25.926C34.1706 25.4191 33.7596 25.008 33.2527 25.008H33.2308C32.7239 25.008 32.3129 25.4191 32.3129 25.926C32.3129 26.433 32.7239 26.8439 33.2308 26.8439Z" fill="#E62C76"/>
<path d="M9.73022 23.1721L18.0869 23.1717C18.5939 23.1717 19.0049 22.7607 19.0049 22.2537C19.0049 21.7467 18.5939 21.3358 18.0869 21.3358L9.73022 21.3361C9.22322 21.3361 8.81225 21.7473 8.81225 22.2541C8.81225 22.7611 9.22332 23.1721 9.73022 23.1721Z" fill="#E62C76"/>
<path d="M20.7454 21.3358H20.7233C20.2163 21.3358 19.8054 21.747 19.8054 22.2538C19.8054 22.7608 20.2163 23.1718 20.7233 23.1718H20.7454C21.2524 23.1718 21.6633 22.7608 21.6633 22.2538C21.6633 21.747 21.2523 21.3358 20.7454 21.3358Z" fill="#E62C76"/>
<path d="M20.746 25.0079H9.73022C9.22332 25.0079 8.81225 25.419 8.81225 25.9259C8.81225 26.4329 9.22332 26.8439 9.73022 26.8439H20.746C21.253 26.8439 21.664 26.4329 21.664 25.9259C21.664 25.419 21.253 25.0079 20.746 25.0079Z" fill="#E62C76"/>
<path d="M20.746 28.68H9.73022C9.22332 28.68 8.81225 29.0909 8.81225 29.5979C8.81225 30.1047 9.22332 30.5159 9.73022 30.5159H20.746C21.253 30.5159 21.664 30.1048 21.664 29.5979C21.664 29.0909 21.253 28.68 20.746 28.68Z" fill="#E62C76"/>
<path d="M20.746 11.1164H9.73022C9.22332 11.1164 8.81225 11.5275 8.81225 12.0343V15.706C8.81225 16.213 9.22332 16.624 9.73022 16.624H20.746C21.253 16.624 21.664 16.213 21.664 15.706V12.0343C21.664 11.5275 21.253 11.1164 20.746 11.1164ZM19.828 14.7881H10.6482V12.9523H19.828V14.7881Z" fill="#E62C76"/>
</svg>
