<svg width="120" height="76" viewBox="0 0 120 76" fill="none" xmlns="http://www.w3.org/2000/svg">
<path d="M111.6 32.219L108.492 19.7739C109.342 19.5932 109.979 18.8385 109.979 17.9344V15.9278C109.979 11.5711 106.439 8.02678 102.088 8.02678H87.9334V3.88785C87.9334 1.74399 86.1916 0 84.0503 0H11.8997C9.75846 0 8.01658 1.74399 8.01658 3.88785V38.0004C8.01658 39.0392 8.85775 39.8816 9.89557 39.8816C10.9331 39.8816 11.7746 39.0394 11.7746 38.0004V3.88785C11.7746 3.81862 11.8306 3.76254 11.8997 3.76254H84.0501C84.1192 3.76254 84.1752 3.81862 84.1752 3.88785V38.0008C84.1752 39.0397 85.0164 39.8821 86.0542 39.8821C87.0918 39.8821 87.9332 39.0399 87.9332 38.0008V35.8682H110.098L110.103 35.8687L110.108 35.8685C112.835 35.8703 115.151 37.6627 115.947 40.1325H110.104C109.067 40.1325 108.225 40.9747 108.225 42.0137V46.0269C108.225 49.2772 110.866 51.9213 114.112 51.9213H116.242V60.1985H111.329C109.715 55.5327 105.285 52.1719 100.083 52.1719C94.8813 52.1719 90.4511 55.5327 88.8374 60.1985H87.9327V46.0267C87.9327 44.9878 87.0916 44.1454 86.0538 44.1454C85.0162 44.1454 84.1748 44.9876 84.1748 46.0267V60.198H45.1916C43.5777 55.5323 39.1477 52.1715 33.9458 52.1715C28.7438 52.1715 24.3136 55.5323 22.7 60.198H11.8997C11.8306 60.198 11.7746 60.1419 11.7746 60.0727V55.934H19.9165C20.9541 55.934 21.7955 55.0918 21.7955 54.0527C21.7955 53.0137 20.9543 52.1715 19.9165 52.1715H1.87899C0.841408 52.1715 0 53.0137 0 54.0527C0 55.0918 0.841174 55.934 1.87899 55.934H8.01681V60.0727C8.01681 62.2166 9.75869 63.9605 11.8999 63.9605H22.0493C22.0489 64.0023 22.0461 64.0438 22.0461 64.0859C22.0461 70.6554 27.3844 76 33.9458 76C40.5071 76 45.8455 70.6554 45.8455 64.0859C45.8455 64.0436 45.8427 64.0023 45.8422 63.9605H88.1868C88.1863 64.0023 88.1835 64.0438 88.1835 64.0859C88.1835 70.6554 93.5219 76 100.083 76C106.645 76 111.983 70.6554 111.983 64.0859C111.983 64.0436 111.98 64.0023 111.98 63.9605H118.121C119.159 63.9605 120 63.1183 120 62.0793V42.0133C120 37.0591 116.349 32.943 111.6 32.219ZM87.9334 11.7891H102.088C104.367 11.7891 106.222 13.6457 106.222 15.9278V16.0531H87.9334V11.7891ZM87.9334 32.1059V19.8154H104.629L107.698 32.1059H87.9334ZM33.9458 72.2382C29.4563 72.2382 25.8038 68.5815 25.8038 64.0863C25.8038 59.5912 29.4563 55.9345 33.9458 55.9345C38.4352 55.9345 42.0877 59.5912 42.0877 64.0863C42.0877 68.5815 38.4352 72.2382 33.9458 72.2382ZM100.084 72.2382C95.5942 72.2382 91.9417 68.5815 91.9417 64.0863C91.9417 59.5912 95.5942 55.9345 100.084 55.9345C104.573 55.9345 108.226 59.5912 108.226 64.0863C108.226 68.5815 104.573 72.2382 100.084 72.2382ZM116.242 48.1588H114.113C112.939 48.1588 111.983 47.2023 111.983 46.0267V43.8945H116.242L116.242 48.1588Z" fill="#37ADCF"/>
<path d="M33.9456 60.1978C31.8043 60.1978 30.0624 61.9418 30.0624 64.0857C30.0624 66.2295 31.8043 67.9735 33.9456 67.9735C36.0868 67.9735 37.8287 66.2295 37.8287 64.0857C37.8287 61.9418 36.0868 60.1978 33.9456 60.1978Z" fill="#37ADCF"/>
<path d="M100.083 60.1978C97.9417 60.1978 96.1998 61.9418 96.1998 64.0857C96.1998 66.2295 97.9417 67.9735 100.083 67.9735C102.224 67.9735 103.966 66.2295 103.966 64.0857C103.966 61.9418 102.224 60.1978 100.083 60.1978Z" fill="#37ADCF"/>
<path d="M78.0374 52.1721H49.9789C48.9413 52.1721 48.0999 53.0143 48.0999 54.0533C48.0999 55.0924 48.9411 55.9346 49.9789 55.9346H78.0374C79.0749 55.9346 79.9163 55.0924 79.9163 54.0533C79.9163 53.0143 79.0752 52.1721 78.0374 52.1721Z" fill="#37ADCF"/>
<path d="M29.9381 44.1454H5.88794C4.85036 44.1454 4.00895 44.9876 4.00895 46.0267C4.00895 47.0657 4.85013 47.9079 5.88794 47.9079H29.9381C30.9757 47.9079 31.8171 47.0657 31.8171 46.0267C31.8171 44.9876 30.9757 44.1454 29.9381 44.1454Z" fill="#37ADCF"/>
<path d="M65.3374 18.6102C64.6038 17.8757 63.4138 17.8757 62.6802 18.6104L45.9711 35.3396L37.2789 26.6367C36.545 25.902 35.3554 25.902 34.6218 26.6367C33.8879 27.3714 33.8879 28.5623 34.6218 29.2971L44.6427 39.3302C45.0095 39.6977 45.4904 39.8812 45.9711 39.8812C46.4519 39.8812 46.933 39.6977 47.2996 39.3302L65.3371 21.2708C66.0709 20.5358 66.071 19.3449 65.3374 18.6102Z" fill="#37ADCF"/>
</svg>
