<svg width="14" height="15" viewBox="0 0 14 15" fill="none" xmlns="http://www.w3.org/2000/svg">
<path d="M2.49398 10.5C1.54598 10.5 1.07198 9.972 1.07198 8.916V6.54H0.369977C0.309977 6.54 0.258977 6.522 0.216977 6.486C0.180977 6.444 0.162977 6.393 0.162977 6.333V6.027C0.162977 5.967 0.180977 5.919 0.216977 5.883C0.258977 5.841 0.309977 5.82 0.369977 5.82H1.07198V4.317C1.07198 4.257 1.08998 4.209 1.12598 4.173C1.16798 4.131 1.21898 4.11 1.27898 4.11H1.70198C1.76198 4.11 1.80998 4.131 1.84598 4.173C1.88798 4.209 1.90898 4.257 1.90898 4.317V5.82H3.02498C3.08498 5.82 3.13298 5.841 3.16898 5.883C3.21098 5.919 3.23198 5.967 3.23198 6.027V6.333C3.23198 6.393 3.21098 6.444 3.16898 6.486C3.13298 6.522 3.08498 6.54 3.02498 6.54H1.90898V8.853C1.90898 9.153 1.95998 9.381 2.06198 9.537C2.16398 9.687 2.33198 9.762 2.56598 9.762H3.11498C3.17498 9.762 3.22298 9.783 3.25898 9.825C3.30098 9.861 3.32198 9.909 3.32198 9.969V10.293C3.32198 10.353 3.30098 10.404 3.25898 10.446C3.22298 10.482 3.17498 10.5 3.11498 10.5H2.49398Z" fill="#9E9E9E"/>
<path d="M5.4876 10.59C5.1936 10.59 4.9206 10.53 4.6686 10.41C4.4166 10.29 4.2156 10.128 4.0656 9.924C3.9216 9.714 3.8496 9.483 3.8496 9.231C3.8496 8.835 4.0116 8.511 4.3356 8.259C4.6656 8.001 5.1096 7.833 5.6676 7.755L7.0086 7.566V7.305C7.0086 6.693 6.6576 6.387 5.9556 6.387C5.6916 6.387 5.4756 6.444 5.3076 6.558C5.1396 6.666 5.0136 6.795 4.9296 6.945C4.9116 6.999 4.8876 7.038 4.8576 7.062C4.8336 7.086 4.7976 7.098 4.7496 7.098H4.3626C4.3086 7.098 4.2606 7.08 4.2186 7.044C4.1826 7.002 4.1646 6.954 4.1646 6.9C4.1706 6.756 4.2366 6.594 4.3626 6.414C4.4946 6.228 4.6956 6.069 4.9656 5.937C5.2356 5.799 5.5686 5.73 5.9646 5.73C6.6366 5.73 7.1196 5.889 7.4136 6.207C7.7076 6.519 7.8546 6.909 7.8546 7.377V10.293C7.8546 10.353 7.8336 10.404 7.7916 10.446C7.7556 10.482 7.7076 10.5 7.6476 10.5H7.2336C7.1736 10.5 7.1226 10.482 7.0806 10.446C7.0446 10.404 7.0266 10.353 7.0266 10.293V9.906C6.8946 10.098 6.7026 10.26 6.4506 10.392C6.1986 10.524 5.8776 10.59 5.4876 10.59ZM5.6766 9.915C6.0666 9.915 6.3846 9.789 6.6306 9.537C6.8826 9.279 7.0086 8.91 7.0086 8.43V8.178L5.9646 8.331C5.5386 8.391 5.2176 8.493 5.0016 8.637C4.7856 8.775 4.6776 8.952 4.6776 9.168C4.6776 9.408 4.7766 9.594 4.9746 9.726C5.1726 9.852 5.4066 9.915 5.6766 9.915Z" fill="#9E9E9E"/>
<path d="M11.0654 12.48C10.5734 12.48 10.1774 12.396 9.87742 12.228C9.57742 12.066 9.36442 11.88 9.23842 11.67C9.11242 11.46 9.04342 11.271 9.03142 11.103C9.02542 11.043 9.04342 10.992 9.08542 10.95C9.13342 10.908 9.18442 10.887 9.23842 10.887H9.67042C9.72442 10.887 9.76942 10.899 9.80542 10.923C9.84142 10.953 9.87142 11.004 9.89542 11.076C9.96742 11.268 10.0844 11.433 10.2464 11.571C10.4144 11.715 10.6724 11.787 11.0204 11.787C11.4644 11.787 11.7914 11.691 12.0014 11.499C12.2114 11.313 12.3164 10.98 12.3164 10.5V9.888C12.1604 10.086 11.9624 10.245 11.7224 10.365C11.4824 10.479 11.1974 10.536 10.8674 10.536C10.2314 10.536 9.75442 10.335 9.43642 9.933C9.12442 9.525 8.95942 9.009 8.94142 8.385L8.93242 8.133L8.94142 7.89C8.95942 7.272 9.12742 6.759 9.44542 6.351C9.76342 5.937 10.2374 5.73 10.8674 5.73C11.4974 5.73 11.9894 5.961 12.3434 6.423V6.036C12.3434 5.976 12.3614 5.925 12.3974 5.883C12.4394 5.841 12.4904 5.82 12.5504 5.82H12.9644C13.0244 5.82 13.0754 5.841 13.1174 5.883C13.1594 5.925 13.1804 5.976 13.1804 6.036V10.401C13.1804 11.787 12.4754 12.48 11.0654 12.48ZM11.0474 9.816C11.4554 9.816 11.7644 9.681 11.9744 9.411C12.1844 9.141 12.2984 8.82 12.3164 8.448C12.3224 8.394 12.3254 8.289 12.3254 8.133C12.3254 7.983 12.3224 7.881 12.3164 7.827C12.2984 7.455 12.1844 7.134 11.9744 6.864C11.7704 6.594 11.4614 6.459 11.0474 6.459C10.6214 6.459 10.3124 6.591 10.1204 6.855C9.92842 7.119 9.82342 7.467 9.80542 7.899L9.79642 8.133L9.80542 8.376C9.82342 8.802 9.92842 9.15 10.1204 9.42C10.3124 9.684 10.6214 9.816 11.0474 9.816Z" fill="#9E9E9E"/>
<path d="M0.000976562 14C0.000976562 13.7239 0.224834 13.5 0.500977 13.5H13.501C13.7771 13.5 14.001 13.7239 14.001 14V14C14.001 14.2761 13.7771 14.5 13.501 14.5H0.500976C0.224834 14.5 0.000976562 14.2761 0.000976562 14V14Z" fill="#9E9E9E"/>
<path d="M0.000976562 1C0.000976562 0.723858 0.224834 0.5 0.500977 0.5H13.501C13.7771 0.5 14.001 0.723858 14.001 1V1C14.001 1.27614 13.7771 1.5 13.501 1.5H0.500976C0.224834 1.5 0.000976562 1.27614 0.000976562 1V1Z" fill="#9E9E9E"/>
</svg>
