<svg width="12" height="17" viewBox="0 0 12 17" fill="none" xmlns="http://www.w3.org/2000/svg">
<path d="M2.00097 2.5L2.00098 16C2.00098 16.2761 2.22483 16.5 2.50098 16.5C2.77712 16.5 3.00098 16.2761 3.00098 16L3.00097 2.5L4.14684 3.64586C4.33222 3.83124 4.63969 3.8058 4.79207 3.59246C4.91262 3.42369 4.89349 3.19251 4.74684 3.04586L2.50097 0.8L0.255114 3.04586C0.108462 3.19251 0.0893293 3.42369 0.209876 3.59246C0.362258 3.8058 0.669731 3.83124 0.855113 3.64586L2.00097 2.5Z" fill="#757575"/>
<path d="M10 14.7998L10 1.2998C10 1.02366 9.77614 0.799805 9.5 0.799805C9.22386 0.799805 9 1.02366 9 1.2998L9 14.7998L7.85414 13.6539C7.66876 13.4686 7.36128 13.494 7.2089 13.7073C7.08835 13.8761 7.10749 14.1073 7.25414 14.2539L9.5 16.4998L11.7459 14.2539C11.8925 14.1073 11.9116 13.8761 11.7911 13.7073C11.6387 13.494 11.3312 13.4686 11.1459 13.6539L10 14.7998Z" fill="#757575"/>
</svg>
