<svg width="15" height="13" viewBox="0 0 15 13" fill="none" xmlns="http://www.w3.org/2000/svg">
<path d="M0.5 13V9.53846C0.5 9.24108 0.741077 9 1.03846 9C1.33585 9 1.57692 9.24108 1.57692 9.53846V11.2953L12.6303 1.08333H10.5417C10.2425 1.08333 10 0.840821 10 0.541667C10 0.242512 10.2425 0 10.5417 0H14.5V3.46154C14.5 3.75892 14.2589 4 13.9615 4C13.6642 4 13.4231 3.75892 13.4231 3.46154V1.72116L2.36107 11.9167H3.95833C4.25749 11.9167 4.5 12.1592 4.5 12.4583C4.5 12.7575 4.25749 13 3.95833 13H0.5Z" fill="#9E9E9E"/>
<path d="M0.5 4.96154V0H5.75833C6.05749 0 6.3 0.242512 6.3 0.541667C6.3 0.840821 6.05749 1.08333 5.75833 1.08333H1.57692V4.96154C1.57692 5.25892 1.33585 5.5 1.03846 5.5C0.741077 5.5 0.5 5.25892 0.5 4.96154Z" fill="#9E9E9E"/>
<path d="M13.4231 11.9167V7.83846C13.4231 7.54108 13.6642 7.3 13.9615 7.3C14.2589 7.3 14.5 7.54108 14.5 7.83846V13H9.04167C8.74251 13 8.5 12.7575 8.5 12.4583C8.5 12.1592 8.74251 11.9167 9.04167 11.9167H13.4231Z" fill="#9E9E9E"/>
</svg>
