<svg width="19" height="19" viewBox="0 0 19 19" fill="none" xmlns="http://www.w3.org/2000/svg">
<path d="M18.6832 3.16699H11.0832C10.9083 3.16699 10.7665 3.30878 10.7665 3.48366V6.33366C10.7666 6.50854 10.9085 6.65021 11.0834 6.65009C11.1173 6.65005 11.1511 6.64459 11.1832 6.63386L11.5813 6.50117C12.0135 6.3597 12.4784 6.59538 12.6199 7.02755C12.7613 7.45973 12.5257 7.92471 12.0935 8.06614C11.9271 8.12061 11.7477 8.12061 11.5812 8.06614L11.1832 7.93346C11.0173 7.8782 10.838 7.9679 10.7827 8.13383C10.772 8.16601 10.7665 8.19974 10.7665 8.23366V10.767H8.23313C8.05825 10.7671 7.91658 10.909 7.9167 11.0839C7.91674 11.1178 7.9222 11.1515 7.93293 11.1837L8.06561 11.5818C8.20709 12.0139 7.97141 12.4789 7.53923 12.6204C7.10706 12.7618 6.64208 12.5262 6.50065 12.094C6.44618 11.9276 6.44618 11.7481 6.50065 11.5817L6.63333 11.1837C6.68859 11.0178 6.59889 10.8384 6.43296 10.7832C6.40078 10.7725 6.36705 10.767 6.33313 10.767H3.48317C3.30829 10.767 3.1665 10.9087 3.1665 11.0836V18.6836C3.1665 18.8585 3.30829 19.0003 3.48317 19.0003H18.6832C18.858 19.0003 18.9998 18.8585 18.9998 18.6836V3.48366C18.9998 3.30878 18.858 3.16699 18.6832 3.16699ZM10.7827 15.7338C10.772 15.766 10.7665 15.7997 10.7665 15.8337V18.367H3.79984V11.4003H5.89395C5.65198 12.1676 6.07782 12.9857 6.84506 13.2277C7.61231 13.4696 8.43045 13.0438 8.67239 12.2765C8.76232 11.9914 8.76232 11.6854 8.67239 11.4003H10.7665V13.9336C10.7666 14.1085 10.9085 14.2502 11.0834 14.25C11.1173 14.25 11.1511 14.2445 11.1832 14.2338L11.5813 14.1011C12.0135 13.9597 12.4784 14.1953 12.6199 14.6275C12.7613 15.0597 12.5257 15.5247 12.0935 15.6661C11.9271 15.7206 11.7477 15.7206 11.5812 15.6661L11.1832 15.5334C11.0173 15.4782 10.838 15.5679 10.7827 15.7338ZM18.3665 18.367H11.3998V16.2729C12.1671 16.5149 12.9852 16.089 13.2272 15.3218C13.4691 14.5545 13.0433 13.7364 12.2761 13.4944C11.9909 13.4045 11.685 13.4045 11.3998 13.4944V11.4003H13.9331C14.108 11.4002 14.2497 11.2583 14.2496 11.0834C14.2495 11.0495 14.2441 11.0158 14.2333 10.9836L14.1006 10.5855C13.9592 10.1534 14.1949 9.68839 14.627 9.54695C15.0592 9.40552 15.5242 9.64116 15.6656 10.0733C15.7201 10.2397 15.7201 10.4192 15.6656 10.5856L15.5329 10.9836C15.4777 11.1496 15.5674 11.3289 15.7333 11.3841C15.7655 11.3949 15.7992 11.4003 15.8331 11.4004H18.3665L18.3665 18.367ZM18.3665 10.767H16.2724C16.5144 9.99975 16.0885 9.1816 15.3213 8.93967C14.554 8.69769 13.7359 9.12353 13.494 9.89078C13.404 10.1759 13.404 10.4819 13.494 10.767H11.3998V8.67291C11.8396 8.81545 12.3211 8.73854 12.6947 8.46613C13.3496 7.99897 13.5019 7.0893 13.0347 6.43436C12.6658 5.91716 12.0042 5.6987 11.3998 5.89448V3.80033H18.3665V10.767Z" fill="#9E9E9E"/>
<path d="M9.10959 2.72745C8.82443 2.63752 8.51849 2.63752 8.23333 2.72745V0.316667C8.23333 0.141787 8.09155 0 7.91667 0H0.316667C0.141787 0 0 0.141787 0 0.316667V7.91667C0 8.09155 0.141787 8.23333 0.316667 8.23333H2.72745C2.48548 9.00058 2.91131 9.81873 3.67856 10.0607C4.4458 10.3026 5.26395 9.87679 5.50588 9.10955C5.59582 8.82439 5.59582 8.51845 5.50588 8.23329H7.91667C8.09155 8.23329 8.23333 8.09151 8.23333 7.91663V5.50584C9.00058 5.74782 9.81873 5.32198 10.0607 4.55474C10.3026 3.78753 9.87683 2.96942 9.10959 2.72745ZM8.92703 4.89915C8.76062 4.95362 8.58119 4.95362 8.41478 4.89915L8.01673 4.76647C7.8508 4.71121 7.67149 4.8009 7.61623 4.96684C7.6055 4.99902 7.60004 5.03274 7.6 5.06667V7.6H5.06667C4.89179 7.60012 4.75012 7.74203 4.75024 7.9169C4.75028 7.95083 4.75574 7.98455 4.76647 8.01673L4.89915 8.41478C5.04062 8.84696 4.80494 9.31194 4.37277 9.45337C3.9406 9.5948 3.47562 9.35916 3.33418 8.92699C3.27972 8.76058 3.27972 8.58115 3.33418 8.41474L3.46687 8.01669C3.52213 7.85076 3.43243 7.67145 3.2665 7.61619C3.23431 7.60546 3.20059 7.6 3.16667 7.59996H0.633333V0.633333H7.6V3.16667C7.60012 3.34155 7.74203 3.48322 7.9169 3.4831C7.95083 3.48306 7.98455 3.47759 8.01673 3.46687L8.41478 3.33418C8.84696 3.19275 9.31194 3.42839 9.45337 3.86056C9.59484 4.29269 9.35916 4.75772 8.92703 4.89915Z" fill="#9E9E9E"/>
</svg>
