<svg width="14" height="15" viewBox="0 0 14 15" fill="none" xmlns="http://www.w3.org/2000/svg">
<path fill-rule="evenodd" clip-rule="evenodd" d="M4 0.5H0V4.5H4V0.5ZM3 1.5H1V3.5H3V1.5Z" fill="#9E9E9E"/>
<path fill-rule="evenodd" clip-rule="evenodd" d="M9 0.5H5V4.5H9V0.5ZM8 1.5H6V3.5H8V1.5Z" fill="#9E9E9E"/>
<path fill-rule="evenodd" clip-rule="evenodd" d="M14 0.5H10V4.5H14V0.5ZM13 1.5H11V3.5H13V1.5Z" fill="#9E9E9E"/>
<path fill-rule="evenodd" clip-rule="evenodd" d="M4 5.5H0V9.5H4V5.5ZM3 6.5H1V8.5H3V6.5Z" fill="#9E9E9E"/>
<path fill-rule="evenodd" clip-rule="evenodd" d="M9 5.5H5V9.5H9V5.5ZM8 6.5H6V8.5H8V6.5Z" fill="#9E9E9E"/>
<path fill-rule="evenodd" clip-rule="evenodd" d="M14 5.5H10V9.5H14V5.5ZM13 6.5H11V8.5H13V6.5Z" fill="#9E9E9E"/>
<path fill-rule="evenodd" clip-rule="evenodd" d="M4 10.5H0V14.5H4V10.5ZM3 11.5H1V13.5H3V11.5Z" fill="#9E9E9E"/>
<path fill-rule="evenodd" clip-rule="evenodd" d="M9 10.5H5V14.5H9V10.5ZM8 11.5H6V13.5H8V11.5Z" fill="#9E9E9E"/>
<path fill-rule="evenodd" clip-rule="evenodd" d="M14 10.5H10V14.5H14V10.5ZM13 11.5H11V13.5H13V11.5Z" fill="#9E9E9E"/>
</svg>
