<svg width="22" height="23" viewBox="0 0 22 23" fill="none" xmlns="http://www.w3.org/2000/svg">
<path fill-rule="evenodd" clip-rule="evenodd" d="M11 22.5C17.0751 22.5 22 17.5751 22 11.5C22 5.42487 17.0751 0.5 11 0.5C4.92487 0.5 0 5.42487 0 11.5C0 17.5751 4.92487 22.5 11 22.5ZM11 21.5C16.5228 21.5 21 17.0228 21 11.5C21 5.97715 16.5228 1.5 11 1.5C5.47715 1.5 1 5.97715 1 11.5C1 17.0228 5.47715 21.5 11 21.5Z" fill="#9E9E9E"/>
<path d="M8.87618 16.5C8.78285 16.5 8.70817 16.472 8.65215 16.416C8.59614 16.36 8.56811 16.2853 8.56808 16.192L8.56739 14.176H7.47539C7.38206 14.176 7.30738 14.148 7.25136 14.092C7.19534 14.036 7.16732 13.9613 7.16729 13.868L7.16721 13.644C7.16718 13.5507 7.19515 13.476 7.25113 13.42C7.30712 13.364 7.38177 13.336 7.47511 13.336H8.56711L8.56682 12.496H7.47482C7.38149 12.496 7.30681 12.468 7.25079 12.412C7.19477 12.356 7.16675 12.2813 7.16672 12.188L7.16664 11.964C7.16661 11.8707 7.19458 11.796 7.25056 11.74C7.30654 11.684 7.3812 11.656 7.47453 11.656H8.56653L8.56496 7.022C8.56493 6.92867 8.5929 6.854 8.64888 6.798C8.70486 6.73267 8.77952 6.7 8.87285 6.7H12.2748C13.2735 6.7 14.0576 6.952 14.6271 7.456C15.2059 7.95067 15.4955 8.66467 15.4958 9.598C15.4962 10.5313 15.2071 11.25 14.6286 11.754C14.0594 12.2487 13.2755 12.496 12.2768 12.496H9.44882L9.44911 13.336H12.5151C12.6084 13.336 12.6831 13.364 12.7391 13.42C12.7952 13.476 12.8232 13.5507 12.8232 13.644L12.8233 13.868C12.8233 13.9613 12.7953 14.036 12.7394 14.092C12.6834 14.148 12.6087 14.176 12.5154 14.176H9.44939L9.45008 16.192C9.45011 16.2853 9.41747 16.36 9.35215 16.416C9.29617 16.472 9.22152 16.5 9.12818 16.5H8.87618ZM12.2065 11.656C13.0092 11.656 13.6111 11.4833 14.0124 11.138C14.4136 10.7833 14.6141 10.27 14.6138 9.598C14.6136 8.926 14.4128 8.41733 14.0113 8.072C13.6099 7.71733 13.0078 7.54 12.2051 7.54H9.44713L9.44853 11.656H12.2065Z" fill="#9E9E9E"/>
</svg>
