<svg width="15" height="15" viewBox="0 0 15 15" fill="none" xmlns="http://www.w3.org/2000/svg">
<path d="M0.5 14.5V10.6923C0.5 10.4162 0.723858 10.1923 1 10.1923C1.27614 10.1923 1.5 10.4162 1.5 10.6923V12.6642L12.8 1.57692H10.5385C10.2411 1.57692 10 1.33585 10 1.03846C10 0.741077 10.2411 0.5 10.5385 0.5H14.5V4.30769C14.5 4.58383 14.2761 4.80769 14 4.80769C13.7239 4.80769 13.5 4.58383 13.5 4.30769V2.33077L2.2 13.4231H3.96154C4.25892 13.4231 4.5 13.6642 4.5 13.9615C4.5 14.2589 4.25892 14.5 3.96154 14.5H0.5Z" fill="#9E9E9E"/>
<path d="M0.5 5.92308V0.5H5.76154C6.05892 0.5 6.3 0.741077 6.3 1.03846C6.3 1.33585 6.05892 1.57692 5.76154 1.57692H1.5V5.92308C1.5 6.19922 1.27614 6.42308 1 6.42308C0.723858 6.42308 0.5 6.19922 0.5 5.92308Z" fill="#9E9E9E"/>
<path d="M13.5 13.4231V8.86154C13.5 8.5854 13.7239 8.36154 14 8.36154C14.2761 8.36154 14.5 8.5854 14.5 8.86154V14.5H9.03846C8.74108 14.5 8.5 14.2589 8.5 13.9615C8.5 13.6642 8.74108 13.4231 9.03846 13.4231H13.5Z" fill="#9E9E9E"/>
</svg>
