<svg width="14" height="15" viewBox="0 0 14 15" fill="none" xmlns="http://www.w3.org/2000/svg">
<g clip-path="url(#clip0)">
<path d="M1 0.5C0.447716 0.5 0 0.947715 0 1.5V13.5C0 14.0523 0.447715 14.5 1 14.5H13C13.5523 14.5 14 14.0523 14 13.5V1.5C14 0.947716 13.5523 0.5 13 0.5H1ZM13.1797 7.08984H10.6914V7.99667C10.8327 8.12314 11.1016 8.31967 11.1016 8.73047C11.1016 9.18282 10.7336 9.55078 10.2812 9.55078C9.8289 9.55078 9.46094 9.18282 9.46094 8.73047C9.46094 8.3232 9.72498 8.12741 9.87109 7.99667V7.08984H7.41016V5.63571C7.65796 5.78055 7.9408 5.85938 8.23047 5.85938C9.13516 5.85938 9.87109 5.12344 9.87109 4.21875C9.87109 3.31406 9.13516 2.57812 8.23047 2.57812C7.9408 2.57812 7.65796 2.65695 7.41016 2.80179V1.32031H13.1797V7.08984ZM6.58984 1.32031V3.80859H7.50191C7.63606 3.65959 7.82875 3.39844 8.23047 3.39844C8.68282 3.39844 9.05078 3.7664 9.05078 4.21875C9.05078 4.6711 8.68282 5.03906 8.23047 5.03906C7.83142 5.03906 7.63905 4.78111 7.50191 4.62891H6.58984V7.08984H5.13934C5.28183 6.84279 5.35938 6.56017 5.35938 6.26953C5.35938 5.36484 4.62344 4.62891 3.71875 4.62891C2.81406 4.62891 2.07812 5.36484 2.07812 6.26953C2.07812 6.56017 2.15567 6.84279 2.29816 7.08984H0.820312V1.32031H6.58984ZM0.820312 7.91016H3.30859V7.00333C3.16728 6.87686 2.89844 6.68033 2.89844 6.26953C2.89844 5.81718 3.2664 5.44922 3.71875 5.44922C4.1711 5.44922 4.53906 5.81718 4.53906 6.26953C4.53906 6.6768 4.27502 6.87259 4.12891 7.00333V7.91016H6.58984V9.36066C6.34279 9.21817 6.06017 9.14062 5.76953 9.14062C4.86484 9.14062 4.12891 9.87656 4.12891 10.7812C4.12891 11.6859 4.86484 12.4219 5.76953 12.4219C6.06017 12.4219 6.34279 12.3444 6.58984 12.2018V13.6797H0.820312V7.91016ZM7.41016 13.6797V11.1914H6.50333C6.37825 11.3311 6.18129 11.6016 5.76953 11.6016C5.31718 11.6016 4.94922 11.2336 4.94922 10.7812C4.94922 10.3289 5.31718 9.96094 5.76953 9.96094C6.1768 9.96094 6.37259 10.225 6.50333 10.3711H7.41016V7.91016H8.86066C8.71817 8.15721 8.64062 8.43983 8.64062 8.73047C8.64062 9.63516 9.37656 10.3711 10.2812 10.3711C11.1859 10.3711 11.9219 9.63516 11.9219 8.73047C11.9219 8.43983 11.8443 8.15721 11.7018 7.91016H13.1797V13.6797H7.41016Z" fill="#9E9E9E"/>
</g>
<defs>
<clipPath id="clip0">
<rect width="14" height="14" fill="white" transform="translate(0 0.5)"/>
</clipPath>
</defs>
</svg>
