<svg width="14" height="15" viewBox="0 0 14 15" fill="none" xmlns="http://www.w3.org/2000/svg">
<path fill-rule="evenodd" clip-rule="evenodd" d="M7 14.5C10.866 14.5 14 11.366 14 7.5C14 3.63401 10.866 0.5 7 0.5C3.13401 0.5 0 3.63401 0 7.5C0 11.366 3.13401 14.5 7 14.5ZM7 13.5C10.3137 13.5 13 10.8137 13 7.5C13 4.18629 10.3137 1.5 7 1.5C3.68629 1.5 1 4.18629 1 7.5C1 10.8137 3.68629 13.5 7 13.5Z" fill="#9E9E9E"/>
<path d="M5.47296 10.7002C5.41296 10.7002 5.36196 10.6822 5.31996 10.6462C5.28396 10.6042 5.26596 10.5532 5.26596 10.4932V9.3412H4.57296C4.51296 9.3412 4.46196 9.3232 4.41996 9.2872C4.38396 9.2452 4.36596 9.1942 4.36596 9.1342V8.9272C4.36596 8.8672 4.38396 8.8192 4.41996 8.7832C4.46196 8.7412 4.51296 8.72019 4.57296 8.72019H5.26596V8.2072H4.57296C4.51296 8.2072 4.46196 8.18919 4.41996 8.15319C4.38396 8.11119 4.36596 8.06019 4.36596 8.0002V7.6942C4.36596 7.6342 4.38396 7.5862 4.41996 7.5502C4.46196 7.5082 4.51296 7.4872 4.57296 7.4872H5.26596V4.61619C5.26596 4.55019 5.28396 4.49919 5.31996 4.4632C5.36196 4.42119 5.41296 4.40019 5.47296 4.40019H7.75896C8.43696 4.40019 8.97096 4.56519 9.36096 4.8952C9.75096 5.2252 9.94596 5.7022 9.94596 6.3262C9.94596 6.9382 9.75096 7.4062 9.36096 7.7302C8.97696 8.0482 8.44296 8.2072 7.75896 8.2072H6.16596V8.72019H7.90296C7.96296 8.72019 8.01096 8.7412 8.04696 8.7832C8.08896 8.8192 8.10996 8.8672 8.10996 8.9272V9.1342C8.10996 9.1942 8.08896 9.2452 8.04696 9.2872C8.01096 9.3232 7.96296 9.3412 7.90296 9.3412H6.16596V10.4932C6.16596 10.5532 6.14496 10.6042 6.10296 10.6462C6.06096 10.6822 6.00996 10.7002 5.94996 10.7002H5.47296ZM7.71396 7.4872C8.15196 7.4872 8.48196 7.3882 8.70396 7.1902C8.93196 6.9922 9.04596 6.7042 9.04596 6.3262C9.04596 5.9482 8.93496 5.6602 8.71296 5.4622C8.49096 5.2582 8.15796 5.15619 7.71396 5.15619H6.15696V7.4872H7.71396Z" fill="#9E9E9E"/>
</svg>
