<svg width="27" height="19" viewBox="0 0 27 19" fill="none" xmlns="http://www.w3.org/2000/svg">
<path d="M7.45219 12.7759C6.63824 12.994 6.10979 12.6497 5.86684 11.743L5.32022 9.70294L4.71748 9.86445C4.66596 9.87825 4.61803 9.87453 4.57369 9.85328C4.53312 9.8255 4.50593 9.78586 4.49213 9.73434L4.42173 9.47161C4.40792 9.42009 4.41234 9.37474 4.43496 9.33555C4.46136 9.28982 4.50032 9.26006 4.55184 9.24625L5.15457 9.08475L4.80879 7.79427C4.79499 7.74276 4.7994 7.6974 4.82203 7.65821C4.84843 7.61249 4.88738 7.58273 4.9389 7.56892L5.30209 7.47161C5.3536 7.4578 5.39965 7.46479 5.44022 7.49257C5.48456 7.51382 5.51364 7.5502 5.52744 7.60171L5.87322 8.89219L6.83142 8.63544C6.88294 8.62164 6.92898 8.62863 6.96955 8.65641C7.0139 8.67765 7.04297 8.71403 7.05677 8.76555L7.12717 9.02828C7.14098 9.0798 7.13468 9.12842 7.10828 9.17414C7.08565 9.21333 7.04858 9.23983 6.99707 9.25363L6.03887 9.51038L6.571 11.4963C6.64002 11.7539 6.73626 11.9379 6.85973 12.0484C6.98181 12.1537 7.14331 12.1795 7.34423 12.1256L7.8156 11.9993C7.86711 11.9855 7.91316 11.9925 7.95373 12.0203C7.99807 12.0416 8.02715 12.0779 8.04095 12.1294L8.11549 12.4076C8.12929 12.4592 8.123 12.5078 8.0966 12.5535C8.07397 12.5927 8.0369 12.6192 7.98538 12.633L7.45219 12.7759Z" fill="#9E9E9E"/>
<path d="M10.0432 12.1644C9.7908 12.2321 9.54259 12.2433 9.29862 12.1983C9.05465 12.1532 8.8448 12.0604 8.66907 11.9197C8.49712 11.7726 8.38216 11.5908 8.32418 11.3744C8.23308 11.0344 8.29763 10.719 8.51784 10.428C8.74183 10.1306 9.0844 9.88421 9.54555 9.68887L10.6535 9.21808L10.5934 8.99399C10.4526 8.46852 10.0808 8.28654 9.4781 8.44805C9.25143 8.50878 9.07909 8.60741 8.96107 8.74395C8.84167 8.87532 8.76317 9.01507 8.72555 9.16319C8.72252 9.21369 8.71089 9.2527 8.69065 9.28021C8.67556 9.30634 8.64742 9.32492 8.6062 9.33596L8.27392 9.425C8.22756 9.43742 8.18221 9.43301 8.13786 9.41176C8.09729 9.38398 8.07079 9.34691 8.05837 9.30055C8.03039 9.17553 8.04979 9.02125 8.11656 8.83772C8.18711 8.64765 8.32311 8.46489 8.52456 8.28944C8.72463 8.10883 8.99467 7.97298 9.33468 7.88187C9.91166 7.72727 10.3629 7.75267 10.6885 7.95807C11.0127 8.15831 11.2287 8.45935 11.3363 8.86117L12.0072 11.3649C12.021 11.4164 12.0147 11.465 11.9883 11.5107C11.9657 11.5499 11.9286 11.5764 11.8771 11.5902L11.5216 11.6855C11.4701 11.6993 11.4222 11.6955 11.3778 11.6743C11.3373 11.6465 11.3101 11.6069 11.2963 11.5553L11.2072 11.2231C11.1381 11.4183 11.0105 11.6016 10.8245 11.7729C10.6385 11.9442 10.3781 12.0747 10.0432 12.1644ZM10.0502 11.5414C10.3851 11.4517 10.6291 11.2703 10.7824 10.9973C10.9394 10.7179 10.9627 10.372 10.8522 9.95991L10.7942 9.74354L9.93307 10.1151C9.58111 10.2646 9.32896 10.426 9.17664 10.5994C9.02293 10.7676 8.97092 10.9444 9.02061 11.1298C9.07583 11.3359 9.20362 11.4728 9.40399 11.5406C9.60298 11.6032 9.81839 11.6035 10.0502 11.5414Z" fill="#9E9E9E"/>
<path d="M15.2672 12.5039C14.8447 12.6171 14.4854 12.6361 14.1892 12.5609C13.8943 12.4908 13.6686 12.3801 13.5121 12.2288C13.3557 12.0775 13.2529 11.9311 13.204 11.7896C13.185 11.7394 13.1887 11.6915 13.2151 11.6458C13.2467 11.5987 13.2856 11.5689 13.332 11.5565L13.7029 11.4571C13.7493 11.4447 13.7907 11.4446 13.8271 11.457C13.8649 11.4744 13.9024 11.5113 13.9396 11.5676C14.0456 11.7159 14.184 11.8307 14.3548 11.9119C14.5322 11.9969 14.7703 11.9993 15.0691 11.9193C15.4503 11.8171 15.709 11.6595 15.8451 11.4463C15.9826 11.2383 15.9962 10.9282 15.8857 10.5161L15.745 9.99063C15.6566 10.1965 15.5231 10.3786 15.3447 10.5368C15.1648 10.6899 14.9333 10.8044 14.6499 10.8804C14.1038 11.0267 13.6481 10.9638 13.2825 10.6918C12.9208 10.4133 12.6604 10.0082 12.5014 9.47661L12.4357 9.26231L12.3875 9.0516C12.2608 8.51684 12.287 8.03773 12.4662 7.61426C12.644 7.18564 13.0033 6.89886 13.5442 6.75392C14.0852 6.60899 14.5607 6.69413 14.971 7.00936L14.8819 6.67709C14.8681 6.62557 14.8719 6.57764 14.8931 6.5333C14.9195 6.48757 14.9585 6.45781 15.01 6.44401L15.3654 6.34876C15.417 6.33496 15.4656 6.34125 15.5113 6.36765C15.557 6.39405 15.5868 6.43301 15.6006 6.48452L16.6048 10.2323C16.9237 11.4223 16.4778 12.1795 15.2672 12.5039ZM14.6388 10.2208C14.9891 10.1269 15.2234 9.93989 15.3416 9.65976C15.4598 9.37962 15.4838 9.07778 15.4137 8.75424C15.4064 8.7065 15.3848 8.61565 15.3489 8.48171C15.3144 8.35292 15.2884 8.26604 15.2708 8.22105C15.1698 7.90579 14.998 7.65641 14.7556 7.4729C14.5183 7.28801 14.222 7.24319 13.8665 7.33843C13.5007 7.43644 13.2658 7.62086 13.1617 7.89171C13.0576 8.16255 13.0475 8.4855 13.1314 8.86055L13.1775 9.06354L13.2412 9.27011C13.3546 9.63173 13.5248 9.90637 13.7518 10.094C13.9774 10.2765 14.2731 10.3188 14.6388 10.2208Z" fill="#9E9E9E"/>
<path fill-rule="evenodd" clip-rule="evenodd" d="M18.0665 7.71699C18.2809 8.51719 19.1021 8.98717 19.9007 8.76672C20.6992 8.54627 21.1728 7.71887 20.9584 6.91867C20.7439 6.11847 19.9228 5.64849 19.1242 5.86894C18.3257 6.08939 17.8521 6.91679 18.0665 7.71699ZM19.0285 7.4436C19.1 7.71033 19.3737 7.86699 19.6399 7.79351C19.906 7.72002 20.0639 7.44422 19.9924 7.17749C19.921 6.91076 19.6472 6.7541 19.381 6.82758C19.1149 6.90106 18.957 7.17686 19.0285 7.4436Z" fill="#9E9E9E"/>
<path fill-rule="evenodd" clip-rule="evenodd" d="M18.5425 0.633977C18.3128 0.501369 18.0398 0.465434 17.7837 0.534077L0.797093 5.08561C0.263627 5.22856 -0.0529554 5.77689 0.0899864 6.31036L3.19582 17.9015C3.33876 18.4349 3.88709 18.7515 4.42056 18.6086L21.4071 14.057C21.6633 13.9884 21.8817 13.8208 22.0143 13.5911L26.257 6.24264C26.5331 5.76435 26.3692 5.15276 25.8909 4.87662L18.5425 0.633977ZM17.9596 1.52221L1.05591 6.05154L4.16174 17.6426L21.0654 13.1133L25.3081 5.76485L17.9596 1.52221Z" fill="#9E9E9E"/>
</svg>
