<svg width="76" height="49" viewBox="0 0 76 49" fill="none" xmlns="http://www.w3.org/2000/svg">
<path fill-rule="evenodd" clip-rule="evenodd" d="M24 9.27027V39.7297L49.6709 49L76 39.7297V9.27027L50 0L24 9.27027ZM50 2.64865L29.2658 9.93243L50 16.5541L70.7342 9.93243L50 2.64865ZM26.6329 11.9189V37.7432L48.3544 45.6892V19.2027L26.6329 11.9189ZM73.3671 37.7432L50.9873 45.6892V19.2027L73.3671 11.9189V37.7432Z" fill="#37ADCF"/>
<path d="M0 3C0 2.44772 0.447715 2 1 2H25C25.5523 2 26 2.44772 26 3C26 3.55228 25.5523 4 25 4H1C0.447716 4 0 3.55228 0 3Z" fill="#37ADCF"/>
<path d="M0 9C0 8.44772 0.447715 8 1 8H18C18.5523 8 19 8.44772 19 9C19 9.55228 18.5523 10 18 10H1C0.447715 10 0 9.55228 0 9Z" fill="#37ADCF"/>
<path d="M0 15C0 14.4477 0.447715 14 1 14H11C11.5523 14 12 14.4477 12 15C12 15.5523 11.5523 16 11 16H1C0.447715 16 0 15.5523 0 15Z" fill="#37ADCF"/>
</svg>
