<svg width="39" height="52" viewBox="0 0 39 52" fill="none" xmlns="http://www.w3.org/2000/svg">
<path fill-rule="evenodd" clip-rule="evenodd" d="M0 52V0H29.5L39 10V52H0ZM30.5 4L35.5 9H30.5V4ZM2 50V2H28.5V11H37V50H2Z" fill="#37ADCF"/>
<path d="M7 9C7 8.44772 7.44772 8 8 8H17C17.5523 8 18 8.44772 18 9C18 9.55228 17.5523 10 17 10H8C7.44771 10 7 9.55228 7 9Z" fill="#37ADCF"/>
<path d="M7 17C7 16.4477 7.44772 16 8 16H30C30.5523 16 31 16.4477 31 17C31 17.5523 30.5523 18 30 18H8C7.44772 18 7 17.5523 7 17Z" fill="#37ADCF"/>
<path d="M7 21C7 20.4477 7.44772 20 8 20H30C30.5523 20 31 20.4477 31 21C31 21.5523 30.5523 22 30 22H8C7.44772 22 7 21.5523 7 21Z" fill="#37ADCF"/>
<path d="M7 25C7 24.4477 7.44772 24 8 24H30C30.5523 24 31 24.4477 31 25C31 25.5523 30.5523 26 30 26H8C7.44772 26 7 25.5523 7 25Z" fill="#37ADCF"/>
<path d="M7 29C7 28.4477 7.44772 28 8 28H30C30.5523 28 31 28.4477 31 29C31 29.5523 30.5523 30 30 30H8C7.44772 30 7 29.5523 7 29Z" fill="#37ADCF"/>
<path d="M7 33C7 32.4477 7.44772 32 8 32H30C30.5523 32 31 32.4477 31 33C31 33.5523 30.5523 34 30 34H8C7.44772 34 7 33.5523 7 33Z" fill="#37ADCF"/>
<path d="M7 37C7 36.4477 7.44772 36 8 36H30C30.5523 36 31 36.4477 31 37C31 37.5523 30.5523 38 30 38H8C7.44772 38 7 37.5523 7 37Z" fill="#37ADCF"/>
<path d="M7 41C7 40.4477 7.44772 40 8 40H30C30.5523 40 31 40.4477 31 41C31 41.5523 30.5523 42 30 42H8C7.44772 42 7 41.5523 7 41Z" fill="#37ADCF"/>
<path d="M7 45C7 44.4477 7.44772 44 8 44H20C20.5523 44 21 44.4477 21 45C21 45.5523 20.5523 46 20 46H8C7.44772 46 7 45.5523 7 45Z" fill="#37ADCF"/>
</svg>
