<svg width="74" height="49" viewBox="0 0 74 49" fill="none" xmlns="http://www.w3.org/2000/svg">
<path fill-rule="evenodd" clip-rule="evenodd" d="M0.5 9L25 0L73.5 17.5L48.5 26.5L0.5 9ZM25 2L6 9L48.5 24.5L68 17.5L25 2Z" fill="#37ADCF"/>
<path fill-rule="evenodd" clip-rule="evenodd" d="M73.5 9L49 0L0.5 17.5L25.5 26.5L73.5 9ZM49 2L68 9L25.5 24.5L6 17.5L49 2Z" fill="#37ADCF"/>
<path d="M13.5 40.5V22L15.5 23V39L36 46.5V22H38V46.5L59 39L58.5 23L60.5 22L61 40.5L37 49L13.5 40.5Z" fill="#37ADCF"/>
</svg>
