<svg width="73" height="49" viewBox="0 0 73 49" fill="none" xmlns="http://www.w3.org/2000/svg">
<g clip-path="url(#clip0)">
<mask id="path-1-outside-1" maskUnits="userSpaceOnUse" x="36.5" y="-1" width="37" height="28" fill="black">
<rect fill="white" x="36.5" y="-1" width="37" height="28"/>
<path d="M53.5418 6.79949V0.738465C53.5418 0.44009 53.3639 0.169758 53.0912 0.0574434C52.8185 -0.059234 52.505 0.0057176 52.2964 0.216983L37.7133 11.4439C37.4289 11.7319 37.4289 12.2002 37.7133 12.4883L52.2964 23.7151C52.4364 23.8555 52.6231 23.9308 52.8127 23.9308C52.906 23.9308 53.0008 23.9131 53.0912 23.8747C53.3639 23.7609 53.5418 23.4906 53.5418 23.1922V17.1622C56.7006 17.3217 69.0248 18.3972 71.0708 25.4686C71.1744 25.8201 71.5185 26.0477 71.8744 25.9915C72.2331 25.9383 72.5 25.6281 72.5 25.2603C72.4999 8.31512 56.9572 6.90433 53.5418 6.79949ZM52.8185 15.6584C52.5969 15.688 52.4379 15.7337 52.2994 15.8726C52.1608 16.0114 52.0836 16.2005 52.0836 16.397V21.4091L39.2606 11.9653L52.0836 2.52152V7.53369C52.0836 7.73457 52.1637 7.92513 52.3067 8.06549C52.4481 8.20433 52.6304 8.29594 52.8375 8.27233L53.0664 8.26935C55.8459 8.26935 68.8906 8.97101 70.8054 21.9174C65.8428 15.8593 53.4223 15.6643 52.8185 15.6584Z"/>
</mask>
<path d="M53.5418 6.79949V0.738465C53.5418 0.44009 53.3639 0.169758 53.0912 0.0574434C52.8185 -0.059234 52.505 0.0057176 52.2964 0.216983L37.7133 11.4439C37.4289 11.7319 37.4289 12.2002 37.7133 12.4883L52.2964 23.7151C52.4364 23.8555 52.6231 23.9308 52.8127 23.9308C52.906 23.9308 53.0008 23.9131 53.0912 23.8747C53.3639 23.7609 53.5418 23.4906 53.5418 23.1922V17.1622C56.7006 17.3217 69.0248 18.3972 71.0708 25.4686C71.1744 25.8201 71.5185 26.0477 71.8744 25.9915C72.2331 25.9383 72.5 25.6281 72.5 25.2603C72.4999 8.31512 56.9572 6.90433 53.5418 6.79949ZM52.8185 15.6584C52.5969 15.688 52.4379 15.7337 52.2994 15.8726C52.1608 16.0114 52.0836 16.2005 52.0836 16.397V21.4091L39.2606 11.9653L52.0836 2.52152V7.53369C52.0836 7.73457 52.1637 7.92513 52.3067 8.06549C52.4481 8.20433 52.6304 8.29594 52.8375 8.27233L53.0664 8.26935C55.8459 8.26935 68.8906 8.97101 70.8054 21.9174C65.8428 15.8593 53.4223 15.6643 52.8185 15.6584Z" fill="#37ADCF"/>
<path d="M53.5418 6.79949H53.2918V7.04194L53.5342 7.04937L53.5418 6.79949ZM53.0912 0.0574434L52.9929 0.287308L52.996 0.288603L53.0912 0.0574434ZM52.2964 0.216983L52.4489 0.41508L52.4624 0.404712L52.4743 0.392618L52.2964 0.216983ZM37.7133 11.4439L37.5608 11.2458L37.5473 11.2561L37.5354 11.2682L37.7133 11.4439ZM37.7133 12.4883L37.5354 12.6639L37.5473 12.676L37.5608 12.6864L37.7133 12.4883ZM52.2964 23.7151L52.4734 23.5386L52.4619 23.527L52.4489 23.517L52.2964 23.7151ZM53.0912 23.8747L52.995 23.6439L52.9935 23.6446L53.0912 23.8747ZM53.5418 17.1622L53.5545 16.9125L53.2918 16.8992V17.1622H53.5418ZM71.0708 25.4686L70.8307 25.538L70.831 25.5392L71.0708 25.4686ZM71.8744 25.9915L71.8377 25.7442L71.8354 25.7446L71.8744 25.9915ZM72.5 25.2603H72.75V25.2603L72.5 25.2603ZM52.8185 15.6584L52.821 15.4084L52.8032 15.4082L52.7855 15.4106L52.8185 15.6584ZM52.0836 21.4091L51.9353 21.6104L52.3336 21.9037V21.4091H52.0836ZM39.2606 11.9653L39.1123 11.764L38.839 11.9653L39.1123 12.1666L39.2606 11.9653ZM52.0836 2.52152H52.3336V2.02692L51.9353 2.32022L52.0836 2.52152ZM52.3067 8.06549L52.1315 8.24387L52.1315 8.2439L52.3067 8.06549ZM52.8375 8.27233L52.8342 8.02235L52.8216 8.02251L52.8091 8.02394L52.8375 8.27233ZM53.0664 8.26935V8.01933L53.0632 8.01937L53.0664 8.26935ZM70.8054 21.9174L70.612 22.0758L71.185 22.7753L71.0527 21.8808L70.8054 21.9174ZM53.7918 6.79949V0.738465H53.2918V6.79949H53.7918ZM53.7918 0.738465C53.7918 0.341286 53.5551 -0.021882 53.1864 -0.173716L52.996 0.288603C53.1727 0.361399 53.2918 0.538894 53.2918 0.738465H53.7918ZM53.1896 -0.1724C52.8202 -0.330462 52.3975 -0.241294 52.1185 0.0413487L52.4743 0.392618C52.6124 0.252729 52.8169 0.211994 52.9929 0.287287L53.1896 -0.1724ZM52.1439 0.018887L37.5608 11.2458L37.8658 11.642L52.4489 0.41508L52.1439 0.018887ZM37.5354 11.2682C37.1549 11.6537 37.1549 12.2785 37.5354 12.6639L37.8912 12.3127C37.7029 12.122 37.7029 11.8102 37.8912 11.6195L37.5354 11.2682ZM37.5608 12.6864L52.1439 23.9132L52.4489 23.517L37.8658 12.2902L37.5608 12.6864ZM52.1194 23.8917C52.3065 24.0792 52.557 24.1808 52.8127 24.1808V23.6808C52.6892 23.6808 52.5663 23.6317 52.4734 23.5386L52.1194 23.8917ZM52.8127 24.1808C52.9377 24.1808 53.0659 24.157 53.189 24.1047L52.9935 23.6446C52.9357 23.6691 52.8743 23.6808 52.8127 23.6808V24.1808ZM53.1875 24.1054C53.555 23.9521 53.7918 23.5896 53.7918 23.1922H53.2918C53.2918 23.3915 53.1728 23.5697 52.995 23.6439L53.1875 24.1054ZM53.7918 23.1922V17.1622H53.2918V23.1922H53.7918ZM53.5292 17.4119C55.1008 17.4912 58.9469 17.7986 62.6486 18.9619C66.3677 20.1307 69.8454 22.1327 70.8307 25.538L71.311 25.3991C70.2502 21.733 66.5428 19.6616 62.7985 18.4849C59.0369 17.3028 55.1416 16.9927 53.5545 16.9125L53.5292 17.4119ZM70.831 25.5392C70.9681 26.0047 71.4269 26.3152 71.9134 26.2384L71.8354 25.7446C71.6102 25.7801 71.3807 25.6356 71.3106 25.3979L70.831 25.5392ZM71.911 26.2388C72.3938 26.1672 72.75 25.7506 72.75 25.2603H72.25C72.25 25.5056 72.0725 25.7094 71.8377 25.7442L71.911 26.2388ZM72.75 25.2603C72.75 16.6921 68.811 12.0235 64.4264 9.49813C60.0608 6.98364 55.2722 6.60249 53.5495 6.54961L53.5342 7.04937C55.2269 7.10133 59.9173 7.47799 64.1769 9.9314C68.4176 12.3739 72.25 16.8833 72.25 25.2603L72.75 25.2603ZM52.7855 15.4106C52.5464 15.4425 52.3198 15.4982 52.1224 15.696L52.4763 16.0492C52.556 15.9693 52.6474 15.9334 52.8516 15.9062L52.7855 15.4106ZM52.1224 15.696C51.9364 15.8823 51.8336 16.1352 51.8336 16.397H52.3336C52.3336 16.2658 52.3852 16.1405 52.4763 16.0492L52.1224 15.696ZM51.8336 16.397V21.4091H52.3336V16.397H51.8336ZM52.2318 21.2078L39.4088 11.764L39.1123 12.1666L51.9353 21.6104L52.2318 21.2078ZM39.4088 12.1666L52.2318 2.72282L51.9353 2.32022L39.1123 11.764L39.4088 12.1666ZM51.8336 2.52152V7.53369H52.3336V2.52152H51.8336ZM51.8336 7.53369C51.8336 7.80176 51.9408 8.05657 52.1315 8.24387L52.4818 7.88711C52.3867 7.79369 52.3336 7.66738 52.3336 7.53369H51.8336ZM52.1315 8.2439C52.3085 8.41758 52.5616 8.55541 52.8658 8.52072L52.8091 8.02394C52.6992 8.03647 52.5877 7.99108 52.4818 7.88709L52.1315 8.2439ZM52.8407 8.52231L53.0697 8.51933L53.0632 8.01937L52.8342 8.02235L52.8407 8.52231ZM53.0664 8.51935C54.4414 8.51935 58.3549 8.69387 62.1546 10.4651C65.9415 12.2304 69.6152 15.5792 70.5581 21.954L71.0527 21.8808C70.0807 15.3092 66.2747 11.834 62.3658 10.0119C58.4695 8.19565 54.471 8.01935 53.0664 8.01935V8.51935ZM70.9988 21.759C68.4605 18.6604 64.0412 17.0828 60.2293 16.2738C56.4052 15.4621 53.1305 15.4114 52.821 15.4084L52.8161 15.9084C53.1103 15.9112 56.3477 15.961 60.1255 16.7629C63.9154 17.5673 68.1877 19.1163 70.612 22.0758L70.9988 21.759Z" fill="#37ADCF" mask="url(#path-1-outside-1)"/>
<path fill-rule="evenodd" clip-rule="evenodd" d="M0.628181 20.3592C0.251349 20.4945 0 20.8519 0 21.2525V41.7504C0 42.1495 0.2496 42.506 0.624547 42.6424L17.9457 48.9429C18.1527 49.0181 18.3793 49.0191 18.5869 48.9454L36.3683 42.6393C36.7469 42.505 37 42.1466 37 41.7447V21.2525C37 20.8519 36.7487 20.4945 36.3718 20.3592L18.8205 14.0558C18.6133 13.9814 18.3867 13.9814 18.1795 14.0558L0.628181 20.3592ZM18.5 15.839L3.74684 21.0593L18.5 25.8051L33.2532 21.0593L18.5 15.839ZM1.87342 22.4831V40.9915L17.3291 46.6864V27.7034L1.87342 22.4831ZM35.1266 40.9915L19.2025 46.6864V27.7034L35.1266 22.4831V40.9915Z" fill="#37ADCF"/>
</g>
<defs>
<clipPath id="clip0">
<rect width="73" height="49" fill="white"/>
</clipPath>
</defs>
</svg>
