<svg width="73" height="49" viewBox="0 0 73 49" fill="none" xmlns="http://www.w3.org/2000/svg">
<path d="M0.5 1C0.5 0.385793 0.997444 0 1.61107 0H24.2768C24.8904 0 25.3879 0.385793 25.3879 1C25.3879 1.61421 24.8904 2 24.2768 2H1.61107C0.997445 2 0.5 1.61421 0.5 1Z" fill="#37ADCF"/>
<path d="M0.5 7.67C0.5 7.05579 0.997444 6.67272 1.61107 6.67272H16.4993C17.1129 6.67272 17.6104 7.05579 17.6104 7.67C17.6104 8.28421 17.1129 8.67 16.4993 8.67H1.61107C0.997443 8.67 0.5 8.28421 0.5 7.67Z" fill="#37ADCF"/>
<path d="M0.5 14C0.5 13.3858 0.997444 13 1.61107 13H8.72179C9.33542 13 9.83286 13.3858 9.83286 14C9.83286 14.6142 9.33542 15 8.72179 15H1.61107C0.997444 15 0.5 14.6142 0.5 14Z" fill="#37ADCF"/>
<path fill-rule="evenodd" clip-rule="evenodd" d="M21.1662 9.75827C20.6344 9.9437 20.2796 10.4334 20.2796 10.9823V39.0671C20.2796 39.614 20.6319 40.1024 21.1611 40.2893L22.3 40.6915L44.7373 48.6144L45.6075 48.9217C45.8996 49.0249 46.2195 49.0261 46.5124 48.9253L47.3813 48.6261L71.6084 40.285C72.1428 40.101 72.5 39.61 72.5 39.0593V10.9823C72.5 10.4334 72.1453 9.9437 71.6134 9.75827L46.5 1.12187C46.3538 1.07088 46.1531 1 46 1C45.8469 1 45.6462 1.07088 45.5 1.12187L21.1662 9.75827ZM46 3L23.28 11L46 17.82L69.25 11L46 3ZM22.3 12.6683V38.7L45 46.6V19.8209L22.3 12.6683ZM70.5 38.7L47 46.6V19.8209L70.5 12.6683V38.7Z" fill="#37ADCF"/>
</svg>
