<svg width="58" height="51" viewBox="0 0 58 51" fill="none" xmlns="http://www.w3.org/2000/svg">
<path d="M38.7267 11.8716C38.6291 13.841 38.1408 15.3953 37.2619 16.5347C36.383 17.674 35.207 18.2437 33.7341 18.2437C32.2122 18.2437 31.2357 17.5601 30.8044 16.1929C30.3649 16.8846 29.8604 17.4014 29.2907 17.7432C28.7292 18.0768 28.1473 18.2437 27.5451 18.2437C26.3895 18.2437 25.5147 17.7716 24.9206 16.8276C24.3265 15.8836 24.1068 14.5775 24.2614 12.9092C24.3835 11.5664 24.6886 10.3701 25.1769 9.32031C25.6733 8.26237 26.3081 7.43229 27.0812 6.83008C27.8625 6.22786 28.6803 5.92676 29.5348 5.92676C30.194 5.92676 30.784 6.01628 31.3049 6.19531C31.8257 6.36621 32.4116 6.70801 33.0627 7.2207L32.4279 13.9834C32.2733 15.8633 32.7941 16.8032 33.9904 16.8032C34.91 16.8032 35.6546 16.3475 36.2243 15.436C36.794 14.5246 37.1032 13.3364 37.152 11.8716C37.3066 8.70589 36.7166 6.29297 35.382 4.63281C34.0555 2.97266 32.0332 2.14258 29.3151 2.14258C27.6794 2.14258 26.2267 2.54948 24.9572 3.36328C23.6877 4.16895 22.6867 5.33675 21.9543 6.8667C21.2219 8.39665 20.8109 10.1626 20.7214 12.1646C20.6237 14.1828 20.8678 15.9365 21.4538 17.4258C22.0397 18.9069 22.9308 20.0381 24.1271 20.8193C25.3316 21.6087 26.7842 22.0034 28.485 22.0034C29.2175 22.0034 29.9499 21.9139 30.6823 21.7349C31.4229 21.5558 32.0373 21.3239 32.5256 21.0391L32.9772 22.4429C32.4727 22.7603 31.8013 23.0207 30.9631 23.2241C30.133 23.4276 29.2907 23.5293 28.4362 23.5293C26.4017 23.5293 24.652 23.0695 23.1872 22.1499C21.7223 21.2384 20.6237 19.9201 19.8913 18.1948C19.167 16.4777 18.8537 14.4676 18.9513 12.1646C19.049 9.92659 19.5495 7.9165 20.4528 6.13428C21.3561 4.34391 22.5809 2.96452 24.1271 1.99609C25.6733 1.01953 27.419 0.53125 29.3639 0.53125C31.3903 0.53125 33.1278 0.986979 34.5763 1.89844C36.0249 2.8099 37.1032 4.12419 37.8112 5.84131C38.5192 7.55843 38.8244 9.56852 38.7267 11.8716ZM26.2023 12.9092C26.0884 14.0648 26.1942 14.9518 26.5197 15.5703C26.8534 16.1888 27.3783 16.498 28.0944 16.498C28.5827 16.498 29.0506 16.2905 29.4982 15.8755C29.9539 15.4604 30.3283 14.8664 30.6213 14.0933L30.6335 13.9834L31.195 7.84326C30.7393 7.60726 30.251 7.48926 29.7302 7.48926C28.778 7.48926 27.9886 7.97347 27.362 8.94189C26.7435 9.91032 26.3569 11.2327 26.2023 12.9092Z" fill="#37ADCF"/>
<path d="M29 36.9995L2 13.4995V15.9995L21.1856 32.6981L22.8384 34.1366L29 39.4995L35.1616 34.1366L36.8144 32.6981L56 15.9995V13.4995L29 36.9995Z" fill="#37ADCF"/>
<path d="M2 47.9995V48.9995H4L22.8384 34.1366L21.1856 32.6981L2 47.9995Z" fill="#37ADCF"/>
<path d="M56 48.9995V47.9995L36.8144 32.6981L35.1616 34.1366L54 48.9995H56Z" fill="#37ADCF"/>
<path d="M0 10.9995V50.9995H58V10.9995H44V12.9995H56V13.4995V15.9995V47.9995V48.9995H54H4H2V47.9995V15.9995V13.4995V12.9995H14V10.9995H0Z" fill="#37ADCF"/>
</svg>
