<svg width="73" height="49" viewBox="0 0 73 49" fill="none" xmlns="http://www.w3.org/2000/svg">
<path fill-rule="evenodd" clip-rule="evenodd" d="M1 49C0.447715 49 0 48.5523 0 48V1C0 0.447715 0.447714 0 0.999999 0H50.0128H72C72.5523 0 73 0.447715 73 1V48C73 48.5523 72.5523 49 72 49H1ZM2.10256 47.1154V1.88462H48.9615H69.8974C70.4497 1.88462 70.8974 2.33233 70.8974 2.88461V10.3654V47.1154H2.10256Z" fill="#37ADCF"/>
<path d="M7.35897 8.48077C7.35897 7.96035 7.82965 7.53846 8.41026 7.53846H17.8718C18.4524 7.53846 18.9231 7.96035 18.9231 8.48077C18.9231 9.00119 18.4524 9.42308 17.8718 9.42308H8.41026C7.82965 9.42308 7.35897 9.00119 7.35897 8.48077Z" fill="#37ADCF"/>
<path d="M7.35897 16.0192C7.35897 15.4988 7.82965 15.0769 8.41026 15.0769H31.5385C32.1191 15.0769 32.5897 15.4988 32.5897 16.0192C32.5897 16.5397 32.1191 16.9615 31.5385 16.9615H8.41026C7.82965 16.9615 7.35897 16.5397 7.35897 16.0192Z" fill="#37ADCF"/>
<path d="M7.35897 19.7885C7.35897 19.268 7.82965 18.8462 8.41026 18.8462H31.5385C32.1191 18.8462 32.5897 19.268 32.5897 19.7885C32.5897 20.3089 32.1191 20.7308 31.5385 20.7308H8.41026C7.82965 20.7308 7.35897 20.3089 7.35897 19.7885Z" fill="#37ADCF"/>
<path d="M41.0769 7.94231C41.0769 7.42189 41.5476 7 42.1282 7H65.2564C65.837 7 66.3077 7.42189 66.3077 7.94231C66.3077 8.46273 65.837 8.88461 65.2564 8.88461H42.1282C41.5476 8.88461 41.0769 8.46273 41.0769 7.94231Z" fill="#37ADCF"/>
<path d="M7.35897 27.9423C7.35897 27.4219 7.82965 27 8.41026 27H31.5385C32.1191 27 32.5897 27.4219 32.5897 27.9423C32.5897 28.4627 32.1191 28.8846 31.5385 28.8846H8.41026C7.82965 28.8846 7.35897 28.4627 7.35897 27.9423Z" fill="#37ADCF"/>
<path d="M7.35897 31.7115C7.35897 31.1911 7.82965 30.7692 8.41026 30.7692H31.5385C32.1191 30.7692 32.5897 31.1911 32.5897 31.7115C32.5897 32.232 32.1191 32.6538 31.5385 32.6538H8.41026C7.82965 32.6538 7.35897 32.232 7.35897 31.7115Z" fill="#37ADCF"/>
<path d="M7.35897 35.4808C7.35897 34.9603 7.82965 34.5385 8.41026 34.5385H31.5385C32.1191 34.5385 32.5897 34.9603 32.5897 35.4808C32.5897 36.0012 32.1191 36.4231 31.5385 36.4231H8.41026C7.82965 36.4231 7.35897 36.0012 7.35897 35.4808Z" fill="#37ADCF"/>
<path d="M41.0769 39.2885C41.0769 38.768 41.5476 38.3462 42.1282 38.3462H65.2564C65.837 38.3462 66.3077 38.768 66.3077 39.2885C66.3077 39.8089 65.837 40.2308 65.2564 40.2308H42.1282C41.5476 40.2308 41.0769 39.8089 41.0769 39.2885Z" fill="#37ADCF"/>
<path d="M41.0769 43.0577C41.0769 42.5373 41.5476 42.1154 42.1282 42.1154H54.7436C55.3242 42.1154 55.7949 42.5373 55.7949 43.0577C55.7949 43.5781 55.3242 44 54.7436 44H42.1282C41.5476 44 41.0769 43.5781 41.0769 43.0577Z" fill="#37ADCF"/>
<path d="M41.0769 35.5385C41.0769 35.018 41.5476 34.5962 42.1282 34.5962H65.2564C65.837 34.5962 66.3077 35.018 66.3077 35.5385C66.3077 36.0589 65.837 36.4808 65.2564 36.4808H42.1282C41.5476 36.4808 41.0769 36.0589 41.0769 35.5385Z" fill="#37ADCF"/>
<path d="M41.0769 31.5962C41.0769 31.0757 41.5476 30.6538 42.1282 30.6538H65.2564C65.837 30.6538 66.3077 31.0757 66.3077 31.5962C66.3077 32.1166 65.837 32.5385 65.2564 32.5385H42.1282C41.5476 32.5385 41.0769 32.1166 41.0769 31.5962Z" fill="#37ADCF"/>
<path d="M41.0769 27.6731C41.0769 27.1527 41.5476 26.7308 42.1282 26.7308H65.2564C65.837 26.7308 66.3077 27.1527 66.3077 27.6731C66.3077 28.1935 65.837 28.6154 65.2564 28.6154H42.1282C41.5476 28.6154 41.0769 28.1935 41.0769 27.6731Z" fill="#37ADCF"/>
<path d="M41.0769 11.9615C41.0769 11.4411 41.5476 11.0192 42.1282 11.0192H65.2564C65.837 11.0192 66.3077 11.4411 66.3077 11.9615C66.3077 12.482 65.837 12.9038 65.2564 12.9038H42.1282C41.5476 12.9038 41.0769 12.482 41.0769 11.9615Z" fill="#37ADCF"/>
</svg>
