<svg width="73" height="49" viewBox="0 0 73 49" fill="none" xmlns="http://www.w3.org/2000/svg">
<g clip-path="url(#clip0)">
<path fill-rule="evenodd" clip-rule="evenodd" d="M3.06721 9.93596C2.19172 9.61677 2.19021 8.37911 3.06492 8.05778L24.6582 0.125542C24.879 0.0444509 25.1213 0.0437534 25.3425 0.123572L70.8901 16.5583C71.7712 16.8762 71.7708 18.1225 70.8894 18.4398L48.8409 26.3773C48.6206 26.4566 48.3795 26.4561 48.1596 26.3759L3.06721 9.93596ZM25.3428 2.12358C25.1214 2.04376 24.8789 2.04461 24.658 2.12599L6 9L48.5 24.5L68 17.5L25.3428 2.12358Z" fill="#37ADCF"/>
<path fill-rule="evenodd" clip-rule="evenodd" d="M70.9328 9.93596C71.8083 9.61677 71.8098 8.37911 70.9351 8.05778L49.3418 0.125542C49.121 0.0444509 48.8787 0.0437534 48.6575 0.123572L3.1099 16.5583C2.22876 16.8762 2.22922 18.1225 3.11059 18.4398L25.1591 26.3773C25.3794 26.4566 25.6205 26.4561 25.8404 26.3759L70.9328 9.93596ZM49 2L68 9L25.5 24.5L6 17.5L49 2Z" fill="#37ADCF"/>
<path d="M14.1599 40.7387C13.7638 40.5954 13.5 40.2194 13.5 39.7983V22L15.5 23V39L36 46.5V23C36 22.4477 36.4477 22 37 22C37.5523 22 38 22.4477 38 23V46.5L59 39L58.5 23L60.5 22L60.9804 39.7731C60.9921 40.2065 60.7232 40.598 60.3146 40.7428L37.3374 48.8805C37.1192 48.9578 36.881 48.957 36.6634 48.8783L14.1599 40.7387Z" fill="#37ADCF"/>
</g>
<defs>
<clipPath id="clip0">
<rect width="73" height="49" fill="white"/>
</clipPath>
</defs>
</svg>
