<svg width="73" height="49" viewBox="0 0 73 49" fill="none" xmlns="http://www.w3.org/2000/svg">
<path d="M36.5 35.5362L2.08571 12.9362V15.3405L27.2715 31.8801L29.2 33.1514L36.5 37.9404L43.7926 33.1514L45.3643 32.1192L70.9143 15.3405V12.9362L36.5 35.5362Z" fill="#37ADCF"/>
<path d="M2.08571 46.1149V47.0766H4.17143L29.2 33.1514L27.2715 31.8801L2.08571 46.1149Z" fill="#37ADCF"/>
<path d="M70.9143 47.0766V46.1149L45.3643 32.1192L43.7926 33.1514L68.8286 47.0766H70.9143Z" fill="#37ADCF"/>
<path d="M1.04286 10.532C0.466903 10.532 0 10.9755 0 11.5225V48.0095C0 48.5565 0.466903 49 1.04286 49H71.9571C72.5331 49 73 48.5565 73 48.0095V11.5225C73 10.9755 72.5331 10.532 71.9571 10.532H53.1554C52.5962 10.532 52.1429 10.9626 52.1429 11.4937C52.1429 12.0248 52.5962 12.4554 53.1554 12.4554H70.9143V12.9362V15.3405V46.1149V47.0766H68.8286H4.17143H2.08571V46.1149V15.3405V12.9362V12.4554H19.8446C20.4038 12.4554 20.8571 12.0248 20.8571 11.4937C20.8571 10.9626 20.4038 10.532 19.8446 10.532H1.04286Z" fill="#37ADCF"/>
<path d="M48.2627 12.2693C48.1486 14.5263 47.5641 16.3094 46.509 17.6184C45.4539 18.9185 44.0234 19.5685 42.2174 19.5685C40.4969 19.5685 39.3468 18.8734 38.767 17.483C38.2822 18.1692 37.7167 18.6838 37.0703 19.0268C36.4335 19.3699 35.7633 19.5414 35.06 19.5414C33.6722 19.5414 32.6171 18.9997 31.8947 17.9164C31.1818 16.833 30.9109 15.384 31.082 13.5693C31.2341 12.0977 31.6096 10.7706 32.2084 9.5879C32.8167 8.40521 33.5819 7.49337 34.5039 6.85237C35.4354 6.20234 36.424 5.87733 37.4695 5.87733C38.268 5.87733 38.9714 5.97212 39.5797 6.16171C40.1975 6.35131 40.9199 6.74403 41.7469 7.33989L41.0055 14.9642C40.8249 16.7517 41.3667 17.6455 42.6309 17.6455C43.6004 17.6455 44.3941 17.1535 45.0119 16.1694C45.6393 15.1763 45.9814 13.8943 46.0385 12.3234C46.2001 8.99204 45.5204 6.44159 43.9996 4.67207C42.4883 2.90255 40.2118 2.01779 37.1701 2.01779C35.3071 2.01779 33.6532 2.46017 32.2084 3.34493C30.7731 4.22969 29.6325 5.51169 28.7865 7.19092C27.9406 8.86113 27.4748 10.7661 27.3893 12.9057C27.2752 15.0815 27.5461 16.9594 28.202 18.5393C28.8673 20.1102 29.8796 21.3064 31.2389 22.128C32.6076 22.9496 34.2758 23.3603 36.2434 23.3603C37.0418 23.3603 37.8735 23.2701 38.7385 23.0895C39.613 22.9089 40.3544 22.6652 40.9627 22.3582L41.5045 24.2135C40.9247 24.5746 40.1405 24.8635 39.152 25.0802C38.1729 25.3059 37.1844 25.4188 36.1863 25.4188C33.772 25.4188 31.6999 24.9312 29.9699 23.9562C28.24 22.9902 26.9425 21.5863 26.0775 19.7446C25.184 17.8396 24.7896 15.56 24.8941 12.9057C25.0082 10.432 25.5928 8.21111 26.6479 6.24297C27.7029 4.2658 29.143 2.73102 30.968 1.63861C32.8025 0.546203 34.8889 0 37.2271 0C39.5939 0 41.6281 0.496548 43.3295 1.48965C45.0404 2.47371 46.3189 3.89565 47.1648 5.75545C48.0108 7.60622 48.3768 9.77749 48.2627 12.2693ZM33.8766 13.5693C33.753 14.7971 33.8671 15.7316 34.2188 16.3726C34.5704 17.0045 35.1313 17.3205 35.9012 17.3205C36.4145 17.3205 36.8992 17.1084 37.3555 16.684C37.8117 16.2507 38.1824 15.6593 38.4676 14.91L39.1092 8.23368C38.6339 8.06214 38.1729 7.97637 37.7262 7.97637C36.6711 7.97637 35.8109 8.45035 35.1455 9.39831C34.4801 10.3372 34.0572 11.7276 33.8766 13.5693Z" fill="#37ADCF"/>
</svg>
