<svg width="62" height="70" viewBox="0 0 62 70" fill="none" xmlns="http://www.w3.org/2000/svg">
<path fill-rule="evenodd" clip-rule="evenodd" d="M0.5 40V63L20 70L40 63V40L20.25 33L0.5 40ZM20.25 35L4.5 40.5L20.25 45.5L36 40.5L20.25 35ZM2.5 42V61.5L19 67.5V47.5L2.5 42ZM38 61.5L21 67.5V47.5L38 42V61.5Z" fill="#37ADCF"/>
<path d="M34.917 9.58927V1.04145C34.917 0.620655 34.6628 0.239409 34.2732 0.0810119C33.8837 -0.0835372 33.4357 0.0080635 33.1378 0.30601L12.3047 16.1392C11.8984 16.5455 11.8984 17.2059 12.3047 17.6121L33.1378 33.4452C33.3378 33.6432 33.6045 33.7494 33.8753 33.7494C34.0086 33.7494 34.144 33.7244 34.2732 33.6702C34.6628 33.5098 34.917 33.1285 34.917 32.7077V24.2037C39.4294 24.4287 57.0355 25.9454 59.9584 35.9181C60.1064 36.4139 60.598 36.7348 61.1064 36.6556C61.6189 36.5806 62.0001 36.1431 62.0001 35.6244C62 11.7267 39.7961 9.73712 34.917 9.58927ZM33.8837 22.0829C33.567 22.1246 33.3399 22.1891 33.142 22.3849C32.944 22.5807 32.8337 22.8474 32.8337 23.1245V30.1931L14.5151 16.8745L32.8337 3.55608V10.6247C32.8337 10.908 32.9482 11.1768 33.1524 11.3747C33.3545 11.5705 33.6149 11.6997 33.9107 11.6664L34.2378 11.6622C38.2085 11.6622 56.8438 12.6517 59.5792 30.91C52.4897 22.3662 34.7462 22.0912 33.8837 22.0829Z" fill="#37ADCF"/>
</svg>
