<svg width="115" height="81" viewBox="0 0 115 81" fill="none" xmlns="http://www.w3.org/2000/svg">
<path fill-rule="evenodd" clip-rule="evenodd" d="M114.991 49.6669C114.909 48.2728 113.213 47.1834 109.821 46.3523C109.936 46.1078 110 45.8536 110.001 45.5896V39.8892H109.986C109.688 35.1404 89.7864 35.0003 87.5005 35.0003C85.2147 35.0003 65.313 35.1404 65.0147 39.8892H65.0005V45.592C65.0047 47.1402 67.048 48.3518 70.0881 49.2538C70.0464 49.3891 70.0214 49.5268 70.013 49.6669H70.0005V55.36C66.7255 56.1846 65.0897 57.2586 65.0089 58.6299H65.0005V64.3328C65.0031 65.4108 65.9972 66.325 67.6239 67.0869C67.5622 67.2523 67.5239 67.4209 67.513 67.5937H67.5005V73.2966C67.5072 76.0066 73.748 77.6892 80.6822 78.4747C80.6997 78.4781 80.7167 78.4827 80.7336 78.4873C80.766 78.4961 80.7983 78.5049 80.8339 78.5049C80.8422 78.5049 80.8498 78.5026 80.8574 78.5004C80.8644 78.4983 80.8713 78.4963 80.8789 78.4959C82.2156 78.6434 83.5739 78.7583 84.918 78.8406L84.925 78.8416C84.9295 78.8423 84.9339 78.8433 84.9383 78.8444L84.9533 78.8484C84.9686 78.8526 84.9839 78.8569 85.0005 78.8569C85.0089 78.8569 85.0164 78.8546 85.0238 78.8523C85.0304 78.8503 85.0368 78.8483 85.0439 78.8479C86.7505 78.9489 88.4297 79.0003 90.0005 79.0003C91.5714 79.0003 93.2505 78.9489 94.9572 78.8471C94.9643 78.8475 94.9711 78.8495 94.9778 78.8516C94.9853 78.8538 94.9927 78.856 95.0005 78.856C95.0166 78.856 95.0313 78.8519 95.0461 78.8477C95.0582 78.8443 95.0703 78.8409 95.083 78.8398C96.4272 78.7575 97.7855 78.6434 99.1222 78.4951C99.1247 78.4951 99.1272 78.4953 99.1296 78.4956C99.1323 78.496 99.1348 78.4966 99.1374 78.4972L99.1447 78.4992C99.152 78.5012 99.1593 78.5032 99.1672 78.5032C99.2028 78.5032 99.2351 78.4945 99.2675 78.4856L99.2918 78.4792C99.3008 78.4769 99.3097 78.4748 99.3189 78.4731C106.253 77.6876 112.493 76.0042 112.501 73.2933V67.5929H112.487C112.429 66.5939 111.558 65.7603 109.838 65.0637C109.943 64.8282 110.001 64.5837 110.001 64.3303V59.0047C112.992 58.1052 114.996 56.9017 115.001 55.3674V49.6669H114.991ZM108.244 64.5952L107.96 64.8388C107.522 65.216 106.793 65.5966 105.834 65.9632L104.167 66.5116C103.425 66.721 102.589 66.9239 101.667 67.1154L100.001 67.4299C99.2155 67.5652 98.3814 67.6906 97.5005 67.8031L95.8339 67.9954C95.3189 68.0483 94.7922 68.098 94.2514 68.1412C94.1305 68.1518 94.0097 68.1608 93.8889 68.1697C93.7055 68.1836 93.5205 68.1974 93.3339 68.2105L91.668 68.3066C91.4897 68.3156 91.3105 68.3237 91.1297 68.3311C90.6281 68.3531 90.1214 68.3694 89.6055 68.3816C89.5242 68.3838 89.4425 68.3852 89.3606 68.3867L89.2389 68.3889C88.9918 68.3937 88.7396 68.3956 88.4884 68.3975L88.3347 68.3987L86.6672 68.402C86.6027 68.4013 86.5381 68.4009 86.4737 68.4005C86.3766 68.3999 86.2797 68.3994 86.183 68.3979L86.1078 68.396C86.0606 68.3948 86.0139 68.3935 85.9664 68.393C85.5847 68.3865 85.2047 68.3775 84.8272 68.3661L84.6872 68.3612C84.233 68.3466 83.7822 68.3278 83.3347 68.3066L81.6672 68.208C80.9672 68.1592 80.2755 68.1037 79.5997 68.0394C79.5551 68.0351 79.5108 68.0306 79.4665 68.0261C79.4264 68.022 79.3864 68.018 79.3464 68.0141C79.3164 68.0113 79.2866 68.008 79.2568 68.0047C79.227 68.0015 79.1972 67.9982 79.1672 67.9954L77.5005 67.8031C76.6197 67.6898 75.7856 67.5652 75.0005 67.4299L73.3339 67.1162C72.5689 66.9573 71.8631 66.7903 71.2206 66.6192C71.1757 66.6066 71.1302 66.5943 71.0848 66.5821C71.0274 66.5666 70.9701 66.5512 70.9147 66.5352C70.8872 66.5271 70.8614 66.5197 70.8339 66.5124L69.1672 65.9632L68.6914 65.7823L68.6814 65.7921C67.373 65.2617 66.6689 64.741 66.6672 64.3303V63.2085V60.9562C67.2564 61.3188 67.9845 61.6534 68.8308 61.9594C68.941 61.9992 69.0531 62.0385 69.1672 62.0774L70.8339 62.576C71.6122 62.7814 72.4489 62.9688 73.3339 63.1391L75.0005 63.4292C75.8072 63.5571 76.6414 63.6728 77.5005 63.773L79.1672 63.9498C79.9872 64.0272 80.8222 64.0932 81.6672 64.1478L83.3347 64.2391C84.1697 64.2774 85.0089 64.3026 85.848 64.3173L85.9797 64.3197C86.2089 64.3238 86.438 64.3271 86.6672 64.3295L88.3347 64.3287C88.5639 64.3263 88.793 64.323 89.0222 64.3189L89.1547 64.3165C89.9939 64.301 90.833 64.2757 91.668 64.2383L93.3339 64.147C94.1789 64.0924 95.0139 64.0272 95.8339 63.949L97.5005 63.773C98.3597 63.672 99.1939 63.5571 100.001 63.4292L101.667 63.1383C102.552 62.968 103.389 62.7806 104.167 62.5752L105.834 62.0782C106.825 61.7409 107.668 61.3669 108.334 60.957V64.3287C108.334 64.4126 108.302 64.5023 108.244 64.5952ZM88.4797 73.2827C88.7089 73.2868 88.938 73.29 89.1672 73.2925L90.8339 73.2917C91.063 73.2892 91.2922 73.286 91.5214 73.2819C91.5655 73.2819 91.6097 73.2811 91.6539 73.2803C92.493 73.2648 93.3322 73.2395 94.1672 73.202L95.8339 73.1092C96.6789 73.0554 97.5139 72.9894 98.3339 72.912L100.001 72.736C100.86 72.6349 101.694 72.5201 102.501 72.3921L104.167 72.1012C105.052 71.9309 105.889 71.7435 106.667 71.5382L108.334 71.0412C109.325 70.7038 110.168 70.3298 110.834 69.92V73.2917C110.833 73.7504 109.955 74.3469 108.334 74.9417L106.667 75.4746C105.925 75.684 105.089 75.8869 104.167 76.0783L102.501 76.3929C101.716 76.5281 100.881 76.6528 100.001 76.766L98.3339 76.9583C97.533 77.0406 96.6997 77.1132 95.8339 77.1726L94.1672 77.2704C93.0972 77.3217 91.9855 77.3543 90.8339 77.3649L89.1672 77.3657C88.0155 77.3552 86.9039 77.3226 85.8339 77.2712L84.1672 77.1734C83.3014 77.114 82.468 77.0415 81.6672 76.9592L80.0005 76.7669C79.1197 76.6536 78.2856 76.5289 77.5005 76.3937L75.8339 76.0783C74.9122 75.8869 74.0764 75.684 73.3339 75.4746L71.6672 74.9417C70.0464 74.3477 69.1689 73.752 69.1672 73.2933V69.9192C69.833 70.329 70.6764 70.703 71.6672 71.0403L73.3339 71.5382C74.1122 71.7435 74.9489 71.9317 75.8339 72.1012L77.5005 72.3929C78.3072 72.5209 79.1414 72.6357 80.0005 72.7368L81.6672 72.912C82.4872 72.9894 83.3222 73.0554 84.1672 73.11L85.8339 73.2029C86.6689 73.2412 87.508 73.2664 88.3472 73.2811C88.3914 73.2811 88.4355 73.2819 88.4797 73.2827ZM90.2714 59.4162C89.6447 59.4007 89.0322 59.3771 88.4305 59.3486C88.398 59.3469 88.3655 59.3453 88.3339 59.3445L86.6672 59.2451C86.6335 59.2426 86.5987 59.2406 86.5639 59.2386C86.5291 59.2365 86.4943 59.2345 86.4605 59.232L86.123 59.2076C85.5897 59.1669 85.0689 59.122 84.5605 59.0723C84.503 59.0668 84.4454 59.0609 84.388 59.0551L84.2339 59.0397L84.2108 59.037C84.1963 59.0352 84.1819 59.0335 84.1672 59.0324L82.5005 58.8409C81.9905 58.7749 81.4914 58.7065 81.0122 58.6332C80.993 58.6291 80.9739 58.6258 80.9547 58.6234C80.7032 58.5843 80.4633 58.5428 80.2244 58.5014L80.0005 58.4629L78.3339 58.1459C77.593 57.9905 76.9078 57.8273 76.2807 57.6582C76.1283 57.6171 75.9793 57.5757 75.8339 57.534L74.1672 56.9856C74.0182 56.9294 73.8753 56.873 73.7385 56.8165C72.6724 56.3768 71.9809 55.9347 71.7372 55.536L71.6814 55.4448L71.6789 55.4332L71.6764 55.4222C71.6721 55.4039 71.6678 55.3852 71.6672 55.3674V51.9932C72.333 52.4031 73.1764 52.7771 74.1672 53.1144L75.8339 53.6123C76.6077 53.8164 77.4391 54.0036 78.3184 54.1723C78.3235 54.1733 78.3287 54.1743 78.3339 54.1753L80.0005 54.467C80.4721 54.5418 80.953 54.6121 81.4428 54.6778C81.791 54.7245 82.1436 54.7689 82.5005 54.8109L84.1672 54.986C84.9872 55.0635 85.8222 55.1295 86.6672 55.184L88.3339 55.2761C89.1689 55.3144 90.008 55.3397 90.8472 55.3543L90.9789 55.3568C91.208 55.3609 91.4372 55.3641 91.6664 55.3666H93.3339C93.563 55.3641 93.7922 55.3609 94.0214 55.3568L94.1539 55.3543C94.993 55.3389 95.8322 55.3136 96.6672 55.2761L98.3339 55.184C99.1789 55.1295 100.014 55.0643 100.834 54.986L102.501 54.81C103.361 54.709 104.195 54.5941 105.001 54.4662L106.668 54.1761C107.553 54.0058 108.39 53.8184 109.168 53.6131L110.834 53.1152C111.825 52.7779 112.668 52.4039 113.334 51.994V55.3657C113.333 55.8245 112.455 56.4209 110.834 57.0157V57.0003L109.168 57.5494L109.001 57.5951L108.932 57.6139L108.804 57.6489C108.389 57.7621 107.95 57.868 107.501 57.9715C107.294 58.0188 107.082 58.066 106.866 58.1117C106.832 58.1188 106.798 58.1256 106.764 58.1323L106.71 58.1428L106.668 58.1516L105.001 58.4669L104.989 58.4693L104.955 58.4753L104.923 58.4808C104.557 58.5427 104.188 58.6038 103.809 58.66C103.591 58.6926 103.369 58.7236 103.146 58.7546C102.999 58.7749 102.849 58.7933 102.699 58.8117C102.633 58.8198 102.567 58.8278 102.501 58.836L100.834 59.0283L100.822 59.0296C100.342 59.0789 99.8622 59.1281 99.3689 59.1685L99.3416 59.1709L99.3114 59.1739L99.2805 59.1766C99.0902 59.1921 98.8961 59.2042 98.7018 59.2163C98.5789 59.224 98.456 59.2317 98.3339 59.2402L96.6672 59.3404C95.5722 59.3934 94.4589 59.4227 93.3339 59.4341L91.6664 59.4349L91.3624 59.4322C91.0573 59.4296 90.7527 59.427 90.4555 59.4203C90.4251 59.4195 90.3943 59.4188 90.3635 59.4182C90.3326 59.4176 90.3018 59.417 90.2714 59.4162ZM113.325 49.7199C113.248 50.2732 111.966 51.0089 109.676 51.7007C106.728 52.5913 102.115 53.4069 96.268 53.6595L96.2569 53.66C95.9615 53.6721 95.6668 53.6841 95.3655 53.6937C95.1164 53.7019 94.8664 53.7092 94.6122 53.7157C93.9222 53.7304 93.2222 53.741 92.5005 53.741C91.7789 53.741 91.0789 53.7304 90.3889 53.7149C90.1355 53.7092 89.8855 53.7011 89.6355 53.6929C89.3777 53.6854 89.1251 53.6749 88.8734 53.6645L88.733 53.6587C86.9877 53.5833 85.3522 53.4577 83.838 53.295C82.6817 53.1707 81.5962 53.0247 80.5866 52.8628C78.4897 52.5265 76.7204 52.1216 75.3247 51.6999C73.0539 51.0138 71.7739 50.2837 71.6789 49.7329C71.6801 49.7283 71.681 49.7239 71.6819 49.7195C71.6839 49.7091 71.686 49.6986 71.693 49.6849C71.722 49.6919 71.7528 49.6984 71.7836 49.7049C71.813 49.711 71.8425 49.7172 71.8705 49.724C72.1964 49.7997 72.5305 49.8731 72.8705 49.9432C74.5264 50.2919 76.3614 50.5779 78.3164 50.7963C78.3198 50.7963 78.3228 50.7971 78.3257 50.798C78.3284 50.7988 78.3311 50.7995 78.3339 50.7995L78.338 50.7987C79.6697 50.947 81.0514 51.0635 82.4697 51.1458C82.4751 51.1458 82.4801 51.1472 82.4851 51.1487C82.4901 51.1501 82.4951 51.1515 82.5005 51.1515C82.5035 51.1515 82.506 51.1507 82.5085 51.1499C82.511 51.1491 82.5135 51.1483 82.5164 51.1483C82.8329 51.1665 83.1506 51.1832 83.4697 51.1982C84.1797 51.2318 84.8959 51.2572 85.618 51.2729C86.1891 51.2867 86.7509 51.2947 87.2998 51.2963C87.3669 51.2965 87.4338 51.2966 87.5005 51.2966C87.938 51.2966 88.3864 51.2917 88.8389 51.2835C94.8939 51.1923 100.506 50.4883 104.411 49.3972C104.591 49.3475 104.766 49.2962 104.94 49.2449C104.98 49.2328 105.02 49.2208 105.061 49.2089C105.127 49.1895 105.193 49.1701 105.256 49.1503C105.558 49.0558 105.847 48.9589 106.126 48.8578L106.158 48.846L106.198 48.8309C106.221 48.822 106.245 48.813 106.269 48.804C106.505 48.7169 106.731 48.6264 106.948 48.5343L106.973 48.5236L107.025 48.5019C107.062 48.4862 107.099 48.4705 107.136 48.4545C107.366 48.3526 107.59 48.2483 107.796 48.14C107.857 48.1085 107.913 48.0763 107.969 48.0441L108.016 48.0171L108.058 47.9933C108.158 47.9371 108.258 47.88 108.351 47.8222C108.374 47.8073 108.4 47.7928 108.426 47.7783C108.457 47.761 108.488 47.7438 108.516 47.726C112.246 48.5172 113.23 49.3826 113.325 49.7199ZM87.5005 36.6299C87.9667 36.6299 88.4251 36.6323 88.8756 36.6371C89.6793 36.6456 90.4581 36.6614 91.2121 36.684C95.1094 36.8005 98.3419 37.0963 100.909 37.4788C101.857 37.6201 102.714 37.7732 103.481 37.9336C106.645 38.5955 108.259 39.3799 108.321 39.9592C108.221 40.51 106.941 41.2377 104.676 41.9221C104.051 42.1109 103.351 42.2964 102.581 42.4738C100.986 42.8411 99.0873 43.174 96.9225 43.4312C95.2002 43.6359 93.3093 43.7927 91.268 43.8809L91.2569 43.8814C90.9615 43.8935 90.6668 43.9055 90.3655 43.9152C90.1164 43.9233 89.8664 43.9306 89.6122 43.9372C88.9222 43.9526 88.2222 43.9632 87.5005 43.9632C86.7789 43.9632 86.0789 43.9526 85.3889 43.9372C85.1355 43.9315 84.8855 43.9233 84.6355 43.9152C84.3776 43.9076 84.1251 43.8971 83.8733 43.8867L83.733 43.8809C83.2382 43.8596 82.7521 43.8341 82.2751 43.805C81.0498 43.7301 79.8846 43.6305 78.7838 43.5113C75.2507 43.1287 72.3818 42.5437 70.3247 41.9221C68.0589 41.2377 66.7805 40.51 66.6797 39.9592C66.8097 38.7452 73.7597 36.6299 87.5005 36.6299ZM70.7039 56.8658C70.7101 56.8723 70.718 56.8784 70.726 56.8846C70.7339 56.8907 70.7418 56.8968 70.748 56.9033C71.0749 57.2259 71.5019 57.5287 72.0141 57.8121C72.6583 58.1685 73.4371 58.4942 74.3205 58.7899C75.1866 59.0799 76.1533 59.3411 77.1922 59.5743C77.2278 59.5824 77.2646 59.5904 77.3015 59.5983C77.3344 59.6055 77.3674 59.6126 77.3997 59.6199C77.6155 59.6672 77.8347 59.7136 78.0564 59.7584C80.7572 60.3206 83.9814 60.7272 87.4939 60.9285L87.4974 60.9288L87.4997 60.9293L87.503 60.9285C88.6314 60.9929 89.7855 61.0377 90.9639 61.0572C91.4855 61.0678 91.9989 61.0743 92.5005 61.0743C93.0755 61.0743 93.6656 61.0678 94.2655 61.054C95.3555 61.032 96.4297 60.988 97.4889 60.9277C97.493 60.9277 97.4964 60.9301 97.5005 60.9301C97.5043 60.9301 97.5076 60.9291 97.511 60.9281C97.5143 60.9271 97.5176 60.926 97.5214 60.926C101.043 60.7232 104.347 60.3125 107.141 59.7217C106.536 60.0314 105.708 60.3516 104.676 60.6637C101.564 61.604 96.593 62.4603 90.2755 62.6592L90.0888 62.665C89.9643 62.669 89.8398 62.673 89.7131 62.6763C89.5753 62.6796 89.436 62.6821 89.2962 62.6847L89.0939 62.6885C88.5697 62.6966 88.0422 62.704 87.5005 62.704C86.7789 62.704 86.0789 62.6934 85.3889 62.6779C85.1355 62.6722 84.8855 62.664 84.6355 62.6559C84.3777 62.6483 84.1252 62.6379 83.8735 62.6275L83.733 62.6217C78.2067 62.3829 73.7816 61.6411 70.8242 60.8085C70.6527 60.7602 70.4862 60.7117 70.3247 60.6629C69.5362 60.4246 68.8672 60.181 68.3257 59.9416C67.2935 59.4851 66.725 59.0433 66.6764 58.6804C66.7689 58.374 67.6114 57.6073 70.7039 56.8658ZM110.823 67.6556C110.732 68.2072 109.452 68.9389 107.176 69.6266C104.228 70.5172 99.6147 71.3329 93.768 71.5854L93.7576 71.5859C93.462 71.598 93.167 71.61 92.8655 71.6197C92.6164 71.6278 92.3664 71.6352 92.1122 71.6417C91.4222 71.6563 90.7222 71.6669 90.0005 71.6669C89.2789 71.6669 88.578 71.6563 87.8872 71.6409C87.6364 71.6351 87.3889 71.627 87.1414 71.6189C86.8376 71.6092 86.5412 71.5972 86.2441 71.5851L86.233 71.5846C80.3864 71.332 75.773 70.5164 72.8247 69.6258C70.6205 68.9601 69.3472 68.2529 69.1872 67.7069C69.4356 67.7917 69.693 67.874 69.9572 67.9546C69.9839 67.9628 70.0106 67.9709 70.0372 67.9783C70.2622 68.0459 70.4922 68.1111 70.7281 68.1746C70.8172 68.1991 70.9072 68.2235 70.998 68.2472C71.0982 68.2735 71.2001 68.2989 71.3026 68.3244L71.4047 68.3498C74.4397 69.11 78.3139 69.6486 82.4964 69.8906L82.5005 69.8914L82.503 69.8906C83.7947 69.9656 85.1139 70.012 86.4472 70.0275C86.8022 70.034 87.1547 70.0373 87.5005 70.0373C87.9597 70.0373 88.4297 70.0316 88.9055 70.0235C90.1214 70.0039 91.3214 69.9599 92.4947 69.8914C92.4972 69.8914 92.4989 69.8931 92.5014 69.8931L92.5122 69.8906C93.9414 69.8067 95.3247 69.6869 96.6539 69.5378C96.6563 69.5378 96.6608 69.539 96.6608 69.539C96.6632 69.5396 96.6655 69.5403 96.668 69.5403C96.678 69.5403 96.687 69.5376 96.6961 69.5349C96.7037 69.5327 96.7114 69.5304 96.7197 69.5297C98.1997 69.3626 99.6031 69.1573 100.906 68.9186C101.174 68.8705 101.438 68.8208 101.7 68.7695C101.758 68.758 101.816 68.7466 101.875 68.7344C104.336 68.2406 106.466 67.601 107.927 66.8082C107.989 66.7753 108.048 66.7414 108.107 66.7077L108.158 66.6786C108.251 66.6249 108.339 66.5703 108.425 66.5149C108.456 66.4949 108.49 66.4751 108.524 66.4554C108.575 66.4253 108.626 66.3951 108.671 66.3641C110.316 66.9378 110.769 67.4511 110.823 67.6556ZM70.8339 43.8353C71.6122 44.0406 72.4489 44.228 73.3339 44.3983L75.0005 44.6892C75.4555 44.7609 75.9192 44.829 76.3912 44.8927C76.7561 44.9419 77.1259 44.9886 77.5005 45.0323L79.1672 45.2083C79.3615 45.2266 79.5567 45.2443 79.7526 45.2614C80.3835 45.3163 81.0224 45.3646 81.6672 45.4063L83.3339 45.4992C84.1689 45.5374 85.008 45.5627 85.8472 45.5774C85.8914 45.5774 85.9355 45.5782 85.9797 45.579C86.2089 45.5831 86.438 45.5863 86.6672 45.5888H88.3339C88.563 45.5863 88.7922 45.5831 89.0214 45.579L89.1539 45.5766C89.993 45.5611 90.8322 45.5358 91.6672 45.4983L93.3339 45.4063C93.397 45.4022 93.4601 45.398 93.5232 45.3938C94.3036 45.3417 95.0752 45.2799 95.8339 45.2083L97.5005 45.0323C97.7786 44.9996 98.0541 44.9654 98.3268 44.9298C98.8968 44.8555 99.455 44.7749 100.001 44.6884L101.667 44.3983C102.552 44.228 103.389 44.0406 104.167 43.8353L105.834 43.3366C106.825 42.9993 107.668 42.6253 108.334 42.2155V45.5872C108.334 45.711 108.267 45.8446 108.143 45.9856L108.12 45.9807L107.816 46.2113C107.376 46.5462 106.701 46.8852 105.834 47.2127L104.167 47.7627C103.421 47.9754 102.58 48.1783 101.667 48.3689L100.001 48.6826C99.2105 48.8195 98.3789 48.945 97.5005 49.0574L95.8339 49.2497C95.0289 49.3329 94.1955 49.4054 93.3339 49.4657L91.6672 49.5634C91.5969 49.5667 91.5279 49.5707 91.4589 49.5748C91.389 49.5789 91.3189 49.583 91.2472 49.5863L91.2368 49.5868L91.2293 49.5871C91.2234 49.5873 91.2175 49.5875 91.2114 49.5879C90.876 49.6026 90.5367 49.6149 90.1942 49.6252C89.9657 49.6321 89.7358 49.6381 89.5047 49.6433C89.4597 49.6445 89.4147 49.6453 89.3697 49.6462L89.3684 49.6462C89.3238 49.647 89.2793 49.6478 89.2347 49.649C89.0368 49.6528 88.8359 49.6544 88.6347 49.6561C88.5344 49.6569 88.434 49.6577 88.3339 49.6588L86.6672 49.6572C86.4945 49.6555 86.322 49.6535 86.1496 49.651C85.2026 49.6372 84.2617 49.6098 83.3339 49.5643L81.6672 49.4624C80.8189 49.4029 79.9822 49.3353 79.1672 49.2514L77.5005 49.0583C77.4258 49.0487 77.3497 49.0399 77.2737 49.0312C77.1818 49.0206 77.0899 49.01 77.0005 48.998C76.9427 48.99 76.8863 48.9818 76.83 48.9736C76.7826 48.9667 76.7352 48.9599 76.6872 48.9532C76.2055 48.8855 75.7347 48.813 75.273 48.7372C75.2214 48.7286 75.1708 48.7197 75.1203 48.7108C75.0804 48.7038 75.0407 48.6968 75.0005 48.69L74.1064 48.5212L73.3339 48.3755L73.2212 48.3524C73.1811 48.3441 73.1409 48.3359 73.1012 48.3277C73.0757 48.3224 73.0505 48.3172 73.0256 48.3119C72.5822 48.2166 72.1497 48.1172 71.7364 48.012C71.5598 47.9677 71.3882 47.9229 71.2207 47.8779C71.0894 47.8426 70.9606 47.8071 70.8339 47.7717L69.1672 47.238C67.5464 46.644 66.6689 46.0483 66.6672 45.5896V42.2155C67.333 42.6253 68.1764 42.9993 69.1672 43.3366L70.8339 43.8353Z" fill="#37ADCF"/>
<path d="M51.8222 45.5445L45.1308 49.4078L48.6896 55.5718L46.4712 56.8526L42.9124 50.6885L39.203 52.8301L38.1008 50.9209L41.8101 48.7793L40.2459 46.07L36.5365 48.2116L35.4447 46.3206L39.1541 44.179L31.1861 30.3779L40.2049 25.1709C42.993 23.5612 45.5784 23.0141 47.961 23.5295C50.3487 24.0259 52.2424 25.4863 53.6421 27.9107C55.0699 30.3836 55.4155 32.7458 54.679 34.9975C53.9354 37.237 52.1489 39.1817 49.3193 40.8315L42.4642 44.7892L44.0285 47.4985L50.7199 43.6352L51.8222 45.5445ZM41.3725 42.8982L48.173 38.9719C50.2822 37.7542 51.6247 36.3002 52.2006 34.6101C52.7694 32.9078 52.5114 31.1172 51.4266 29.2383C50.3768 27.42 48.9742 26.3064 47.2189 25.8975C45.4756 25.4817 43.596 25.8234 41.58 26.9227L34.5067 31.0064L41.3725 42.8982Z" fill="#37ADCF"/>
<path fill-rule="evenodd" clip-rule="evenodd" d="M35.9396 80.9492L66.6672 63.2085V60.9562C67.2564 61.3188 67.9845 61.6534 68.8308 61.9594L70.8242 60.8085C70.6527 60.7602 70.4862 60.7117 70.3247 60.6629C69.5362 60.4246 68.8672 60.181 68.3257 59.9416L36.6716 78.2171L33.1716 72.1549L31.4396 73.1549L35.9396 80.9492ZM72.0141 57.8121C72.6583 58.1685 73.4371 58.4942 74.3205 58.7899L76.2807 57.6582C76.1283 57.6171 75.9793 57.5757 75.8339 57.534L74.1672 56.9856C74.0182 56.9294 73.8753 56.873 73.7385 56.8165L72.0141 57.8121ZM78.3184 54.1723L78.3339 54.1753L80.0005 54.467C80.4721 54.5418 80.953 54.6121 81.4428 54.6778L83.838 53.295C82.6817 53.1707 81.5962 53.0247 80.5866 52.8628L78.3184 54.1723ZM90.1942 49.6252L87.2998 51.2963C86.7509 51.2947 86.1891 51.2867 85.618 51.2729C84.8959 51.2572 84.1797 51.2318 83.4697 51.1982L86.1496 49.651C86.322 49.6535 86.4945 49.6555 86.6672 49.6572L88.3339 49.6588C88.434 49.6577 88.5344 49.6569 88.6347 49.6561C88.8359 49.6544 89.0368 49.6528 89.2347 49.649C89.2793 49.6478 89.3238 49.647 89.3684 49.6462L89.3697 49.6462C89.4147 49.6453 89.4597 49.6445 89.5047 49.6433C89.7358 49.6381 89.9657 49.6321 90.1942 49.6252ZM103.481 37.9336L83.2216 2.84403L74.5613 7.84403L75.5613 9.57609L82.4895 5.57608L100.909 37.4788C101.857 37.6201 102.714 37.7732 103.481 37.9336ZM96.9225 43.4312L93.5232 45.3938C94.3036 45.3417 95.0752 45.2799 95.8339 45.2083L97.5005 45.0323C97.7786 44.9996 98.0541 44.9654 98.3268 44.9298L102.581 42.4738C100.986 42.8411 99.0873 43.174 96.9225 43.4312Z" fill="#37ADCF"/>
<path fill-rule="evenodd" clip-rule="evenodd" d="M0.779297 40.0498L22.7793 78.1549L31.4396 73.1549L33.1716 72.1549L74.1064 48.5212L73.3339 48.3755L73.2212 48.3524C73.1811 48.3441 73.1409 48.3359 73.1012 48.3277C73.0757 48.3224 73.0505 48.3172 73.0256 48.3119C72.5822 48.2166 72.1497 48.1172 71.7364 48.012C71.5598 47.9677 71.3882 47.9229 71.2207 47.8779L23.5113 75.4229L3.51135 40.7819L69.3293 2.78186L88.8756 36.6371C89.6793 36.6456 90.4581 36.6614 91.2121 36.684L75.5613 9.57609L74.5613 7.84403L70.0613 0.0498047L0.779297 40.0498ZM76.3912 44.8927C76.7561 44.9419 77.1259 44.9886 77.5005 45.0323L79.1672 45.2083C79.3615 45.2266 79.5567 45.2443 79.7526 45.2614L82.2751 43.805C81.0498 43.7301 79.8846 43.6305 78.7838 43.5113L76.3912 44.8927Z" fill="#37ADCF"/>
</svg>
