<svg width="94" height="77" viewBox="0 0 94 77" fill="none" xmlns="http://www.w3.org/2000/svg">
<path fill-rule="evenodd" clip-rule="evenodd" d="M10 19C4.47715 19 0 23.4772 0 29V67C0 72.5229 4.47715 77 10 77H75C80.5229 77 85 72.5229 85 67V29C85 23.4771 80.5229 19 75 19H10ZM11 75C6.02944 75 2 70.9706 2 66V30C2 25.7168 4.99202 22.1325 9 21.223C9.64322 21.0771 10.3126 21 11 21H74C78.9706 21 83 25.0294 83 30V58V66C83 70.9706 78.9706 75 74 75H11Z" fill="#37ADCF"/>
<path d="M11.5 55V57H14.6359H73.5V56V55H15.8728H11.8586H11.5Z" fill="#37ADCF"/>
<path fill-rule="evenodd" clip-rule="evenodd" d="M30 37C30 34.7909 28.2091 33 26 33H16C13.7909 33 12 34.7909 12 37V45C12 47.2091 13.7909 49 16 49H26C28.2091 49 30 47.2091 30 45V37ZM14 44C14 45.6569 15.3431 47 17 47H25C26.6569 47 28 45.6569 28 44V38C28 36.3431 26.6569 35 25 35H17C15.3431 35 14 36.3431 14 38V44Z" fill="#37ADCF"/>
<path d="M9 10V12H92V10H9Z" fill="#37ADCF"/>
<path d="M11 16V18H92V16H11Z" fill="#37ADCF"/>
<path fill-rule="evenodd" clip-rule="evenodd" d="M19 0C13.4772 0 9 4.47715 9 10V21.223C9.64322 21.0771 10.3126 21 11 21L11 18V16V11C11 6.02944 15.0294 2 20 2H83C87.9706 2 92 6.02944 92 11V47C92 51.9706 87.9706 56 83 56V58H84C89.5229 58 94 53.5228 94 48V10C94 4.47715 89.5229 0 84 0H19ZM15.8728 55H11.8586C12.6584 55.8159 13.5968 56.4952 14.6359 57H73.5V56H20C18.5124 56 17.109 55.6391 15.8728 55Z" fill="#37ADCF"/>
</svg>
