<svg width="80" height="80" viewBox="0 0 80 80" fill="none" xmlns="http://www.w3.org/2000/svg">
<path fill-rule="evenodd" clip-rule="evenodd" d="M61 10C61 4.47715 56.5228 0 51 0H29C23.4772 0 19 4.47715 19 10V45H61V10ZM59 10C59 5.58172 55.4183 2 51 2H29C24.5817 2 21 5.58172 21 10V21V23V43H59V23V21V10Z" fill="#37ADCF"/>
<path d="M11 44C11 43.4477 11.4477 43 12 43H68C68.5523 43 69 43.4477 69 44C69 44.5523 68.5523 45 68 45H12C11.4477 45 11 44.5523 11 44Z" fill="#37ADCF"/>
<path d="M21 79C21 78.4477 21.4477 78 22 78H58C58.5523 78 59 78.4477 59 79C59 79.5523 58.5523 80 58 80H22C21.4477 80 21 79.5523 21 79Z" fill="#37ADCF"/>
<path d="M39 67H41V68V78H39V68V67Z" fill="#37ADCF"/>
<path d="M79 68C79.5523 68 80 67.5523 80 67V22C80 21.4477 79.5523 21 79 21H68C67.4477 21 67 21.4477 67 22C67 22.5523 67.4477 23 68 23H78V66H2V23H12C12.5523 23 13 22.5523 13 22C13 21.4477 12.5523 21 12 21H1C0.447715 21 0 21.4477 0 22V67C0 67.5523 0.447715 68 1 68H39V67H41V68H79Z" fill="#37ADCF"/>
</svg>
