<svg width="93" height="85" viewBox="0 0 93 85" fill="none" xmlns="http://www.w3.org/2000/svg">
<path fill-rule="evenodd" clip-rule="evenodd" d="M77 40.0001H81C87.6274 40.0001 93 45.3727 93 52.0001V85.0001H0V52.0001C0 45.3727 5.37258 40.0001 12 40.0001H15.5V42.0001H12C6.47715 42.0001 2 46.4773 2 52.0001V83.0001H91V52.0001C91 46.4773 86.5229 42.0001 81 42.0001H77V40.0001Z" fill="#37ADCF"/>
<path fill-rule="evenodd" clip-rule="evenodd" d="M52 68.0001C52 66.8956 51.1046 66.0001 50 66.0001H11C9.89543 66.0001 9 66.8956 9 68.0001V76.0001C9 77.1047 9.89543 78.0001 11 78.0001H50C51.1046 78.0001 52 77.1047 52 76.0001V68.0001ZM50 68.0001H11V76.0001H50V68.0001Z" fill="#37ADCF"/>
<path fill-rule="evenodd" clip-rule="evenodd" d="M85 68.0001C85 66.8956 84.1046 66.0001 83 66.0001H75C73.8954 66.0001 73 66.8956 73 68.0001V76.0001C73 77.1047 73.8954 78.0001 75 78.0001H83C84.1046 78.0001 85 77.1047 85 76.0001V68.0001ZM83 68.0001H75V76.0001H83V68.0001Z" fill="#37ADCF"/>
<path fill-rule="evenodd" clip-rule="evenodd" d="M69 68.0001C69 66.8956 68.1046 66.0001 67 66.0001H59C57.8954 66.0001 57 66.8956 57 68.0001V76.0001C57 77.1047 57.8954 78.0001 59 78.0001H67C68.1046 78.0001 69 77.1047 69 76.0001V68.0001ZM67 68.0001H59V76.0001H67V68.0001Z" fill="#37ADCF"/>
<path fill-rule="evenodd" clip-rule="evenodd" d="M16.536 0.975313C15.8702 0.552602 15 1.0309 15 1.81953V3.78661C15 3.00493 15.8566 2.52548 16.5229 2.93419L17 3.22687L21.8293 6.18912C22.4709 6.58269 23.2791 6.58269 23.9207 6.18913L29.7043 2.64152C30.3459 2.24796 31.1541 2.24796 31.7957 2.64152L37.5793 6.18912C38.2209 6.58269 39.0291 6.58269 39.6707 6.18913L45.4543 2.64152C46.0959 2.24796 46.9041 2.24796 47.5457 2.64152L53.3293 6.18912C53.9709 6.58269 54.7791 6.58269 55.4207 6.18913L61.2043 2.64152C61.8459 2.24796 62.6541 2.24796 63.2957 2.64152L69.0793 6.18912C69.7209 6.58269 70.5291 6.58269 71.1707 6.18913L76 3.22687L76.4771 2.93419C77.1434 2.52548 78 3.00493 78 3.78661V1.81953C78 1.0309 77.1298 0.552602 76.464 0.975313L71.197 4.31942C70.5427 4.73486 69.7073 4.73486 69.053 4.31942L63.322 0.680715C62.6677 0.265283 61.8323 0.265282 61.178 0.680715L55.447 4.31942C54.7927 4.73486 53.9573 4.73486 53.303 4.31942L47.572 0.680715C46.9177 0.265283 46.0823 0.265282 45.428 0.680715L39.697 4.31942C39.0427 4.73486 38.2073 4.73486 37.553 4.31942L31.822 0.680715C31.1677 0.265283 30.3323 0.265282 29.678 0.680715L23.947 4.31942C23.2927 4.73486 22.4573 4.73486 21.803 4.31942L16.536 0.975313Z" fill="#37ADCF"/>
<path d="M15 3.78661V59.0001H17V51.0001V49.0001V3.22687L16.5229 2.93419C15.8566 2.52548 15 3.00493 15 3.78661Z" fill="#37ADCF"/>
<path d="M78 59.0001V3.78661C78 3.00493 77.1434 2.52548 76.4771 2.93419L76 3.22687V49.0001V51.0001V59.0001H78Z" fill="#37ADCF"/>
<path d="M24 47.0001C24 46.4478 24.4477 46.0001 25 46.0001C25.5523 46.0001 26 46.4478 26 47.0001V49.0001V51.0001V53.0001C26 53.5524 25.5523 54.0001 25 54.0001C24.4477 54.0001 24 53.5524 24 53.0001V51.0001V49.0001V47.0001Z" fill="#37ADCF"/>
<path d="M31 47.0001C31 46.4478 31.4477 46.0001 32 46.0001C32.5523 46.0001 33 46.4478 33 47.0001V49.0001V51.0001V53.0001C33 53.5524 32.5523 54.0001 32 54.0001C31.4477 54.0001 31 53.5524 31 53.0001V51.0001V49.0001V47.0001Z" fill="#37ADCF"/>
<path d="M38 47.0001C38 46.4478 38.4477 46.0001 39 46.0001C39.5523 46.0001 40 46.4478 40 47.0001V49.0001V51.0001V53.0001C40 53.5524 39.5523 54.0001 39 54.0001C38.4477 54.0001 38 53.5524 38 53.0001V51.0001V49.0001V47.0001Z" fill="#37ADCF"/>
<path d="M46 47.0001C46 46.4478 46.4477 46.0001 47 46.0001C47.5523 46.0001 48 46.4478 48 47.0001V49.0001V51.0001V53.0001C48 53.5524 47.5523 54.0001 47 54.0001C46.4477 54.0001 46 53.5524 46 53.0001V51.0001V49.0001V47.0001Z" fill="#37ADCF"/>
<path d="M53 47.0001C53 46.4478 53.4477 46.0001 54 46.0001C54.5523 46.0001 55 46.4478 55 47.0001V49.0001V51.0001V53.0001C55 53.5524 54.5523 54.0001 54 54.0001C53.4477 54.0001 53 53.5524 53 53.0001V51.0001V49.0001V47.0001Z" fill="#37ADCF"/>
<path d="M60 47.0001C60 46.4478 60.4477 46.0001 61 46.0001C61.5523 46.0001 62 46.4478 62 47.0001V49.0001V51.0001V53.0001C62 53.5524 61.5523 54.0001 61 54.0001C60.4477 54.0001 60 53.5524 60 53.0001V51.0001V49.0001V47.0001Z" fill="#37ADCF"/>
<path d="M67 47.0001C67 46.4478 67.4477 46.0001 68 46.0001C68.5523 46.0001 69 46.4478 69 47.0001V49.0001V51.0001V53.0001C69 53.5524 68.5523 54.0001 68 54.0001C67.4477 54.0001 67 53.5524 67 53.0001V51.0001V49.0001V47.0001Z" fill="#37ADCF"/>
<path d="M26 18.0001C26 17.4478 26.4477 17.0001 27 17.0001H52C52.5523 17.0001 53 17.4478 53 18.0001C53 18.5524 52.5523 19.0001 52 19.0001H27C26.4477 19.0001 26 18.5524 26 18.0001Z" fill="#37ADCF"/>
<path d="M26 24.0001C26 23.4478 26.4477 23.0001 27 23.0001H45C45.5523 23.0001 46 23.4478 46 24.0001C46 24.5524 45.5523 25.0001 45 25.0001H27C26.4477 25.0001 26 24.5524 26 24.0001Z" fill="#37ADCF"/>
<path d="M26 33.0001C26 32.4478 26.4477 32.0001 27 32.0001H42C42.5523 32.0001 43 32.4478 43 33.0001C43 33.5524 42.5523 34.0001 42 34.0001H27C26.4477 34.0001 26 33.5524 26 33.0001Z" fill="#37ADCF"/>
<path d="M26 39.0001C26 38.4478 26.4477 38.0001 27 38.0001H47C47.5523 38.0001 48 38.4478 48 39.0001C48 39.5524 47.5523 40.0001 47 40.0001H27C26.4477 40.0001 26 39.5524 26 39.0001Z" fill="#37ADCF"/>
<path d="M57 18.0001C57 17.4478 57.4477 17.0001 58 17.0001H66C66.5523 17.0001 67 17.4478 67 18.0001C67 18.5524 66.5523 19.0001 66 19.0001H58C57.4477 19.0001 57 18.5524 57 18.0001Z" fill="#37ADCF"/>
<path d="M60 24.0001C60 23.4478 60.4477 23.0001 61 23.0001H66C66.5523 23.0001 67 23.4478 67 24.0001C67 24.5524 66.5523 25.0001 66 25.0001H61C60.4477 25.0001 60 24.5524 60 24.0001Z" fill="#37ADCF"/>
<path d="M58 33.0001C58 32.4478 58.4477 32.0001 59 32.0001H66C66.5523 32.0001 67 32.4478 67 33.0001C67 33.5524 66.5523 34.0001 66 34.0001H59C58.4477 34.0001 58 33.5524 58 33.0001Z" fill="#37ADCF"/>
<path d="M58 39.0001C58 38.4478 58.4477 38.0001 59 38.0001H66C66.5523 38.0001 67 38.4478 67 39.0001C67 39.5524 66.5523 40.0001 66 40.0001H59C58.4477 40.0001 58 39.5524 58 39.0001Z" fill="#37ADCF"/>
<path fill-rule="evenodd" clip-rule="evenodd" d="M83 54.5001C83 51.4626 80.5376 49.0001 77.5 49.0001H76V51.0001H77.5C79.433 51.0001 81 52.5671 81 54.5001C81 56.4331 79.433 58.0001 77.5 58.0001H15.5C13.567 58.0001 12 56.4331 12 54.5001C12 52.5671 13.567 51.0001 15.5 51.0001H17V49.0001H15.5C12.4624 49.0001 10 51.4626 10 54.5001C10 57.5377 12.4624 60.0001 15.5 60.0001H77.5C80.5376 60.0001 83 57.5377 83 54.5001ZM67 49.0001H69V51.0001H67V49.0001ZM62 49.0001H60V51.0001H62V49.0001ZM55 51.0001V49.0001H53V51.0001H55ZM46 49.0001H48V51.0001H46V49.0001ZM40 51.0001V49.0001H38V51.0001H40ZM31 49.0001H33V51.0001H31V49.0001ZM26 51.0001V49.0001H24V51.0001H26Z" fill="#37ADCF"/>
</svg>
