<svg width="73" height="74" viewBox="0 0 73 74" fill="none" xmlns="http://www.w3.org/2000/svg">
<path fill-rule="evenodd" clip-rule="evenodd" d="M73 4C73 1.79086 71.2091 0 69 0H4C1.79086 0 0 1.79086 0 4V70C0 72.2091 1.79086 74 4 74H69C71.2091 74 73 72.2091 73 70V4ZM71 4C71 2.89543 70.1046 2 69 2H4C2.89543 2 2 2.89543 2 4V70C2 71.1046 2.89543 72 4 72H69C70.1046 72 71 71.1046 71 70V4Z" fill="#37ADCF"/>
<path d="M1 20H72V22H1V20Z" fill="#37ADCF"/>
<path d="M1 52H72V54H1V52Z" fill="#37ADCF"/>
<path d="M9 41C9 40.4477 9.44772 40 10 40H47C47.5523 40 48 40.4477 48 41C48 41.5523 47.5523 42 47 42H10C9.44772 42 9 41.5523 9 41Z" fill="#37ADCF"/>
<path d="M53 31C53 30.4477 53.4477 30 54 30H63C63.5523 30 64 30.4477 64 31C64 31.5523 63.5523 32 63 32H54C53.4477 32 53 31.5523 53 31Z" fill="#37ADCF"/>
<path d="M53 41C53 40.4477 53.4477 40 54 40H63C63.5523 40 64 40.4477 64 41C64 41.5523 63.5523 42 63 42H54C53.4477 42 53 41.5523 53 41Z" fill="#37ADCF"/>
<path d="M49 60C49 59.4477 49.4477 59 50 59H63C63.5523 59 64 59.4477 64 60C64 60.5523 63.5523 61 63 61H50C49.4477 61 49 60.5523 49 60Z" fill="#37ADCF"/>
<path d="M9 31C9 30.4477 9.44772 30 10 30H47C47.5523 30 48 30.4477 48 31C48 31.5523 47.5523 32 47 32H10C9.44772 32 9 31.5523 9 31Z" fill="#37ADCF"/>
</svg>
