<svg width="42" height="37" viewBox="0 0 42 37" fill="none" xmlns="http://www.w3.org/2000/svg">
<path fill-rule="evenodd" clip-rule="evenodd" d="M41.9923 12.3333C41.923 11.161 40.4985 10.2449 37.6495 9.546C37.7454 9.34044 37.7993 9.12667 37.8 8.90467V4.11111H37.7881C37.5375 0.117852 20.8201 0 18.9 0C16.9799 0 0.2625 0.117852 0.0119 4.11111H0V4.20019V8.90672C0.0035 10.2086 1.7199 11.2274 4.2735 11.9859C4.2385 12.0997 4.2175 12.2155 4.2105 12.3333H4.2V12.4224V17.1207C1.449 17.8141 0.0749 18.7172 0.007 19.8704H0V19.9594V24.666C0.0021 25.5725 0.8372 26.3413 2.2036 26.9819C2.1518 27.121 2.1196 27.2628 2.1105 27.4081H2.1V27.4972V32.2037C2.1056 34.4826 7.3479 35.8975 13.1726 36.5581C13.1873 36.5609 13.2015 36.5648 13.2158 36.5686C13.243 36.576 13.2701 36.5834 13.3 36.5834C13.307 36.5834 13.3134 36.5815 13.3198 36.5796C13.3256 36.5779 13.3315 36.5762 13.3378 36.5759C14.4606 36.6999 15.6016 36.7965 16.7307 36.8657L16.7366 36.8665C16.7403 36.8672 16.744 36.868 16.7477 36.8689L16.7603 36.8723C16.7732 36.8758 16.786 36.8794 16.8 36.8794C16.8071 36.8794 16.8133 36.8775 16.8196 36.8756C16.825 36.8739 16.8305 36.8722 16.8364 36.8719C18.27 36.9568 19.6805 37 21 37C22.3195 37 23.73 36.9568 25.1636 36.8712C25.1696 36.8715 25.1753 36.8732 25.1809 36.8749C25.1872 36.8768 25.1934 36.8787 25.2 36.8787C25.2134 36.8787 25.2258 36.8752 25.2382 36.8717C25.2484 36.8688 25.2586 36.8659 25.2693 36.865C26.3984 36.7958 27.5394 36.6999 28.6622 36.5752C28.6643 36.5752 28.6664 36.5754 28.6684 36.5757C28.6706 36.576 28.6728 36.5764 28.6749 36.577L28.6811 36.5786C28.6872 36.5803 28.6933 36.582 28.7 36.582C28.7299 36.582 28.757 36.5747 28.7842 36.5673L28.8047 36.5618C28.8122 36.5599 28.8197 36.5582 28.8274 36.5567C34.6521 35.8962 39.8937 34.4806 39.9 32.201V27.4074H39.8888C39.8398 26.5674 39.1083 25.8664 37.6635 25.2806C37.7517 25.0826 37.8 24.877 37.8 24.6639V20.1856C40.313 19.4291 41.9965 18.4171 42 17.1269V12.3333H41.9923ZM36.3244 24.8866L36.0857 25.0915C35.7182 25.4087 35.1057 25.7287 34.3 26.037L32.9 26.4982C32.2763 26.6743 31.5742 26.8449 30.8 27.0059L29.4 27.2704C28.7406 27.3841 28.0399 27.4896 27.3 27.5842L25.9 27.7459C25.4674 27.7904 25.025 27.8322 24.5707 27.8685C24.4692 27.8774 24.3677 27.885 24.2662 27.8925C24.1122 27.9042 23.9568 27.9158 23.8 27.9268L22.4007 28.0076C22.2509 28.0152 22.1004 28.022 21.9485 28.0282C21.5271 28.0467 21.1015 28.0604 20.6682 28.0707C20.5999 28.0725 20.5312 28.0737 20.4625 28.0749L20.3602 28.0768C20.1527 28.0808 19.9408 28.0824 19.7298 28.084L19.6007 28.0851L18.2 28.0878C18.1458 28.0872 18.0916 28.0869 18.0374 28.0866C17.9559 28.0861 17.8745 28.0856 17.7933 28.0844L17.7301 28.0828C17.6905 28.0817 17.6512 28.0807 17.6113 28.0803C17.2907 28.0748 16.9715 28.0672 16.6544 28.0576L16.5368 28.0535C16.1553 28.0412 15.7766 28.0254 15.4007 28.0076L14 27.9247C13.412 27.8836 12.831 27.837 12.2633 27.7829C12.2258 27.7793 12.1886 27.7755 12.1514 27.7717C12.1177 27.7683 12.0841 27.7649 12.0505 27.7616C12.0253 27.7593 12.0003 27.7565 11.9753 27.7538C11.9502 27.751 11.9252 27.7483 11.9 27.7459L10.5 27.5842C9.7601 27.4889 9.0594 27.3841 8.4 27.2704L7 27.0066C6.3574 26.873 5.7645 26.7325 5.2248 26.5886C5.18712 26.578 5.1489 26.5677 5.1108 26.5574C5.06253 26.5444 5.01445 26.5314 4.9679 26.518C4.9448 26.5112 4.9231 26.505 4.9 26.4989L3.5 26.037L3.1003 25.8849L3.0919 25.8931C1.9929 25.4471 1.4014 25.0093 1.4 24.6639V21.8266C1.9593 22.1712 2.6677 22.4857 3.5 22.7694L4.9 23.1887C5.5538 23.3614 6.2566 23.519 7 23.6622L8.4 23.9061C9.0776 24.0137 9.7783 24.111 10.5 24.1953L11.9 24.3439C12.5888 24.409 13.2902 24.4645 14 24.5104L15.4007 24.5872C16.1021 24.6194 16.807 24.6406 17.5119 24.653L17.6225 24.655C17.815 24.6584 18.0075 24.6612 18.2 24.6632L19.6007 24.6626C19.7932 24.6605 19.9857 24.6578 20.1782 24.6543L20.2895 24.6523C20.9944 24.6393 21.6993 24.618 22.4007 24.5865L23.8 24.5098C24.5098 24.4639 25.2112 24.409 25.9 24.3433L27.3 24.1953C28.0217 24.1103 28.7224 24.0137 29.4 23.9061L30.8 23.6615C31.5434 23.5183 32.2462 23.3607 32.9 23.188L34.3 22.7701C35.1323 22.4864 35.8407 22.1719 36.4 21.8273V24.6626C36.4 24.7331 36.3734 24.8085 36.3244 24.8866ZM19.7225 32.1921C19.915 32.1955 20.1075 32.1982 20.3 32.2003L21.7 32.1996C21.8925 32.1975 22.085 32.1948 22.2775 32.1914C22.3146 32.1914 22.3517 32.1907 22.3888 32.19C23.0937 32.177 23.7986 32.1557 24.5 32.1242L25.9 32.0461C26.6098 32.0009 27.3112 31.9454 28 31.8803L29.4 31.7323C30.1217 31.6473 30.8224 31.5507 31.5 31.4431L32.9 31.1985C33.6434 31.0553 34.3462 30.8977 35 30.7251L36.4 30.3071C37.2323 30.0234 37.9407 29.7089 38.5 29.3643V32.1996C38.4993 32.5854 37.7615 33.0869 36.4 33.5871L35 34.0352C34.3763 34.2113 33.6742 34.3819 32.9 34.5429L31.5 34.8074C30.8406 34.9211 30.1399 35.026 29.4 35.1212L28 35.2829C27.3273 35.3521 26.6273 35.4131 25.9 35.4631L24.5 35.5454C23.6012 35.5885 22.6674 35.6159 21.7 35.6248L20.3 35.6255C19.3326 35.6166 18.3988 35.5892 17.5 35.546L16.1 35.4638C15.3727 35.4138 14.6727 35.3528 14 35.2836L12.6 35.1219C11.8601 35.0267 11.1594 34.9218 10.5 34.8081L9.1 34.5429C8.3258 34.3819 7.6237 34.2113 7 34.0352L5.6 33.5871C4.2385 33.0876 3.5014 32.5867 3.5 32.201V29.3636C4.0593 29.7083 4.7677 30.0228 5.6 30.3064L7 30.7251C7.6538 30.8977 8.3566 31.056 9.1 31.1985L10.5 31.4438C11.1776 31.5514 11.8783 31.648 12.6 31.733L14 31.8803C14.6888 31.9454 15.3902 32.0009 16.1 32.0468L17.5 32.1249C18.2014 32.1571 18.9063 32.1784 19.6112 32.1907C19.6483 32.1907 19.6854 32.1914 19.7225 32.1921ZM21.2275 20.5316C20.7011 20.5186 20.1866 20.4987 19.6812 20.4747C19.6539 20.4733 19.6266 20.472 19.6 20.4713L18.2 20.3877C18.1716 20.3856 18.1424 20.3839 18.1132 20.3822C18.084 20.3805 18.0547 20.3788 18.0264 20.3767L17.7429 20.3562C17.2949 20.3219 16.8574 20.2842 16.4304 20.2424C16.3821 20.2377 16.3337 20.2328 16.2855 20.228L16.156 20.215L16.1366 20.2127C16.1244 20.2112 16.1124 20.2097 16.1 20.2089L14.7 20.0478C14.2716 19.9923 13.8523 19.9348 13.4498 19.8731C13.4337 19.8697 13.4176 19.8669 13.4015 19.8649C13.1902 19.832 12.9887 19.7971 12.788 19.7624L12.6 19.7299L11.2 19.4634C10.4265 19.301 9.7251 19.1283 9.1 18.9488L7.7 18.4877C6.5996 18.0718 5.8898 17.6469 5.6588 17.2687L5.6119 17.192L5.60983 17.1822L5.60771 17.173C5.60414 17.1576 5.60049 17.1419 5.6 17.1269V14.2895C6.1593 14.6342 6.8677 14.9487 7.7 15.2324L9.1 15.651C9.7538 15.8237 10.4566 15.9819 11.2 16.1245L12.6 16.3698C13.2776 16.4773 13.9783 16.5739 14.7 16.6589L16.1 16.8062C16.7888 16.8713 17.4902 16.9268 18.2 16.9727L19.6 17.0501C20.3014 17.0824 21.0063 17.1036 21.7112 17.1159L21.8218 17.118C22.0143 17.1214 22.2068 17.1241 22.3993 17.1262H23.8C23.9925 17.1241 24.185 17.1214 24.3775 17.118L24.4888 17.1159C25.1937 17.1029 25.8986 17.0817 26.6 17.0501L28 16.9727C28.7098 16.9268 29.4112 16.872 30.1 16.8062L31.5007 16.6582C32.2224 16.5733 32.9231 16.4766 33.6007 16.3691L35.0007 16.1251C35.7441 15.9819 36.4469 15.8244 37.1007 15.6517L38.5 15.233C39.3323 14.9494 40.0407 14.6349 40.6 14.2902V17.1255C40.5993 17.5113 39.8615 18.0128 38.5 18.513V18.5L37.1007 18.9618L36.9604 19.0002L36.9028 19.016L36.7948 19.0454C36.4462 19.1406 36.0773 19.2297 35.7007 19.3167C35.5264 19.3565 35.3486 19.3962 35.1666 19.4346C35.1387 19.4406 35.1099 19.4463 35.081 19.4519L35.0363 19.4608L35.0007 19.4682L33.6007 19.7333L33.59 19.7353L33.562 19.7404L33.5349 19.745C33.2276 19.7971 32.9175 19.8484 32.599 19.8957C32.4163 19.9231 32.2294 19.9492 32.0418 19.9752C31.9188 19.9923 31.7925 20.0078 31.6665 20.0232C31.6111 20.03 31.5557 20.0368 31.5007 20.0437L30.1 20.2054L30.0898 20.2065C29.6865 20.2479 29.2838 20.2893 28.8694 20.3233L28.8465 20.3253L28.8211 20.3278L28.7952 20.3301C28.6353 20.3431 28.4722 20.3533 28.3091 20.3635C28.2058 20.37 28.1026 20.3764 28 20.3836L26.6 20.4679C25.6802 20.5124 24.745 20.5371 23.8 20.5466L22.3993 20.5473L22.1439 20.545C21.8877 20.5428 21.6318 20.5407 21.3822 20.535C21.3567 20.5343 21.3308 20.5338 21.3049 20.5333C21.279 20.5328 21.2531 20.5323 21.2275 20.5316ZM40.5923 12.3779C40.5279 12.8431 39.4506 13.4618 37.5277 14.0436C35.0511 14.7925 31.1759 15.4783 26.2647 15.6907L26.2553 15.6911C26.0072 15.7013 25.7596 15.7114 25.5066 15.7195C25.2973 15.7264 25.0873 15.7325 24.8738 15.738C24.2942 15.7504 23.7062 15.7593 23.1 15.7593C22.4938 15.7593 21.9058 15.7504 21.3262 15.7373C21.1134 15.7325 20.9034 15.7257 20.6934 15.7188C20.4768 15.7125 20.2646 15.7037 20.0532 15.6949L19.9353 15.6901C15.0241 15.4776 11.1482 14.7918 8.6723 14.0429C6.7648 13.4659 5.6896 12.852 5.6098 12.3888C5.61084 12.385 5.61157 12.3813 5.61231 12.3776C5.61404 12.3688 5.6158 12.36 5.6217 12.3484C5.64605 12.3544 5.67187 12.3598 5.69775 12.3652C5.72246 12.3704 5.74721 12.3756 5.7708 12.3813C6.0445 12.445 6.3252 12.5067 6.6108 12.5656C8.0017 12.8589 9.5431 13.0994 11.1853 13.283C11.1882 13.283 11.1907 13.2837 11.1931 13.2844C11.1954 13.2851 11.1976 13.2857 11.2 13.2857L11.2035 13.2851C12.3221 13.4098 13.4827 13.5077 14.6741 13.5769C14.6786 13.5769 14.6828 13.5781 14.687 13.5793C14.6912 13.5805 14.6954 13.5817 14.7 13.5817C14.7024 13.5817 14.7045 13.5811 14.7066 13.5804C14.7087 13.5797 14.7108 13.579 14.7133 13.579C15.5708 13.6283 16.4395 13.6646 17.3187 13.6838C17.857 13.6969 18.3855 13.7037 18.9 13.7037C19.2675 13.7037 19.6441 13.6996 20.0242 13.6927C25.1104 13.616 29.8242 13.024 33.1044 12.1065C33.2556 12.0647 33.4033 12.0216 33.5489 11.9784C33.5826 11.9683 33.6167 11.9582 33.6507 11.9482C33.7062 11.9318 33.7615 11.9155 33.8149 11.8989C34.0683 11.8194 34.3112 11.7379 34.5457 11.6529L34.5721 11.643L34.6055 11.6303C34.6253 11.6228 34.6451 11.6153 34.6654 11.6077C34.8635 11.5344 35.0539 11.4584 35.2359 11.3809L35.2569 11.3719L35.3002 11.3536C35.3317 11.3404 35.363 11.3272 35.3934 11.3138C35.5873 11.2281 35.7749 11.1404 35.9485 11.0493C35.9998 11.0228 36.0466 10.9958 36.0935 10.9687L36.133 10.946L36.1683 10.926C36.2523 10.8787 36.3363 10.8307 36.414 10.7821C36.4341 10.7696 36.456 10.7574 36.4778 10.7452C36.5038 10.7306 36.5297 10.7161 36.5526 10.7012C39.6865 11.3665 40.5125 12.0942 40.5923 12.3779ZM18.9 1.37037C30.4423 1.37037 36.2803 3.14911 36.3895 4.17004C36.3048 4.63322 35.2303 5.24509 33.3277 5.82065C30.8511 6.56956 26.9759 7.25543 22.0647 7.46783L22.0553 7.46822C21.8072 7.47837 21.5596 7.48849 21.3066 7.49661C21.0973 7.50346 20.8873 7.50963 20.6738 7.51511C20.0942 7.52813 19.5062 7.53704 18.9 7.53704C18.2938 7.53704 17.7058 7.52813 17.1262 7.51511C16.9134 7.51031 16.7034 7.50346 16.4934 7.49661C16.2768 7.49026 16.0646 7.48146 15.8531 7.4727L15.7353 7.46783C10.8241 7.25543 6.9482 6.56956 4.4723 5.82065C2.569 5.24509 1.4952 4.63322 1.4105 4.17004C1.5197 3.14911 7.3577 1.37037 18.9 1.37037ZM4.7908 18.3869C4.79605 18.3924 4.8027 18.3976 4.80935 18.4027C4.816 18.4078 4.82265 18.413 4.8279 18.4185C5.7862 19.3654 7.7707 20.1095 10.241 20.6645C10.2709 20.6714 10.3018 20.6781 10.3328 20.6847C10.3605 20.6907 10.3882 20.6967 10.4153 20.7029C10.5966 20.7426 10.7807 20.7817 10.9669 20.8194C13.2356 21.2921 15.9439 21.634 18.8944 21.8033L18.8974 21.8036L18.8993 21.804L18.9021 21.8033C19.8499 21.8574 20.8194 21.8951 21.8092 21.9115C22.2474 21.9204 22.6786 21.9259 23.1 21.9259C23.583 21.9259 24.0786 21.9204 24.5826 21.9088C25.4982 21.8903 26.4005 21.8533 27.2902 21.8026C27.2937 21.8026 27.2965 21.8046 27.3 21.8046C27.3032 21.8046 27.306 21.8038 27.3088 21.8029C27.3116 21.8021 27.3144 21.8012 27.3175 21.8012C30.2757 21.6306 33.0512 21.2853 35.3983 20.7885C34.8901 21.0489 34.1943 21.3182 33.3277 21.5806C30.7132 22.3713 26.5377 23.0914 21.231 23.2586L21.0741 23.2636C20.9695 23.2669 20.8649 23.2703 20.7585 23.273C20.6428 23.2758 20.5258 23.2779 20.4083 23.2801L20.2384 23.2833C19.7981 23.2901 19.355 23.2963 18.9 23.2963C18.2938 23.2963 17.7058 23.2874 17.1262 23.2744C16.9134 23.2696 16.7034 23.2627 16.4934 23.2559C16.2768 23.2495 16.0647 23.2407 15.8533 23.232L15.7353 23.2271C10.8241 23.0147 6.9482 22.3288 4.4723 21.5799C2.5473 20.9975 1.47 20.3781 1.4077 19.9129C1.4854 19.6552 2.1931 19.0105 4.7908 18.3869ZM38.4909 27.4602C38.4146 27.924 37.3394 28.5393 35.4277 29.1176C32.9511 29.8665 29.0759 30.5524 24.1647 30.7648L24.156 30.7652C23.9076 30.7753 23.6598 30.7855 23.4066 30.7936C23.1973 30.8004 22.9873 30.8066 22.7738 30.8121C22.1942 30.8244 21.6062 30.8333 21 30.8333C20.3938 30.8333 19.8051 30.8244 19.2248 30.8114C19.0141 30.8066 18.8062 30.7998 18.5983 30.7929C18.3432 30.7848 18.0942 30.7747 17.8446 30.7645L17.8353 30.7641C12.9241 30.5517 9.0489 29.8659 6.5723 29.1169C4.7208 28.5571 3.6512 27.9624 3.5168 27.5033C3.7254 27.5746 3.9417 27.6438 4.1636 27.7116C4.186 27.7185 4.2084 27.7253 4.2308 27.7315C4.4198 27.7884 4.613 27.8432 4.8111 27.8966C4.886 27.9172 4.9616 27.9377 5.0379 27.9576C5.12199 27.9797 5.20766 28.0011 5.29373 28.0225L5.3795 28.0439C7.9289 28.6832 11.1832 29.1361 14.6965 29.3396L14.7 29.3403L14.7021 29.3396C15.7871 29.4027 16.8952 29.4417 18.0152 29.4547C18.3134 29.4602 18.6095 29.463 18.9 29.463C19.2857 29.463 19.6805 29.4582 20.0802 29.4513C21.1015 29.4349 22.1095 29.3979 23.0951 29.3403C23.0972 29.3403 23.0986 29.3417 23.1007 29.3417L23.1052 29.3407L23.1098 29.3396C24.3103 29.2691 25.4723 29.1683 26.5888 29.0429C26.5909 29.0429 26.5946 29.0439 26.5946 29.0439C26.5966 29.0445 26.5986 29.045 26.6007 29.045C26.6091 29.045 26.6166 29.0428 26.6243 29.0405C26.6307 29.0386 26.6371 29.0367 26.6441 29.0361C27.8873 28.8956 29.0661 28.723 30.1602 28.5222C30.3856 28.4818 30.6075 28.44 30.8273 28.3968C30.8763 28.3872 30.9253 28.3776 30.9743 28.3674C33.0414 27.9521 34.8306 27.4143 36.0584 26.7476C36.1106 26.7199 36.1602 26.6914 36.2096 26.6631L36.2523 26.6386C36.33 26.5934 36.4042 26.5475 36.4763 26.5009C36.5029 26.4841 36.5311 26.4675 36.5594 26.4509C36.6025 26.4256 36.6456 26.4002 36.6828 26.3741C38.0646 26.8565 38.4454 27.2882 38.4909 27.4602ZM4.9 7.42946C5.5538 7.60213 6.2566 7.75972 7 7.90293L8.4 8.14754C9.0776 8.25443 9.7783 8.35172 10.5 8.436L11.9 8.584C12.5888 8.64909 13.2902 8.70459 14 8.7505L15.4 8.82861C16.1014 8.86082 16.8063 8.88206 17.5112 8.89439C17.5483 8.89439 17.5854 8.89507 17.6225 8.89576C17.815 8.89919 18.0075 8.90193 18.2 8.90398H19.6C19.7925 8.90193 19.985 8.89919 20.1775 8.89576L20.2888 8.8937C20.9937 8.88068 21.6986 8.85944 22.4 8.82793L23.8 8.7505C24.5098 8.70459 25.2112 8.64909 25.9 8.584L27.3 8.436C28.0217 8.35104 28.7224 8.25443 29.4 8.14685L30.8 7.90293C31.5434 7.75972 32.2462 7.60213 32.9 7.42946L34.3 7.01013C35.1323 6.72646 35.8407 6.41196 36.4 6.06731V8.90261C36.4 9.00676 36.344 9.11913 36.2397 9.23767L36.2201 9.23356L35.9653 9.42746C35.5957 9.70907 35.028 9.99411 34.3 10.2696L32.9 10.7321C32.2728 10.9109 31.5665 11.0815 30.8 11.2418L29.4 11.5056C28.7364 11.6207 28.0378 11.7263 27.3 11.8208L25.9 11.9825C25.2238 12.0524 24.5238 12.1134 23.8 12.1641L22.4 12.2463C22.3409 12.249 22.283 12.2524 22.225 12.2558C22.1663 12.2593 22.1075 12.2627 22.0472 12.2655L22.0385 12.266L22.0321 12.2662C22.0272 12.2664 22.0223 12.2665 22.0171 12.2669C21.5474 12.2874 21.0686 12.3025 20.5835 12.3135C20.5457 12.3145 20.5079 12.3152 20.4701 12.3159C20.4323 12.3165 20.3945 12.3172 20.3567 12.3183C20.1904 12.3215 20.0217 12.3228 19.8527 12.3242C19.7684 12.3249 19.6841 12.3256 19.6 12.3265L18.2 12.3251C17.2578 12.3162 16.3212 12.2922 15.4 12.247L14 12.1614C13.2874 12.1113 12.5846 12.0545 11.9 11.9839L10.5 11.8215C10.4372 11.8134 10.3733 11.8061 10.3094 11.7987C10.2322 11.7898 10.1551 11.7809 10.08 11.7708C10.0314 11.7641 9.984 11.7572 9.93674 11.7503C9.8969 11.7445 9.85714 11.7388 9.8168 11.7331C9.4122 11.6762 9.0167 11.6153 8.6289 11.5515C8.58551 11.5443 8.54298 11.5368 8.5006 11.5293C8.4671 11.5234 8.43369 11.5175 8.4 11.5118L7 11.2473L6.90538 11.2279C6.84993 11.2166 6.79447 11.2052 6.741 11.1939C6.3686 11.1137 6.0053 11.0301 5.6581 10.9417C5.3935 10.8753 5.1422 10.8074 4.9 10.7396L3.5 10.2908C2.1385 9.7913 1.4014 9.29043 1.4 8.90467V6.06731C1.9593 6.41196 2.6677 6.72646 3.5 7.01013L4.9 7.42946Z" fill="#E62C76"/>
</svg>
