<svg width="43" height="43" viewBox="0 0 43 43" fill="none" xmlns="http://www.w3.org/2000/svg">
<path d="M33.54 8.32796C34.3561 7.45041 34.8651 6.25694 34.8651 4.94061C34.8651 2.19388 32.6712 0 30.0122 0C27.9939 0 23.3429 3.01878 21.4824 5.73041C19.5606 3.01878 14.9271 0.0877551 12.9878 0.0877551C10.3376 0.0877551 8.1349 2.28163 8.1349 5.02837C8.1349 6.30082 8.60878 7.45041 9.37225 8.31918H0.999999C0.447714 8.31918 0 8.7669 0 9.31918V19.1222C0 19.6745 0.447715 20.1222 1 20.1222H2.56245V42C2.56245 42.5523 3.01016 43 3.56245 43H16.0153H26.9935H39.4463C39.9986 43 40.4463 42.5523 40.4463 42V20.131H42C42.5523 20.131 43 19.6833 43 19.131V9.32796C43 8.77567 42.5523 8.32796 42 8.32796H33.54ZM30.0122 1.83408C31.662 1.83408 33.031 3.20306 33.031 5.03714C33.031 6.58163 31.9516 7.90674 30.5563 8.18755H23.1322C22.6584 8.04714 22.5092 7.88041 22.5092 7.78388C22.5092 6.22184 27.9939 1.83408 30.0122 1.83408ZM12.9878 1.83408C14.9096 1.83408 20.4908 6.22184 20.4908 7.78388C20.4908 7.92429 20.1661 8.08225 19.9292 8.18755H12.4524C11.0571 7.90674 9.97775 6.58163 9.97775 5.03714C9.96898 3.29082 11.3467 1.83408 12.9878 1.83408ZM16.0065 41.1659H4.38776V20.131H16.0065V41.1659ZM16.0065 18.3935H1.83408V10.162H16.0153V18.3935H16.0065ZM25.1506 41.1659H17.8318V10.1533H25.1506V41.1659ZM38.6035 41.1659H26.9847V20.131H38.6035V41.1659ZM41.1571 18.3935H26.9847V10.162H41.1659V18.3935H41.1571Z" fill="#E62C76"/>
</svg>
