<svg width="59" height="43" viewBox="0 0 59 43" fill="none" xmlns="http://www.w3.org/2000/svg">
<path d="M47.7646 13.7478H44.0501L45.1693 0.936259C45.1714 0.913051 45.1717 0.890187 45.1718 0.867324C45.1718 0.86537 45.1721 0.863532 45.1721 0.861579C45.1721 0.861234 45.1721 0.861005 45.1721 0.86066C45.1721 0.511961 44.9611 0.204624 44.651 0.071004C44.6483 0.0698551 44.6458 0.0684766 44.6431 0.0673277C44.6239 0.0592852 44.6039 0.0523913 44.5839 0.0457275C44.5764 0.0433148 44.5693 0.0403274 44.5618 0.0380296C44.5454 0.0330892 44.5286 0.0291829 44.5119 0.0251617C44.5001 0.0224042 44.4888 0.0190726 44.477 0.0167747C44.4623 0.0139024 44.4471 0.0120644 44.4321 0.00988146C44.4181 0.0078134 44.4042 0.0054003 44.3901 0.00413649C44.3876 0.0039067 44.3855 0.00344676 44.383 0.00321698C44.3678 0.00183827 44.3529 0.00206812 44.3378 0.00149366C44.3276 0.00114898 44.3177 0 44.3076 0H44.2967C44.2958 0 44.2949 0 44.2941 0H26.6204C26.1433 0 25.7561 0.386039 25.7561 0.861694C25.7561 1.3362 26.1433 1.72339 26.6204 1.72339H43.3655L41.6455 21.4131C41.6453 21.4146 41.6453 21.4161 41.6451 21.4176L41.2111 26.3856H11.1799L11.6822 21.2157H17.4002C17.8776 21.2157 18.2645 20.8299 18.2645 20.354C18.2645 19.8781 17.8776 19.4923 17.4002 19.4923H11.8497L12.9103 8.5781H22.011C22.4884 8.5781 22.8753 8.19229 22.8753 7.71641C22.8753 7.24052 22.4884 6.85472 22.011 6.85472H13.0779L13.5766 1.72339H23.1634C23.6393 1.72339 24.0276 1.3362 24.0276 0.861694C24.0276 0.386039 23.6393 0 23.1634 0H12.7922C12.7918 0 12.7914 0.000114829 12.791 0.000114829C12.385 -6.3118e-08 12.0328 0.284934 11.9477 0.679934C11.9471 0.682807 11.946 0.685564 11.9455 0.688436C11.9411 0.709921 11.9382 0.731865 11.9353 0.753925C11.9345 0.760933 11.933 0.767597 11.9323 0.774606C11.9322 0.775984 11.9319 0.777248 11.9318 0.778626L11.3413 6.85472H0.864261C0.386843 6.85472 0 7.24052 0 7.71641C0 8.19229 0.386843 8.5781 0.864261 8.5781H11.1737L10.1131 19.4923H7.02956C6.55214 19.4923 6.16529 19.8781 6.16529 20.354C6.16529 20.8299 6.55214 21.2157 7.02956 21.2157H9.94569L9.36813 27.1581C9.36802 27.159 9.36802 27.1599 9.3679 27.1607L8.47495 36.3497C8.47483 36.3507 8.47472 36.3519 8.4746 36.3528L8.47425 36.3561C8.4731 36.3681 8.47322 36.3798 8.47253 36.3917C8.47172 36.4076 8.47011 36.4231 8.47011 36.4392C8.47011 36.4399 8.47022 36.4406 8.47022 36.4414C8.47022 36.4635 8.47183 36.4854 8.47345 36.5072C8.47414 36.5142 8.47391 36.5213 8.47472 36.5282C8.47702 36.5505 8.48082 36.5725 8.48486 36.5943C8.48601 36.6007 8.48658 36.6073 8.48785 36.6136C8.49119 36.6301 8.49592 36.6461 8.5003 36.6623C8.50329 36.6737 8.50571 36.6853 8.50917 36.6964C8.51021 36.6995 8.51159 36.7025 8.51251 36.7057C8.55434 36.834 8.62533 36.9491 8.71798 37.0431C8.7197 37.0448 8.72109 37.0467 8.72282 37.0483C8.73203 37.0575 8.74206 37.0658 8.75174 37.0745C8.81132 37.129 8.87861 37.1752 8.95225 37.2114C8.96757 37.219 8.98267 37.2269 8.99834 37.2334C9.00307 37.2355 9.00814 37.2369 9.01298 37.2387C9.03464 37.2473 9.05642 37.2556 9.07889 37.2626C9.08097 37.2632 9.08292 37.2635 9.085 37.2642C9.11058 37.2718 9.13639 37.2785 9.16278 37.2839C9.16624 37.2846 9.16981 37.2848 9.17315 37.2855C9.19827 37.2902 9.22351 37.2942 9.24921 37.2967C9.24979 37.2967 9.25025 37.2969 9.25082 37.297C9.27917 37.2997 9.30729 37.3011 9.33517 37.3011C9.33552 37.3011 9.33598 37.301 9.33644 37.301H13.1839C13.6088 40.5126 16.3704 43 19.7058 43C23.0411 43 25.8027 40.5126 26.2276 37.301H40.0902C40.5152 40.5126 43.2767 43 46.612 43C49.9473 43 52.7091 40.5126 53.1341 37.301H56.9825C56.983 37.301 56.9837 37.3011 56.9843 37.3011C57.0131 37.3011 57.0415 37.2994 57.0696 37.2966C57.0747 37.2962 57.0795 37.2951 57.0846 37.2946C57.107 37.2919 57.1294 37.2888 57.1513 37.2844C57.1607 37.2826 57.1698 37.2801 57.1792 37.2779C57.1961 37.274 57.2132 37.2699 57.2298 37.2649C57.2411 37.2616 57.252 37.2577 57.2631 37.2539C57.2772 37.2491 57.2914 37.244 57.3054 37.2384C57.3173 37.2337 57.3288 37.2285 57.3404 37.2233C57.3531 37.2175 57.3657 37.2115 57.3781 37.2052C57.3898 37.1992 57.4011 37.193 57.4124 37.1866C57.4243 37.1797 57.436 37.1725 57.4477 37.1652C57.4585 37.1583 57.4693 37.1513 57.4797 37.1439C57.4915 37.1358 57.5026 37.1272 57.514 37.1184C57.5235 37.111 57.5331 37.1036 57.5423 37.0958C57.5541 37.0858 57.5653 37.0753 57.5766 37.0647C57.5845 37.0572 57.5926 37.0498 57.6002 37.042C57.6122 37.0298 57.6236 37.017 57.635 37.004C57.6412 36.997 57.6475 36.9902 57.6534 36.9831C57.666 36.9675 57.6776 36.9514 57.6891 36.9352C57.693 36.9295 57.6974 36.9243 57.7012 36.9185C57.7152 36.8975 57.7285 36.8759 57.7407 36.8536C57.7416 36.8522 57.7426 36.851 57.7431 36.8495C57.7562 36.8256 57.7681 36.8011 57.7789 36.7758C57.7819 36.7686 57.7842 36.7611 57.787 36.7539C57.7941 36.7361 57.801 36.7183 57.8069 36.6998C57.8107 36.6878 57.8134 36.6755 57.8168 36.6634C57.8206 36.6491 57.8246 36.6348 57.8278 36.6203C57.8307 36.6073 57.8326 36.5939 57.8348 36.5807C57.8367 36.5691 57.8392 36.5577 57.8407 36.5459C57.8774 36.2532 58.5542 30.8396 58.8564 27.339C58.8568 27.3357 58.8569 27.3322 58.8572 27.3289C58.9442 26.3198 59 25.4701 59 24.9498C59 18.7731 53.9599 13.7478 47.7646 13.7478ZM43.8995 15.4714H47.4353L46.9837 20.6411H43.4479L43.8995 15.4714ZM19.7061 41.2765C17.0307 41.2765 14.8541 39.1064 14.8541 36.4391C14.8541 33.7717 17.0308 31.6016 19.7061 31.6016C22.3814 31.6016 24.5579 33.7717 24.5579 36.4391C24.5579 39.1064 22.3814 41.2765 19.7061 41.2765ZM46.612 41.2765C43.9367 41.2765 41.7603 39.1064 41.7603 36.4391C41.7603 33.7717 43.9369 31.6016 46.612 31.6016C49.2874 31.6016 51.464 33.7717 51.464 36.4391C51.464 39.1064 49.2874 41.2765 46.612 41.2765ZM56.2188 35.577H53.1343C52.7096 32.3652 49.9478 29.8777 46.6123 29.8777C43.2769 29.8777 40.5152 32.3653 40.0904 35.577H26.2279C25.8032 32.3652 23.0415 29.8777 19.7061 29.8777C16.3706 29.8777 13.6088 32.3653 13.184 35.577H10.2866L11.0124 28.1086H42.0031C42.0036 28.1086 42.0039 28.109 42.0044 28.109C42.0333 28.109 42.062 28.1074 42.0903 28.1045C42.0956 28.1041 42.1008 28.1029 42.1061 28.1022C42.1287 28.0996 42.1512 28.0964 42.1733 28.092C42.1829 28.0901 42.1922 28.0874 42.2016 28.0851C42.2189 28.081 42.2362 28.077 42.253 28.0719C42.2646 28.0685 42.2755 28.0643 42.2867 28.0604C42.3012 28.0554 42.3157 28.0504 42.3298 28.0447C42.3419 28.0397 42.3535 28.0342 42.3653 28.0287C42.3781 28.0228 42.3909 28.017 42.4032 28.0106C42.4149 28.0044 42.4265 27.9977 42.4381 27.991C42.45 27.9841 42.4617 27.9771 42.4733 27.9698C42.4844 27.9625 42.495 27.9549 42.5057 27.9474C42.5172 27.9393 42.5282 27.931 42.5393 27.9224C42.5492 27.9145 42.559 27.9063 42.5687 27.898C42.5796 27.8885 42.5903 27.8789 42.6007 27.8689C42.6095 27.8605 42.6182 27.8519 42.6267 27.843C42.6371 27.8322 42.6471 27.8211 42.6571 27.8097C42.6648 27.8008 42.6724 27.7918 42.6798 27.7826C42.6893 27.7705 42.6984 27.7581 42.7074 27.7456C42.7142 27.7362 42.7208 27.7268 42.7272 27.7171C42.7356 27.7041 42.7437 27.6908 42.7514 27.6773C42.7573 27.6671 42.7633 27.657 42.7686 27.6467C42.7759 27.6331 42.7821 27.6193 42.7887 27.6054C42.7937 27.5943 42.7989 27.5834 42.8035 27.5719C42.8092 27.5583 42.8139 27.5444 42.8188 27.5305C42.8231 27.5182 42.8276 27.5059 42.8314 27.4933C42.8352 27.48 42.8383 27.4663 42.8418 27.4528C42.8451 27.4391 42.8488 27.4255 42.8515 27.4116C42.8541 27.3981 42.8557 27.3843 42.8578 27.3705C42.8599 27.3562 42.8623 27.3422 42.8637 27.3277C42.8639 27.3257 42.8644 27.3237 42.8645 27.3217L43.2976 22.364H47.7644C50.4124 22.364 51.6067 23.732 52.8709 25.1803C53.9141 26.3753 55.0788 27.7086 57.0585 28.0339C56.8071 30.6844 56.4007 34.0871 56.2188 35.577ZM57.2063 26.307C55.922 26.046 55.1318 25.1458 54.1745 24.0493C52.9774 22.678 51.5159 21.0046 48.7141 20.6928L49.1613 15.5746C53.7435 16.2503 57.2715 20.1966 57.2715 24.95C57.2715 25.273 57.2473 25.7422 57.2063 26.307Z" fill="#E62C76"/>
<path d="M19.7058 33.2792C17.9585 33.2792 16.5368 34.6966 16.5368 36.4388C16.5368 38.181 17.9585 39.5983 19.7058 39.5983C21.4531 39.5983 22.8747 38.181 22.8747 36.4388C22.8747 34.6967 21.4531 33.2792 19.7058 33.2792ZM19.7058 37.8749C18.9115 37.8749 18.2653 37.2307 18.2653 36.4388C18.2653 35.6468 18.9115 35.0026 19.7058 35.0026C20.5001 35.0026 21.1462 35.6468 21.1462 36.4388C21.1462 37.2307 20.5 37.8749 19.7058 37.8749Z" fill="#E62C76"/>
<path d="M46.6123 33.2792C44.865 33.2792 43.4434 34.6966 43.4434 36.4388C43.4434 38.181 44.865 39.5983 46.6123 39.5983C48.3596 39.5983 49.7813 38.181 49.7813 36.4388C49.7813 34.6967 48.3596 33.2792 46.6123 33.2792ZM46.6123 37.8749C45.818 37.8749 45.1719 37.2307 45.1719 36.4388C45.1719 35.6468 45.818 35.0026 46.6123 35.0026C47.4066 35.0026 48.0528 35.6468 48.0528 36.4388C48.0528 37.2307 47.4066 37.8749 46.6123 37.8749Z" fill="#E62C76"/>
<path d="M8.18135 13.7483H3.95615C3.47873 13.7483 3.09189 14.1341 3.09189 14.61C3.09189 15.0859 3.47873 15.4717 3.95615 15.4717H8.18135C8.65877 15.4717 9.04562 15.0859 9.04562 14.61C9.04562 14.1341 8.65877 13.7483 8.18135 13.7483Z" fill="#E62C76"/>
</svg>
