<svg width="50" height="46" viewBox="0 0 50 46" fill="none" xmlns="http://www.w3.org/2000/svg">
<path fill-rule="evenodd" clip-rule="evenodd" d="M2.91894 10.3333C2.07166 10.5684 1.91847 11.7039 2.67315 12.1551L9.82848 16.4335L5.71553 23.0423C5.23402 23.816 5.95383 24.7779 6.83193 24.5343L16.8802 21.7459L7.05222 31.6355L6.55445 31.7736C6.02885 31.9195 5.7171 32.4596 5.85372 32.9877L8.96549 45.0148C9.10554 45.5561 9.66223 45.8774 10.201 45.7279L47.1919 35.463C48.0708 35.2191 48.1911 34.0223 47.3783 33.6083L40.1588 29.9316L44.6274 23.0224C45.1269 22.25 44.4067 21.2698 43.5203 21.5157L33.537 24.2861L43.43 14.6678C43.6876 14.4174 43.791 14.0481 43.7011 13.7004L40.4113 0.985221C40.2712 0.443911 39.7145 0.122607 39.1758 0.272115L2.91894 10.3333ZM39.0988 1.89698L4.90934 11.3844L12.2362 15.7653L7.82539 22.6551L42.0149 13.1676L39.0988 1.89698ZM19.7695 20.9441L40.9573 15.0646L30.6478 25.0878L9.94147 30.8338L19.7695 20.9441ZM10.2779 44.103L7.4393 33.1316L43.0734 23.2433L38.2327 30.4661L45.1658 34.4218L10.2779 44.103Z" fill="#E62C76"/>
<path d="M18.8145 16.246C18.7761 16.257 18.7397 16.2523 18.7054 16.2321C18.6711 16.2118 18.6486 16.1818 18.6381 16.142L17.6081 12.2523C17.5965 12.2085 17.5985 12.1694 17.6142 12.1349C17.6338 12.0994 17.6647 12.0756 17.707 12.0636L19.3801 11.5884C19.8301 11.4606 20.1922 11.4691 20.4662 11.614C20.7431 11.7538 20.9285 12.0009 21.0224 12.3554C21.0772 12.5626 21.0742 12.754 21.0132 12.9298C20.955 13.1005 20.869 13.2363 20.7551 13.3372C20.9367 13.367 21.104 13.4522 21.257 13.5929C21.4139 13.7325 21.5214 13.9119 21.5794 14.131C21.6775 14.5014 21.6354 14.8345 21.4532 15.1304C21.2749 15.4252 20.9684 15.6343 20.5338 15.7577L18.8145 16.246ZM19.7304 13.3327C19.9304 13.2759 20.0691 13.183 20.1466 13.0539C20.2241 12.9248 20.2406 12.7766 20.1963 12.6093C20.151 12.438 20.0643 12.3213 19.9361 12.2592C19.807 12.1931 19.6424 12.1885 19.4424 12.2453L18.5366 12.5025L18.8246 13.59L19.7304 13.3327ZM20.2738 15.1506C20.4738 15.0938 20.6148 14.9938 20.6968 14.8506C20.7777 14.7034 20.795 14.5422 20.7486 14.3669C20.7011 14.1877 20.6069 14.0581 20.4658 13.9783C20.3237 13.8944 20.1526 13.8809 19.9526 13.9377L18.9891 14.2113L19.3103 15.4243L20.2738 15.1506Z" fill="#E62C76"/>
<path d="M22.7697 15.1227C22.7312 15.1336 22.6948 15.129 22.6605 15.1087C22.6262 15.0885 22.6038 15.0585 22.5932 15.0186L21.5632 11.129C21.5516 11.0852 21.5537 11.046 21.5694 11.0116C21.5889 10.9761 21.6198 10.9523 21.6622 10.9403L24.2007 10.2193C24.243 10.2073 24.2813 10.2114 24.3156 10.2316C24.3499 10.2519 24.3728 10.2839 24.3844 10.3277L24.4889 10.7221C24.5005 10.7659 24.4965 10.8056 24.477 10.8411C24.4564 10.8726 24.4249 10.8944 24.3826 10.9064L22.4845 11.4455L22.7645 12.5031L24.5357 12C24.578 11.988 24.6163 11.9921 24.6507 12.0124C24.6839 12.0286 24.7063 12.0587 24.7179 12.1025L24.816 12.4729C24.8276 12.5167 24.8237 12.5564 24.8041 12.5919C24.7835 12.6235 24.7521 12.6453 24.7098 12.6573L22.9386 13.1603L23.2281 14.2537L25.1724 13.7015C25.2147 13.6895 25.253 13.6936 25.2873 13.7139C25.3216 13.7341 25.3446 13.7661 25.3562 13.8099L25.4606 14.2043C25.4722 14.2481 25.4682 14.2878 25.4487 14.3233C25.4281 14.3548 25.3967 14.3766 25.3543 14.3886L22.7697 15.1227Z" fill="#E62C76"/>
<path d="M27.6379 13.8043C27.2956 13.9015 26.9871 13.9313 26.7125 13.8937C26.4379 13.8561 26.2139 13.7676 26.0405 13.6284C25.8672 13.4892 25.7498 13.3191 25.6883 13.1181C25.6788 13.0823 25.6824 13.0491 25.6992 13.0187C25.7159 12.9882 25.7416 12.9681 25.7762 12.9583L26.2897 12.8124C26.3358 12.7993 26.3731 12.7995 26.4015 12.8128C26.4326 12.8211 26.465 12.8419 26.4986 12.8752C26.5729 12.9997 26.6915 13.0881 26.8542 13.1404C27.0169 13.1926 27.2175 13.1849 27.456 13.1172C27.729 13.0396 27.9227 12.9354 28.0369 12.8044C28.15 12.6695 28.1845 12.5184 28.1402 12.3511C28.1106 12.2396 28.0498 12.1583 27.9578 12.1074C27.8695 12.0554 27.7474 12.0237 27.5914 12.0123C27.4392 11.9998 27.2147 11.9951 26.9177 11.9981C26.4343 12.0154 26.0626 11.9626 25.8025 11.8394C25.5452 11.7112 25.3712 11.4758 25.2805 11.1332C25.2194 10.9022 25.2247 10.6801 25.2964 10.467C25.372 10.2528 25.5096 10.0617 25.7091 9.89368C25.9124 9.72458 26.166 9.59687 26.4699 9.51058C26.7853 9.421 27.0737 9.4012 27.335 9.45117C27.5964 9.50114 27.8099 9.59683 27.9755 9.73823C28.144 9.87455 28.2547 10.0273 28.3078 10.1964C28.3172 10.2322 28.3136 10.2654 28.2969 10.2958C28.2801 10.3263 28.2544 10.3464 28.2198 10.3562L27.6833 10.5086C27.6025 10.5316 27.5367 10.5096 27.4859 10.4426C27.4291 10.3217 27.3242 10.238 27.1713 10.1915C27.0173 10.141 26.8442 10.1431 26.6518 10.1977C26.4365 10.2589 26.2783 10.3488 26.1774 10.4674C26.0764 10.586 26.0471 10.7249 26.0893 10.8843C26.1188 10.9958 26.1738 11.0787 26.2544 11.1329C26.3349 11.1871 26.4479 11.2235 26.5935 11.2422C26.7428 11.2597 26.9515 11.2668 27.2194 11.2635C27.579 11.2471 27.872 11.2602 28.0983 11.303C28.3286 11.3447 28.5118 11.4275 28.648 11.5516C28.7843 11.6757 28.8835 11.8552 28.9457 12.0902C29.0132 12.3451 29.0031 12.5879 28.9152 12.8184C28.8302 13.0438 28.6759 13.2418 28.4522 13.4124C28.2324 13.5819 27.961 13.7126 27.6379 13.8043Z" fill="#E62C76"/>
<path d="M30.9036 12.8126C30.8652 12.8235 30.8288 12.8188 30.7945 12.7986C30.7602 12.7784 30.7377 12.7483 30.7272 12.7085L29.8522 9.40437L28.7849 9.70751C28.7465 9.71843 28.7101 9.71377 28.6758 9.69354C28.6415 9.6733 28.619 9.64327 28.6085 9.60343L28.4914 9.16129C28.4798 9.11748 28.4818 9.07835 28.4975 9.04391C28.5171 9.00838 28.548 8.98461 28.5903 8.97259L31.5327 8.13692C31.575 8.12491 31.6133 8.12902 31.6476 8.14925C31.6819 8.16949 31.7048 8.20152 31.7164 8.24533L31.8335 8.68748C31.8441 8.72731 31.8396 8.76499 31.82 8.80052C31.8005 8.83605 31.7696 8.85982 31.7273 8.87184L30.6657 9.17333L31.5407 12.4775C31.5512 12.5173 31.5467 12.555 31.5272 12.5905C31.5076 12.626 31.4767 12.6498 31.4344 12.6618L30.9036 12.8126Z" fill="#E62C76"/>
<path d="M17.3461 39.4602C16.8231 39.6087 16.379 39.5871 16.0139 39.3953C15.6488 39.2035 15.3868 38.8389 15.228 38.3015C15.1935 38.1871 15.1468 38.0184 15.0877 37.7953C15.0276 37.5682 14.9842 37.3964 14.9574 37.2798C14.8325 36.7457 14.8826 36.2946 15.1077 35.9266C15.3329 35.5586 15.6993 35.3024 16.207 35.1583C16.7147 35.0141 17.156 35.0408 17.5309 35.2384C17.9096 35.4349 18.1768 35.7958 18.3325 36.3212C18.4014 36.5501 18.4506 36.7203 18.4801 36.8318C18.5086 36.9394 18.5496 37.1097 18.603 37.343C18.7273 37.8901 18.6796 38.3427 18.4601 38.7005C18.2405 39.0584 17.8692 39.3116 17.3461 39.4602ZM17.1642 38.7731C17.4219 38.6999 17.6066 38.5618 17.7182 38.3587C17.8288 38.1517 17.8461 37.8813 17.7701 37.5474C17.7145 37.3062 17.6756 37.1438 17.6535 37.0602C17.6292 36.9685 17.5827 36.8083 17.5138 36.5795C17.4147 36.2521 17.2671 36.0306 17.0711 35.915C16.874 35.7954 16.6466 35.7722 16.3889 35.8454C16.1351 35.9175 15.9528 36.057 15.8422 36.264C15.7306 36.467 15.7128 36.7355 15.7888 37.0694C15.8155 37.186 15.8563 37.3479 15.9112 37.555C15.965 37.7581 16.0096 37.9189 16.0451 38.0373C16.1442 38.3647 16.2903 38.5887 16.4836 38.7094C16.6796 38.825 16.9065 38.8463 17.1642 38.7731Z" fill="#E62C76"/>
<path d="M19.9283 38.6626C19.8899 38.6735 19.8535 38.6688 19.8192 38.6486C19.7849 38.6284 19.7624 38.5983 19.7519 38.5585L18.7219 34.6688C18.7103 34.625 18.7123 34.5859 18.728 34.5515C18.7476 34.5159 18.7785 34.4921 18.8208 34.4801L21.3247 33.769C21.367 33.757 21.4053 33.7611 21.4396 33.7813C21.4739 33.8016 21.4969 33.8336 21.5085 33.8774L21.6192 34.2956C21.6308 34.3395 21.6269 34.3791 21.6073 34.4147C21.5867 34.4462 21.5553 34.468 21.513 34.48L19.661 35.006L19.9616 36.1412L21.6982 35.648C21.7405 35.636 21.7788 35.6401 21.8131 35.6603C21.8474 35.6806 21.8704 35.7126 21.882 35.7564L21.9927 36.1747C22.0043 36.2185 22.0004 36.2581 21.9808 36.2937C21.9602 36.3252 21.9288 36.347 21.8865 36.359L20.1499 36.8522L20.5423 38.334C20.5539 38.3778 20.5499 38.4175 20.5304 38.453C20.5098 38.4846 20.4783 38.5064 20.436 38.5184L19.9283 38.6626Z" fill="#E62C76"/>
<path d="M23.3933 37.6785C23.3548 37.6894 23.3185 37.6847 23.2841 37.6645C23.2498 37.6443 23.2274 37.6142 23.2169 37.5744L22.1869 33.6847C22.1753 33.6409 22.1773 33.6018 22.193 33.5673C22.2125 33.5318 22.2435 33.508 22.2858 33.496L24.7897 32.7849C24.832 32.7729 24.8703 32.777 24.9046 32.7972C24.9389 32.8175 24.9618 32.8495 24.9734 32.8933L25.0842 33.3115C25.0958 33.3554 25.0918 33.395 25.0723 33.4306C25.0517 33.4621 25.0202 33.4839 24.9779 33.4959L23.126 34.0219L23.4266 35.1571L25.1632 34.6639C25.2055 34.6519 25.2438 34.656 25.2781 34.6762C25.3124 34.6965 25.3354 34.7285 25.347 34.7723L25.4577 35.1906C25.4693 35.2344 25.4653 35.2741 25.4458 35.3096C25.4252 35.3411 25.3938 35.3629 25.3514 35.3749L23.6149 35.8681L24.0073 37.3499C24.0189 37.3937 24.0149 37.4334 23.9954 37.4689C23.9748 37.5005 23.9433 37.5223 23.901 37.5343L23.3933 37.6785Z" fill="#E62C76"/>
<path d="M26.8583 36.6944C26.8198 36.7053 26.7834 36.7006 26.7491 36.6804C26.7148 36.6602 26.6924 36.6301 26.6818 36.5903L25.6518 32.7006C25.6402 32.6568 25.6423 32.6177 25.658 32.5833C25.6775 32.5477 25.7084 32.5239 25.7507 32.5119L28.2892 31.791C28.3316 31.7789 28.3699 31.7831 28.4042 31.8033C28.4385 31.8235 28.4614 31.8556 28.473 31.8994L28.5775 32.2937C28.5891 32.3375 28.5851 32.3772 28.5656 32.4127C28.545 32.4443 28.5135 32.4661 28.4712 32.4781L26.5731 33.0172L26.8531 34.0747L28.6243 33.5717C28.6666 33.5597 28.7049 33.5638 28.7392 33.584C28.7725 33.6003 28.7949 33.6303 28.8065 33.6741L28.9046 34.0446C28.9162 34.0884 28.9123 34.128 28.8927 34.1636C28.8721 34.1951 28.8407 34.2169 28.7984 34.2289L27.0272 34.732L27.3167 35.8254L29.261 35.2732C29.3033 35.2612 29.3416 35.2653 29.3759 35.2855C29.4102 35.3057 29.4332 35.3378 29.4448 35.3816L29.5492 35.7759C29.5608 35.8197 29.5568 35.8594 29.5373 35.8949C29.5167 35.9265 29.4852 35.9483 29.4429 35.9603L26.8583 36.6944Z" fill="#E62C76"/>
<path d="M30.4472 35.6751C30.4087 35.686 30.3724 35.6813 30.3381 35.6611C30.3037 35.6409 30.2813 35.6108 30.2708 35.571L29.2408 31.6813C29.2292 31.6375 29.2312 31.5984 29.2469 31.5639C29.2664 31.5284 29.2974 31.5046 29.3397 31.4926L30.8339 31.0682C31.3032 30.935 31.7005 30.9442 32.0261 31.0958C32.3554 31.2464 32.5755 31.5308 32.6862 31.9491C32.7632 32.2399 32.7589 32.5045 32.6731 32.743C32.5902 32.9764 32.4392 33.1713 32.2201 33.3278L33.4659 34.6121C33.4837 34.6328 33.4953 34.653 33.5006 34.673C33.5101 34.7088 33.5045 34.7425 33.4839 34.774C33.4672 34.8045 33.4434 34.8241 33.4126 34.8328L32.8876 34.9819C32.8261 34.9994 32.7743 34.9991 32.7323 34.9811C32.6942 34.9619 32.6548 34.9303 32.6141 34.8862L31.4949 33.6815L30.693 33.9092L31.0727 35.3432C31.0833 35.3831 31.0788 35.4207 31.0592 35.4563C31.0435 35.4907 31.0145 35.5139 30.9722 35.5259L30.4472 35.6751ZM31.3277 33.003C31.5584 32.9375 31.7173 32.8346 31.8042 32.6943C31.8949 32.5528 31.9134 32.3806 31.8596 32.1774C31.8058 31.9743 31.7046 31.8339 31.5558 31.7562C31.4109 31.6774 31.223 31.6708 30.9922 31.7364L30.1788 31.9674L30.5142 33.2341L31.3277 33.003Z" fill="#E62C76"/>
</svg>
