<svg width="17" height="17" viewBox="0 0 17 17" fill="none" xmlns="http://www.w3.org/2000/svg">
<path d="M3.5703 11.3082L0.389519 13.4253C0.244619 13.5217 0.120503 13.6523 0.0661003 13.8176C-0.307198 14.9522 0.942529 15.5957 2.75788 16.804C4.69998 18.0966 11.4644 12.6356 13.1143 10.9872C15.0549 9.04829 17 4.52414 17 2.58522C17 1.30487 15.5297 0.523581 14.4096 0.168661C14.0237 0.0463776 13.6165 0.219619 13.3917 0.55629L11.4965 3.39444C11.2969 3.69329 11.273 4.07625 11.434 4.39757L12.1452 5.8176C12.3381 6.20295 12.2625 6.6686 11.9575 6.97309L7.15137 11.7714C6.84714 12.0751 6.38285 12.1504 5.99822 11.9584L4.571 11.246C4.25037 11.0859 3.86862 11.1097 3.5703 11.3082Z" fill="#37ADCF"/>
</svg>
