<svg width="30" height="30" viewBox="0 0 30 30" fill="none" xmlns="http://www.w3.org/2000/svg">
<path d="M15 30C23.2843 30 30 23.2843 30 15C30 12.5895 29.4314 10.3117 28.421 8.29362C28.1739 7.80002 27.5583 7.64181 27.082 7.92087C26.6051 8.2003 26.4491 8.81211 26.6914 9.30892C27.5296 11.0278 28 12.959 28 15C28 22.1797 22.1797 28 15 28C7.8203 28 2 22.1797 2 15C2 7.8203 7.8203 2 15 2C17.2865 2 19.4351 2.59029 21.3017 3.62678C21.7849 3.8951 22.4041 3.77167 22.7084 3.31025C23.0122 2.84944 22.8868 2.22639 22.4071 1.95342C20.2219 0.710137 17.6939 0 15 0C6.71573 0 0 6.71573 0 15C0 23.2843 6.71573 30 15 30Z" fill="#37ADCF"/>
<path d="M10.4617 16.2806C9.24356 16.5477 8.31347 16.5747 7 17.1001C5.5 17.6001 5 21.5001 5 23.5001L7 25.5002C7 23.9002 7 20.5001 7.8 18.9501C9 18.5001 10.5 18.5001 11.5 18.0301C13.6915 17.0001 13 15.5001 12 15.5001C11.6955 15.5001 11.4779 15.5943 11.3252 15.7109C11.0514 15.9201 10.7983 16.2068 10.4617 16.2806Z" fill="#37ADCF"/>
<path d="M19.4861 16.2805C20.7042 16.5476 21.6343 16.5746 22.9478 17.1C24.4478 17.6 24.9478 21.5 24.9478 23.5L22.9478 25.5001C22.9478 23.9001 22.9478 20.5 22.1478 18.95C20.9478 18.5 19.4478 18.5 18.4478 18.03C16.2563 17 16.9478 15.5 17.9478 15.5C18.2523 15.5 18.4698 15.5942 18.6225 15.7108C18.8964 15.92 19.1495 16.2066 19.4861 16.2805Z" fill="#37ADCF"/>
<path fill-rule="evenodd" clip-rule="evenodd" d="M19.4978 10C19.5758 13.8889 17.5789 16 14.9989 16C12.3046 16 10.5 13.3944 10.5 10C10.5 6.68629 12.3155 4 14.9989 4C17.6823 4 19.4302 6.63028 19.4978 10ZM14.9991 14C17.0058 14 17.5381 11.7006 17.4983 10C17.4585 8.29935 16.9983 6 14.9991 6C13 6 12.5 8.5 12.5 10C12.5 11.5 12.9035 14 14.9991 14Z" fill="#37ADCF"/>
<path d="M19.65 22C19.65 21.4477 20.0977 21 20.65 21C21.2023 21 21.65 21.4477 21.65 22V27C21.65 27.5523 21.2023 28 20.65 28C20.0977 28 19.65 27.5523 19.65 27V22Z" fill="#37ADCF"/>
<path d="M8.30005 22C8.30005 21.4477 8.74776 21 9.30005 21C9.85233 21 10.3 21.4477 10.3 22V27C10.3 27.5523 9.85233 28 9.30005 28C8.74776 28 8.30005 27.5523 8.30005 27V22Z" fill="#37ADCF"/>
</svg>
