<svg width="23" height="19" viewBox="0 0 23 19" fill="none" xmlns="http://www.w3.org/2000/svg">
<path d="M21.4598 3.93978C20.4331 2.72351 19.0384 1.7627 17.2758 1.0576C15.5132 0.352506 13.5879 0 11.5 0C9.41223 0 7.48695 0.352506 5.72432 1.0576C3.96169 1.7627 2.56701 2.72334 1.5402 3.93978C0.51334 5.15613 1.90735e-06 6.48171 1.90735e-06 7.91665C1.90735e-06 9.15358 0.387062 10.3126 1.1615 11.3928C1.93594 12.4731 2.99467 13.3804 4.33818 14.1143C4.24396 14.4441 4.13274 14.7574 4.00435 15.0545C3.87601 15.3513 3.76052 15.5947 3.65784 15.7844C3.55507 15.9739 3.41616 16.1843 3.24061 16.415C3.06533 16.6461 2.93272 16.809 2.84285 16.9039C2.75308 16.9988 2.60549 17.1552 2.4 17.3739C2.19478 17.5923 2.06208 17.7348 2.00224 17.8008C1.99357 17.805 1.9594 17.8419 1.89952 17.9123C1.83969 17.9823 1.80966 18.0171 1.80966 18.0171L1.73265 18.1285C1.6898 18.19 1.67056 18.2293 1.67479 18.2456C1.67911 18.2622 1.67057 18.3034 1.64917 18.3692C1.62772 18.4354 1.62993 18.4849 1.65555 18.5178V18.5303C1.68981 18.6704 1.75818 18.7838 1.86086 18.8704C1.96354 18.9567 2.07925 19 2.20746 19H2.2717C2.82802 18.9339 3.31569 18.8435 3.73489 18.728C5.97679 18.1755 7.94486 17.1776 9.63898 15.7343C10.2807 15.8003 10.901 15.8333 11.4999 15.8333C13.5877 15.8333 15.5131 15.4808 17.2757 14.7755C19.0383 14.0703 20.433 13.1098 21.4597 11.8935C22.4866 10.6772 23 9.35154 23 7.91661C23 6.48189 22.4867 5.15613 21.4598 3.93978ZM20.0159 11.0711C19.1214 12.044 17.915 12.8173 16.3962 13.3903C14.8775 13.9632 13.2452 14.25 11.4997 14.25C10.9778 14.25 10.4217 14.2171 9.8313 14.151L9.09971 14.077L8.5478 14.5471C7.49549 15.4379 6.31885 16.1428 5.01826 16.6624C5.41179 15.9946 5.71128 15.2853 5.91673 14.535L6.26324 13.3473L5.14665 12.729C4.03429 12.1184 3.17233 11.3949 2.5604 10.5578C1.94857 9.7209 1.64278 8.84037 1.64278 7.91682C1.64278 6.78699 2.08986 5.73563 2.98396 4.76251C3.87834 3.78948 5.08466 3.01632 6.6035 2.44319C8.12234 1.87002 9.75434 1.5832 11.5 1.5832C13.2455 1.5832 14.8774 1.86989 16.3962 2.44302C17.9149 3.01619 19.1213 3.78931 20.0158 4.76234C20.91 5.73545 21.357 6.78686 21.357 7.91661C21.357 9.04635 20.91 10.098 20.0159 11.0711Z" fill="#E62C76"/>
</svg>
