<svg width="38" height="38" viewBox="0 0 38 38" fill="none" xmlns="http://www.w3.org/2000/svg">
<g opacity="0.38">
<path d="M18.2002 26.106H19.6372C19.6372 26.106 20.0702 26.059 20.2912 25.822C20.5012 25.601 20.5012 25.192 20.5012 25.192C20.5012 25.192 20.4702 23.265 21.3702 22.982C22.2572 22.701 23.3822 24.842 24.5812 25.665C25.4972 26.294 26.1862 26.159 26.1862 26.159L29.3972 26.115C29.3972 26.115 31.0792 26.01 30.2842 24.689C30.2232 24.584 29.8332 23.714 27.9132 21.929C25.9012 20.068 26.1712 20.368 28.5892 17.142C30.0582 15.177 30.6592 13.976 30.4642 13.466C30.2982 12.986 29.2042 13.105 29.2042 13.105L25.6022 13.136C25.6022 13.136 25.3322 13.105 25.1372 13.226C24.9422 13.345 24.8232 13.617 24.8232 13.617C24.8232 13.617 24.2512 15.146 23.4872 16.437C21.8642 19.166 21.2192 19.316 20.9642 19.136C20.3602 18.745 20.5152 17.556 20.5152 16.704C20.5152 14.063 20.9192 12.954 19.7342 12.669C19.3442 12.578 19.0532 12.519 18.0492 12.503C16.7592 12.489 15.6712 12.513 15.0542 12.814C14.6492 13.017 14.3342 13.466 14.5152 13.489C14.7552 13.519 15.2942 13.635 15.5792 14.026C15.9542 14.532 15.9382 15.662 15.9382 15.662C15.9382 15.662 16.1492 18.778 15.4442 19.165C14.9492 19.427 14.2892 18.885 12.8492 16.409C12.1142 15.149 11.5582 13.739 11.5582 13.739C11.5582 13.739 11.4532 13.483 11.2592 13.333C11.0322 13.168 10.7022 13.108 10.7022 13.108L7.26717 13.138C7.26717 13.138 6.75717 13.154 6.57817 13.378C6.41217 13.573 6.56217 13.993 6.56217 13.993C6.56217 13.993 9.24817 20.28 12.2942 23.446C15.0842 26.348 18.2502 26.161 18.2502 26.161L18.2002 26.106Z" fill="black"/>
<path d="M19 38C29.4934 38 38 29.4934 38 19C38 16.69 37.5878 14.4763 36.8329 12.4284C36.6419 11.9103 36.0512 11.6766 35.5438 11.8945C35.036 12.1126 34.8043 12.7003 34.9921 13.22C35.6444 15.0243 36 16.9706 36 19C36 28.3888 28.3888 36 19 36C9.61116 36 2 28.3888 2 19C2 9.61116 9.61116 2 19 2C22.1151 2 25.0345 2.83785 27.5451 4.3005C28.0227 4.57872 28.6425 4.45589 28.9479 3.99523C29.2529 3.53517 29.1288 2.91252 28.6536 2.63167C25.8245 0.959557 22.5243 0 19 0C8.50659 0 0 8.50659 0 19C0 29.4934 8.50659 38 19 38Z" fill="black"/>
</g>
</svg>
