<svg width="38" height="38" viewBox="0 0 38 38" fill="none" xmlns="http://www.w3.org/2000/svg">
<g opacity="0.38">
<path d="M19 38C29.4934 38 38 29.4934 38 19C38 16.69 37.5878 14.4763 36.8329 12.4284C36.6419 11.9103 36.0512 11.6766 35.5438 11.8945C35.036 12.1126 34.8043 12.7003 34.9921 13.22C35.6444 15.0243 36 16.9706 36 19C36 28.3888 28.3888 36 19 36C9.61116 36 2 28.3888 2 19C2 9.61116 9.61116 2 19 2C22.1151 2 25.0345 2.83785 27.5451 4.3005C28.0227 4.57872 28.6425 4.45589 28.9479 3.99523C29.2529 3.53517 29.1288 2.91252 28.6536 2.63167C25.8245 0.959557 22.5243 0 19 0C8.50659 0 0 8.50659 0 19C0 29.4934 8.50659 38 19 38Z" fill="black"/>
<path d="M27 9H11C9.9 9 9 9.9 9 11V27C9 28.1 9.9 29 11 29H27C28.1 29 29 28.1 29 27V11C29 9.9 28.1 9 27 9ZM19 15C21.2 15 23 16.8 23 19C23 21.2 21.2 23 19 23C16.8 23 15 21.2 15 19C15 16.8 16.8 15 19 15ZM11.5 27C11.2 27 11 26.8 11 26.5V18H13.1C13 18.3 13 18.7 13 19C13 22.3 15.7 25 19 25C22.3 25 25 22.3 25 19C25 18.7 25 18.3 24.9 18H27V26.5C27 26.8 26.8 27 26.5 27H11.5ZM27 13.5C27 13.8 26.8 14 26.5 14H24.5C24.2 14 24 13.8 24 13.5V11.5C24 11.2 24.2 11 24.5 11H26.5C26.8 11 27 11.2 27 11.5V13.5Z" fill="black"/>
</g>
</svg>
