<svg width="32" height="30" viewBox="0 0 32 30" fill="none" xmlns="http://www.w3.org/2000/svg">
<path d="M29.6653 3.64138C28.0869 1.85051 25.8974 0.864258 23.5 0.864258C20.1283 0.864258 17.9936 2.87801 16.7966 4.56738C16.486 5.00576 16.2218 5.44532 16 5.85895C15.7782 5.44532 15.5141 5.00576 15.2034 4.56738C14.0064 2.87801 11.8717 0.864258 8.5 0.864258C6.10262 0.864258 3.91306 1.85057 2.33469 3.64145C0.829188 5.34982 0 7.63782 0 10.0839C0 12.7466 1.03956 15.2232 3.27156 17.8777C5.26638 20.2502 8.13619 22.6957 11.4594 25.5275C12.6977 26.5828 13.9782 27.674 15.3416 28.8668L15.3825 28.9027C15.5592 29.0574 15.7796 29.1348 16 29.1348C16.2204 29.1348 16.4408 29.0574 16.6175 28.9027L16.6584 28.8668C18.0217 27.674 19.3023 26.5828 20.5408 25.5274C23.8638 22.6958 26.7336 20.2503 28.7284 17.8777C30.9604 15.2231 32 12.7466 32 10.0839C32 7.63782 31.1708 5.34982 29.6653 3.64138ZM19.3246 24.1004C18.2571 25.01 17.1584 25.9462 16 26.9533C14.8416 25.9463 13.7429 25.0101 12.6753 24.1003C6.17156 18.5582 1.875 14.8969 1.875 10.0839C1.875 8.09457 2.53781 6.24682 3.74137 4.88113C4.95875 3.49995 6.64869 2.73926 8.5 2.73926C11.0706 2.73926 12.7323 4.32288 13.6735 5.65138C14.5178 6.84288 14.9584 8.04401 15.1086 8.50507C15.2343 8.89101 15.5941 9.1522 16 9.1522C16.4059 9.1522 16.7657 8.89101 16.8914 8.50507C17.0416 8.04401 17.4822 6.84288 18.3265 5.65132C19.2677 4.32288 20.9294 2.73926 23.5 2.73926C25.3513 2.73926 27.0413 3.49995 28.2586 4.88113C29.4622 6.24682 30.125 8.09457 30.125 10.0839C30.125 14.8969 25.8284 18.5582 19.3246 24.1004Z" fill="#E62C76"/>
</svg>
