<svg width="20" height="20" viewBox="0 0 20 20" fill="none" xmlns="http://www.w3.org/2000/svg">
<path d="M11.1409 1.37072L1.47038 11.1C1.24277 11.329 1.24333 11.699 1.47164 11.9273C1.70092 12.1566 2.07285 12.156 2.30144 11.9261L11.9694 2.19927C13.2975 0.871143 15.6144 0.872364 16.9413 2.19927C18.3117 3.57027 18.3117 5.80065 16.9413 7.17119L6.03054 18.1438C5.11608 19.0564 3.63018 19.0576 2.71572 18.1438C1.80187 17.2299 1.80187 15.7428 2.71572 14.829L13.6265 3.85698C14.0831 3.40044 14.8275 3.40044 15.2842 3.85698C15.7409 4.31353 15.7408 5.05693 15.2842 5.51409L5.61376 15.2432C5.38614 15.4722 5.3867 15.8422 5.61501 16.0705C5.8443 16.2998 6.21622 16.2993 6.44481 16.0693L16.1128 6.34264C17.026 5.42818 17.026 3.94167 16.1128 3.02843C15.1979 2.11336 13.7118 2.11458 12.798 3.02843L1.88717 14.0004C0.516777 15.371 0.516777 17.6013 1.88717 18.9723C3.25817 20.3423 5.48733 20.3429 6.85909 18.9723L17.7699 7.99974C19.5974 6.17266 19.5974 3.19887 17.7699 1.37072C15.9417 -0.457439 12.9679 -0.456371 11.1409 1.37072Z" fill="black" fill-opacity="0.38"/>
</svg>
