<svg width="14" height="22" viewBox="0 0 14 22" fill="none" xmlns="http://www.w3.org/2000/svg">
<path d="M12.4444 11C11.6667 11 10.1111 12.4667 7 12.4667C3.88889 12.4667 2.33333 11 1.55556 11C0.7 11 0 11.66 0 12.4667C0 13.2 0.466667 13.5667 0.777778 13.7133C1.71111 14.2267 4.66667 15.4 4.66667 15.4L1.32222 19.36C1.32222 19.36 0.7 20.02 0.7 20.5333C0.7 21.34 1.4 22 2.25556 22C3.03333 22 3.42222 21.4867 3.42222 21.4867L7 17.6L10.5 21.4867C10.5 21.4867 10.8889 22 11.6667 22C12.5222 22 13.2222 21.34 13.2222 20.5333C13.2222 20.0933 12.6 19.36 12.6 19.36L9.33333 15.4C9.33333 15.4 12.2889 14.2267 13.2222 13.7133C13.5333 13.4933 14 13.2 14 12.4667C14 11.66 13.3 11 12.4444 11Z" fill="white"/>
<path d="M7 0C4.21429 0 2 2.21429 2 5C2 7.78571 4.21429 10 7 10C9.78571 10 12 7.78571 12 5C12 2.21429 9.78571 0 7 0ZM7 7.5C5.64286 7.5 4.5 6.35714 4.5 5C4.5 3.64286 5.64286 2.5 7 2.5C8.35714 2.5 9.5 3.64286 9.5 5C9.5 6.35714 8.35714 7.5 7 7.5Z" fill="white"/>
</svg>
