<svg width="23" height="23" viewBox="0 0 23 23" fill="none" xmlns="http://www.w3.org/2000/svg">
<path fill-rule="evenodd" clip-rule="evenodd" d="M16.326 9.00184C16.326 12.8355 13.1526 16.0037 9.16298 16.0037C5.17337 16.0037 2 12.8355 2 9.00184C2 5.16814 5.17337 2 9.16298 2C13.1526 2 16.326 5.16814 16.326 9.00184ZM14.4971 16.322C12.9947 17.3805 11.1529 18.0037 9.16298 18.0037C4.10241 18.0037 0 13.9734 0 9.00184C0 4.03026 4.10241 0 9.16298 0C14.2236 0 18.326 4.03026 18.326 9.00184C18.326 11.1641 17.5499 13.1484 16.2566 14.7004L23 21.3252L21.2949 23.0003L14.4971 16.322Z" fill="#979797"/>
</svg>
