<svg width="28" height="28" viewBox="0 0 28 28" fill="none" xmlns="http://www.w3.org/2000/svg">
<path fill-rule="evenodd" clip-rule="evenodd" d="M14 28C21.732 28 28 21.732 28 14C28 6.26801 21.732 0 14 0C6.26801 0 0 6.26801 0 14C0 21.732 6.26801 28 14 28ZM14 26C20.6274 26 26 20.6274 26 14C26 7.37258 20.6274 2 14 2C7.37258 2 2 7.37258 2 14C2 20.6274 7.37258 26 14 26Z" fill="#37ADCF"/>
<path d="M11.5 14L15.75 9.75C16.1642 9.33579 16.1642 8.66421 15.75 8.25C15.3358 7.83579 14.6642 7.83579 14.25 8.25L8.5 14L14.25 19.75C14.6642 20.1642 15.3358 20.1642 15.75 19.75C16.1642 19.3358 16.1642 18.6642 15.75 18.25L11.5 14Z" fill="#37ADCF"/>
</svg>
