<svg width="169" height="50" viewBox="0 0 169 50" fill="none" xmlns="http://www.w3.org/2000/svg">
<path d="M24.5 0C31.2645 0 37.3921 2.79583 41.8259 7.31972C46.2598 11.8436 49 18.0955 49 24.9974C49 31.8993 46.2598 38.1512 41.8259 42.6751C37.3921 47.199 31.2645 50 24.5 50C17.7355 50 11.6079 47.199 7.17406 42.6751C2.7402 38.1512 0 31.8993 0 24.9974C0 18.0955 2.7402 11.8436 7.17406 7.31972C11.6079 2.79583 17.7355 0 24.5 0ZM40.9311 8.23275C36.7247 3.94099 30.9157 1.28959 24.5 1.28959C18.0843 1.28959 12.2753 3.94099 8.06892 8.23275C3.86257 12.5245 1.26393 18.4515 1.26393 24.9974C1.26393 31.5434 3.86257 37.4755 8.06892 41.7621C12.2753 46.0539 18.0843 48.7104 24.5 48.7104C30.9157 48.7104 36.7298 46.0539 40.9311 41.7621C45.1374 37.4755 47.7361 31.5434 47.7361 24.9974C47.7361 18.4515 45.1374 12.5245 40.9311 8.23275Z" fill="#E62C76"/>
<path d="M38.3578 13.0976C38.4387 13.0511 38.5347 13.0305 38.56 12.9789C38.7319 12.5869 38.8937 12.1897 39.0504 11.7873C39.0858 11.6893 39.0302 11.5449 38.924 11.5862C38.4943 11.7461 38.0797 11.9369 37.6601 12.1278C37.6247 12.1381 37.5944 12.2464 37.6146 12.2825C37.7916 12.6127 38.0898 12.8242 38.3578 13.0976ZM35.2081 16.3525C35.1424 17.0489 35.5317 17.5286 35.9462 18.0032C36.2496 18.3539 36.4316 18.2972 36.5883 17.869C36.8967 17.0231 37.2101 16.1823 37.559 15.3569C38.0191 14.2582 38.0292 14.2685 37.2101 13.4225C37.0484 13.2575 36.9068 13.0666 36.7551 12.8912C36.6035 12.7107 36.4467 12.6539 36.199 12.7571C35.0868 13.2317 33.9644 13.6908 32.842 14.1395C32.4982 14.2737 32.4729 14.4594 32.7106 14.6966C33.1858 15.1712 33.6813 15.5787 34.4194 15.522C35.0412 15.4756 35.2485 15.718 35.2081 16.3525ZM33.474 16.6259C33.4942 16.4247 33.383 16.3886 33.2667 16.3525C32.6802 16.1565 32.2202 15.7747 31.8612 15.2744C31.659 14.9855 31.5073 14.9958 31.2798 15.2589C30.8753 15.7283 30.4507 16.1874 30.0108 16.6259C27.574 19.107 25.127 21.5779 22.6901 24.0539C20.4858 26.303 18.2917 28.5572 16.0874 30.8062C13.9943 32.9469 11.9012 35.0825 9.79806 37.2129C9.59078 37.4244 9.55033 37.5688 9.77784 37.7906C10.1874 38.2033 10.5868 38.6314 10.976 39.0596C11.1378 39.2453 11.2693 39.2762 11.4513 39.0905C12.2956 38.2291 13.1854 37.4141 13.9892 36.5165C15.2936 35.0722 16.7345 33.7671 18.049 32.3331C18.2866 32.0803 18.5343 31.941 18.8377 32.2454C19.136 32.5497 19.0045 32.8025 18.7568 33.0501C18.0995 33.7155 17.4524 34.3861 16.8002 35.0515C15.2936 36.5939 13.782 38.1362 12.2703 39.6734C12.0832 39.8643 11.876 40.0139 12.1742 40.2924C12.5989 40.6845 13.0135 41.092 13.418 41.5098C13.6 41.7007 13.7365 41.7523 13.9437 41.5408C15.5767 39.8488 17.2199 38.1672 18.8579 36.4856C21.8104 33.4473 24.7579 30.3987 27.7256 27.3759C30.3091 24.74 32.9128 22.1247 35.5114 19.5094C35.744 19.2773 35.7238 19.1328 35.471 18.9575C35.0008 18.6222 34.6267 18.194 34.4447 17.6421C34.2627 17.1056 34.025 17.3068 33.7925 17.5492C33.6054 17.7401 33.4942 18.0032 33.3071 18.194C31.4669 20.0613 29.6215 21.9132 27.7863 23.7805C26.4668 25.1269 25.1674 26.4938 23.853 27.8453C22.8469 28.8718 21.8256 29.888 20.8145 30.9094C20.5768 31.1518 20.3493 31.1621 20.1168 30.9197C19.8741 30.6618 19.9499 30.4348 20.1774 30.2078C20.4909 29.8932 20.7791 29.5476 21.0925 29.2278C23.0845 27.2057 25.0916 25.2042 27.0633 23.1667C29.1159 21.0414 31.1332 18.8852 33.2819 16.858C33.3628 16.7858 33.4285 16.6878 33.474 16.6259ZM24.7579 31.8121C24.5709 31.8843 24.4344 32.0236 24.308 32.168C23.0036 33.6588 21.5627 35.0103 20.1825 36.4185C18.145 38.518 16.0975 40.6071 14.0297 42.6808C13.7365 42.9748 13.5039 42.9438 13.2562 42.6911C11.699 41.092 10.152 39.4877 8.59986 37.8886C8.34707 37.6256 8.35718 37.3625 8.62513 37.1407C9.64133 36.305 10.4452 35.2527 11.3754 34.3397C13.3118 32.4466 15.1925 30.4967 17.0581 28.5314C17.7911 27.7576 18.6253 27.0767 19.2725 26.2101C19.5 25.978 19.7427 25.751 19.96 25.5034C21.2695 24.023 22.7963 22.754 24.0754 21.2323C24.586 20.8867 25.041 20.4327 25.4404 19.9994C26.032 19.3495 26.7145 18.7975 27.2656 18.1063C28.0593 17.1056 29.0704 16.3215 29.9603 15.4137C30.4153 14.9494 30.7793 14.3768 31.2747 13.9745C32.0028 13.3761 32.9381 13.1595 33.7824 12.7726C35.3547 12.0504 36.9574 11.4056 38.5499 10.735C39.0201 10.539 39.5054 10.3636 39.9706 10.147C40.2335 10.0232 40.2284 10.2966 40.3548 10.3688C40.5368 10.4719 40.4964 10.5751 40.4205 10.7505C39.92 11.9472 39.4347 13.1543 38.9443 14.3562C38.2668 16.043 37.6146 17.7349 36.831 19.3753C36.7754 19.4939 36.7046 19.628 36.6035 19.7054C35.7794 20.3502 35.1525 21.2065 34.3638 21.8719C33.929 22.2382 33.6054 22.6869 33.2212 23.0841C32.3567 23.9765 31.4669 24.8483 30.6074 25.7459C30.2737 26.1018 29.8844 26.4164 29.662 26.8704C27.9329 28.423 26.4314 30.2078 24.7579 31.8121Z" fill="#343647"/>
<path d="M28.2412 30.0477C28.1199 30.0838 27.953 30.1405 27.8721 30.3211C27.7811 30.5326 27.8671 30.6976 28.0137 30.8472C28.8125 31.6674 29.6164 32.4824 30.4152 33.3026C30.6326 33.5296 30.8348 33.5399 31.0572 33.3129C31.2544 33.1117 31.2746 32.9106 31.0775 32.6991C30.3191 31.8686 29.586 31.0123 28.7367 30.2695C28.6052 30.156 28.4839 30.027 28.2412 30.0477ZM24.7578 31.8118C26.4313 30.2076 27.9277 28.4228 29.6568 26.8701C29.7427 27.3086 30.127 27.453 30.4303 27.6748C30.1169 28.0359 30.3595 28.2938 30.5921 28.5311C31.4212 29.3822 32.2656 30.2179 33.0947 31.0587C35.117 33.1117 37.1241 35.1699 39.1464 37.2126C39.3739 37.4448 39.3284 37.5995 39.1262 37.8007C38.7723 38.1515 38.3931 38.4919 38.0746 38.8891C37.7257 39.3224 37.4932 39.2708 37.1291 38.8788C35.9663 37.6253 34.758 36.4131 33.5699 35.1802C33.3475 34.9533 33.125 34.8759 32.8722 35.1287C32.6195 35.3763 32.665 35.6084 32.9026 35.8354C32.9835 35.9179 33.0644 36.0004 33.1452 36.083C34.303 37.2642 35.4507 38.4558 36.6185 39.6216C36.932 39.9311 36.9471 40.1271 36.5983 40.4108C36.2242 40.7203 35.8905 41.0762 35.5669 41.4425C35.304 41.7417 35.117 41.7829 34.8288 41.458C34.3384 40.906 33.8025 40.3953 33.2868 39.8692C30.9966 37.5325 28.7114 35.2009 26.4262 32.8641C26.1886 32.6217 25.9611 32.3689 25.5971 32.6423C25.4454 32.2297 25.137 31.9872 24.7578 31.8118Z" fill="#DC2669"/>
<path d="M24.0753 21.2318C22.7962 22.7484 21.2745 24.0225 19.96 25.5029C19.7426 25.7505 19.4999 25.9775 19.2724 26.2096C19.1409 25.8228 18.878 25.5648 18.5039 25.4153C18.6607 25.0439 18.5241 24.7808 18.2511 24.5022C16.6181 22.867 15.0104 21.206 13.3875 19.5605C13.1701 19.3439 13.0589 19.1736 13.3673 18.9621C13.8628 18.6165 14.2015 18.1574 14.3886 17.5797C14.5251 17.167 14.7222 17.2444 14.9649 17.5023C15.7688 18.3431 16.5777 19.1788 17.3967 20.0144C18.3169 20.9584 19.2471 21.8973 20.1723 22.8361C20.324 22.9908 20.4757 23.161 20.7234 23.0166C20.9003 22.9134 21.0166 22.7587 21.0065 22.542C21.0014 22.3512 20.8548 22.2325 20.7335 22.1087C19.0348 20.3755 17.3462 18.6423 15.6373 16.9194C15.3492 16.6306 15.2025 16.4758 15.7132 16.2953C16.2339 16.1096 16.6485 15.7485 16.972 15.2997C17.1793 15.0108 17.3259 14.9799 17.5939 15.2584C18.8427 16.5687 20.1167 17.8479 21.3806 19.1375C21.7598 19.5244 22.144 19.9113 22.5333 20.2878C22.7608 20.5097 23.0086 20.6283 23.3069 20.422C23.4838 20.7676 23.6608 21.1132 24.0753 21.2318Z" fill="#DC2669"/>
<path d="M10.5865 13.0463C10.7837 12.84 11.087 12.6388 11.1881 12.3035C11.2791 12.0095 10.9303 12.0404 10.7685 11.9424C10.5916 11.8341 10.3994 11.7464 10.2124 11.6587C10.1113 11.6071 10 11.5349 9.89387 11.6226C9.78264 11.7154 9.84331 11.8341 9.88881 11.9372C10.0152 12.2416 10.1416 12.5459 10.268 12.8503C10.3135 12.9586 10.3691 13.0566 10.5865 13.0463ZM14.2671 15.5275C15.1518 15.5429 15.6372 15.2283 16.0821 14.795C16.4157 14.4803 16.436 14.2895 15.9506 14.1141C15.0861 13.7994 14.2367 13.4435 13.3874 13.0824C12.4116 12.6646 12.4217 12.6594 11.628 13.4125C11.4207 13.6137 11.1831 13.7839 10.9606 13.9645C10.7938 14.1038 10.7281 14.2482 10.8443 14.47C11.4409 15.6048 11.8605 16.8222 12.3712 17.9932C12.4672 18.2201 12.5987 18.3285 12.8009 18.1376C13.2913 17.6579 13.7362 17.142 13.6806 16.3734C13.6351 15.7028 13.812 15.5223 14.2671 15.5275ZM23.3117 20.4228C23.0084 20.6291 22.7607 20.5104 22.5332 20.2886C22.1439 19.9121 21.7596 19.5252 21.3805 19.1383C20.1165 17.8487 18.8425 16.5695 17.5988 15.2644C17.3258 14.9807 17.1792 15.0116 16.9719 15.3005C16.6483 15.7493 16.2337 16.1104 15.713 16.2961C15.2024 16.4766 15.349 16.6314 15.6372 16.9202C17.346 18.6431 19.0346 20.3763 20.7333 22.1095C20.8547 22.2333 21.0013 22.352 21.0063 22.5428C21.0164 22.7595 20.9002 22.9142 20.7232 23.0174C20.4755 23.1567 20.3238 22.9916 20.1721 22.8369C19.2469 21.898 18.3167 20.9592 17.3965 20.0152C16.5775 19.1847 15.7686 18.3439 14.9647 17.5031C14.7221 17.2452 14.5249 17.1678 14.3884 17.5805C14.2013 18.1582 13.8626 18.6173 13.3671 18.9629C13.0587 19.1744 13.17 19.3447 13.3874 19.5613C15.0103 21.2068 16.618 22.8678 18.251 24.5082C18.524 24.7816 18.6605 25.0395 18.5037 25.416C18.0133 25.5141 17.7353 25.2613 17.4117 24.8899C16.5522 23.9304 15.6068 23.0535 14.7019 22.1353C14.0244 21.4441 13.3975 20.6961 12.6745 20.0565C11.9263 19.4014 11.5623 18.5554 11.2286 17.663C10.5562 15.8937 9.8787 14.1192 9.09506 12.3912C8.88272 11.9269 8.74116 11.4214 8.48838 10.9623C8.34682 10.6992 8.42265 10.462 8.61477 10.2247C8.85239 9.9358 8.97878 10.2247 9.14056 10.2917C11.1578 11.1119 13.175 11.9424 15.1872 12.7781C16.5725 13.3506 17.8313 14.0625 18.8577 15.2489C20.1873 16.7758 21.6636 18.1634 23.0893 19.5974C23.337 19.8502 23.4331 20.0926 23.3117 20.4228Z" fill="#343647"/>
<path d="M25.597 32.6422C25.9661 32.3636 26.1885 32.6215 26.4261 32.864C28.7113 35.2007 31.0016 37.5323 33.2867 39.869C33.8024 40.3952 34.3383 40.9058 34.8287 41.4578C35.1169 41.7828 35.304 41.7415 35.5669 41.4423C35.8854 41.0761 36.2241 40.7201 36.5982 40.4106C36.9471 40.1269 36.9319 39.9309 36.6235 39.6214C35.4506 38.4556 34.3029 37.2692 33.1452 36.0828C33.0643 36.0002 32.9884 35.9177 32.9025 35.8352C32.6649 35.6082 32.6194 35.3761 32.8722 35.1285C33.1199 34.8757 33.3474 34.9531 33.5648 35.1801C34.7579 36.4129 35.9663 37.6251 37.1291 38.8786C37.4931 39.2706 37.7257 39.3222 38.0745 38.8889C38.393 38.4969 38.7722 38.1513 39.1261 37.7954C39.3283 37.5993 39.3738 37.4446 39.1463 37.2125C37.124 35.1697 35.1118 33.1116 33.0997 31.0585C32.2655 30.2126 31.4212 29.3821 30.592 28.5309C30.3595 28.2937 30.1219 28.0357 30.4303 27.6746C30.7387 27.5251 30.9712 27.6489 31.1987 27.881C34.2018 30.9502 37.2049 34.0246 40.2232 37.0887C40.5215 37.393 40.4861 37.5787 40.2181 37.8934C39.3688 38.8941 38.393 39.7659 37.4678 40.6892C36.851 41.3082 36.2696 41.9582 35.6781 42.603C35.3394 42.9744 35.0613 43.0053 34.6872 42.5978C33.5547 41.3753 32.3969 40.1734 31.2291 38.9818C29.9702 37.7025 28.686 36.4542 27.4373 35.1697C26.8761 34.592 26.3554 33.973 25.7436 33.452C25.4655 33.2096 25.5515 32.931 25.597 32.6422Z" fill="#343647"/>
<path d="M33.4741 16.6258C33.4286 16.6877 33.3628 16.7857 33.282 16.8631C31.1333 18.8851 29.116 21.0465 27.0634 23.1666C25.0917 25.2041 23.0795 27.2107 21.0926 29.2277C20.7792 29.5475 20.491 29.8879 20.1775 30.2078C19.95 30.4347 19.8793 30.6617 20.1169 30.9196C20.3494 31.1672 20.5769 31.1517 20.8146 30.9093C21.8257 29.8828 22.847 28.8717 23.848 27.8452C25.1675 26.4937 26.4669 25.1268 27.7864 23.7804C29.6216 21.9131 31.467 20.0613 33.3072 18.1939C33.4943 18.0031 33.6055 17.74 33.7926 17.5491C34.0251 17.3118 34.2628 17.1055 34.4448 17.642C34.6268 18.1939 35.0009 18.6221 35.4711 18.9522C35.7239 19.1327 35.7441 19.2772 35.5115 19.5093C32.9129 22.1246 30.3092 24.7399 27.7207 27.3758C24.758 30.3986 21.8105 33.4472 18.858 36.4855C17.2199 38.1671 15.5768 39.8487 13.9438 41.5407C13.7366 41.7522 13.6001 41.7006 13.418 41.5097C13.0136 41.0971 12.599 40.6844 12.1743 40.2872C11.8761 40.0138 12.0833 39.8642 12.2704 39.6733C13.7821 38.1362 15.2887 36.5938 16.8003 35.0515C17.4525 34.386 18.0996 33.7154 18.7569 33.0552C19.0046 32.8024 19.1361 32.5497 18.8378 32.2453C18.5344 31.941 18.2867 32.0802 18.0491 32.333C16.7346 33.767 15.2937 35.0721 13.9893 36.5164C13.1855 37.414 12.2957 38.2342 11.4514 39.0905C11.2694 39.2762 11.1379 39.2452 10.9761 39.0647C10.5868 38.6314 10.1874 38.2032 9.77793 37.7905C9.55548 37.5687 9.59087 37.4243 9.79815 37.2077C11.9013 35.0824 13.9944 32.9468 16.0875 30.8113C18.2918 28.5571 20.4859 26.3029 22.6902 24.0538C25.1271 21.5778 27.5741 19.107 30.016 16.6309C30.4508 16.1873 30.8754 15.7282 31.2799 15.2588C31.5074 14.9957 31.654 14.9854 31.8613 15.2743C32.2203 15.7747 32.6803 16.1564 33.2668 16.3524C33.3831 16.3885 33.4943 16.4246 33.4741 16.6258Z" fill="#37ADCF"/>
<path d="M35.208 16.3526C35.2485 15.7182 35.0412 15.4757 34.4143 15.5221C33.6812 15.5789 33.1857 15.1714 32.7105 14.6968C32.4729 14.4595 32.4981 14.279 32.8419 14.1397C33.9643 13.6909 35.0867 13.2318 36.1989 12.7573C36.4467 12.6541 36.6034 12.7108 36.7551 12.8914C36.9067 13.0668 37.0483 13.2576 37.205 13.4227C38.024 14.2635 38.0139 14.2583 37.5589 15.3571C37.2101 16.1824 36.8966 17.0232 36.5882 17.8692C36.4264 18.2973 36.2495 18.3541 35.9461 18.0033C35.5316 17.5287 35.1423 17.049 35.208 16.3526Z" fill="#FDCF74"/>
<path d="M38.3576 13.0968C38.0896 12.8234 37.7914 12.6119 37.6144 12.2817C37.5942 12.2456 37.6245 12.1373 37.6599 12.1218C38.0795 11.9361 38.4941 11.7453 38.9238 11.5854C39.03 11.5441 39.0856 11.6885 39.0502 11.7865C38.8935 12.1889 38.7317 12.5861 38.5598 12.9781C38.5345 13.0297 38.4385 13.0503 38.3576 13.0968Z" fill="#37ADCF"/>
<path d="M14.2673 15.5213C13.8123 15.5213 13.6353 15.7019 13.6808 16.3725C13.7364 17.1411 13.2915 17.6569 12.8011 18.1315C12.5989 18.3275 12.4675 18.2192 12.3714 17.9922C11.8608 16.8213 11.4411 15.6039 10.8446 14.469C10.7283 14.2472 10.794 14.1028 10.9609 13.9635C11.1833 13.783 11.4209 13.6128 11.6282 13.4116C12.422 12.6585 12.4118 12.6636 13.3876 13.0814C14.237 13.4425 15.0863 13.7985 15.9508 14.1131C16.4362 14.2885 16.416 14.4794 16.0823 14.794C15.6374 15.2273 15.152 15.5471 14.2673 15.5213Z" fill="#FDCF74"/>
<path d="M10.5867 13.0458C10.3693 13.0562 10.3137 12.9582 10.2682 12.8498C10.1418 12.5455 10.0154 12.2411 9.88904 11.9368C9.84353 11.8336 9.78287 11.715 9.89409 11.6221C10.0003 11.5344 10.1115 11.6067 10.2126 11.6582C10.3997 11.7459 10.5918 11.8336 10.7687 11.942C10.9305 12.04 11.2794 12.009 11.1884 12.303C11.0872 12.6383 10.7788 12.8395 10.5867 13.0458Z" fill="#DC2669"/>
<path d="M28.216 30.0111C28.4637 29.9956 28.5901 30.1194 28.7216 30.238C29.571 30.986 30.3141 31.8475 31.0776 32.6831C31.2747 32.8998 31.2545 33.1009 31.0573 33.3073C30.8349 33.5342 30.6276 33.5188 30.4051 33.2918C29.6063 32.4665 28.7974 31.6411 27.9885 30.8209C27.8419 30.6662 27.7559 30.5011 27.847 30.2896C27.9278 30.1091 28.0947 30.0523 28.216 30.0111Z" fill="#343647"/>
<path d="M74.3709 8.43724H70.4308V15.416H63.0671V8.43724H59.127V26.9729H63.0671V18.9825H70.4308V26.9729H74.3709V8.43724ZM86.008 8C80.6184 8 77.0782 11.8494 77.0782 17.7308C77.0782 23.535 80.6434 27.4101 85.983 27.4101C91.2642 27.4101 94.8295 23.5092 94.8295 17.7308C94.8295 11.9266 91.2642 8 86.008 8ZM85.958 11.3265C88.9651 11.3265 90.8394 13.7442 90.8394 17.6536C90.8394 21.6059 88.9901 24.0579 86.008 24.0579C82.9508 24.0322 81.0766 21.6317 81.0766 17.6536C81.0766 13.8042 82.9758 11.3265 85.958 11.3265ZM97.5117 8.43724V26.9729H106.516C109.907 26.9729 112.606 25.0696 112.606 21.4516C112.606 18.8796 111.19 17.4736 109.324 16.9249C110.79 16.2476 111.773 14.893 111.773 13.1012C111.773 9.81756 109.199 8.43724 106.033 8.43724H97.5117ZM101.36 11.5922H104.95C106.467 11.5922 107.933 11.9009 107.933 13.7785C107.933 15.6475 106.392 15.9389 104.95 15.9389H101.36V11.5922ZM101.36 18.691H105.125C106.891 18.691 108.666 18.9825 108.666 21.2201C108.666 23.4064 107.025 23.7407 105.325 23.7407H101.36V18.691ZM115.496 8.43724V26.9729H119.411V19.7112H122.927C125.509 19.7112 126.267 20.62 126.517 23.1663C126.617 24.1865 126.617 26.0298 127.075 26.9729H131.173C130.465 26.2956 130.415 23.7407 130.307 22.5747C130.157 20.7486 129.657 18.6653 127.658 18.2538C129.449 17.5507 130.515 15.8532 130.515 13.6927C130.515 9.97188 127.758 8.43724 124.443 8.43724H115.496ZM119.411 11.6437H123.335C125.001 11.6437 126.642 12.0038 126.642 14.1385C126.642 16.4276 125.001 16.7706 123.152 16.7706H119.411V11.6437ZM148.925 8.43724H144.976V19.5226C144.976 22.2575 144.343 23.9808 141.311 23.9808C138.229 23.9808 137.446 22.3604 137.446 19.5226V8.43724H133.497V19.5226C133.497 24.8124 135.897 27.333 141.261 27.333C146.517 27.333 148.925 24.8638 148.925 19.5826V8.43724ZM168.342 8.43724H163.361L156.28 16.1447V8.43724H152.39V26.9729H156.28V20.9801L158.579 18.6396L164.044 26.9729H169L161.286 15.7503L168.342 8.43724Z" fill="#E62C76"/>
<path d="M63.6254 36.5573V35.6486H59.1355V36.5573H60.8182V40.8955H61.9427V36.5573H63.6254ZM68.8233 39.4123C68.8233 38.7092 68.5068 38.2291 67.8654 38.0577V38.032C68.3485 37.8005 68.5984 37.509 68.5984 36.926C68.5984 36.1115 68.032 35.6486 67.0823 35.6486H64.2668V40.8955H66.9407C68.1486 40.8955 68.8233 40.3553 68.8233 39.4123ZM66.9407 38.5721C67.4405 38.5721 67.7071 38.8464 67.7071 39.3094C67.7071 39.7723 67.4405 40.021 66.9407 40.021H65.3914V38.5721H66.9407ZM66.7991 36.523C67.2573 36.523 67.4739 36.6945 67.4739 37.0975C67.4739 37.509 67.2406 37.7319 66.8241 37.7319H65.3914V36.523H66.7991ZM72.122 35.4942C70.5393 35.4942 69.523 36.5831 69.523 38.272C69.523 39.9781 70.531 41.0584 72.122 41.0584C73.6797 41.0584 74.671 39.9781 74.671 38.272C74.671 36.5745 73.6797 35.4942 72.122 35.4942ZM72.1054 36.4116C72.9883 36.4116 73.5381 37.106 73.5381 38.2549C73.5381 39.438 73.005 40.1496 72.1137 40.1496C71.2057 40.1496 70.6559 39.4466 70.6559 38.272C70.6559 37.1232 71.214 36.4116 72.1054 36.4116ZM76.6952 35.6486H75.6373V42.833H76.7535V40.201C77.1617 40.784 77.7281 41.0241 78.4195 41.0241C79.794 41.0241 80.677 39.9438 80.677 38.2892C80.677 36.5916 79.769 35.4942 78.3612 35.4942C77.6948 35.4942 77.0534 35.76 76.6952 36.343V35.6486ZM78.128 36.4287C79.0026 36.4287 79.5441 37.1489 79.5441 38.2892C79.5441 39.4123 79.0109 40.0981 78.153 40.0981C77.2533 40.0981 76.7202 39.4123 76.7202 38.272C76.7202 37.1232 77.245 36.4287 78.128 36.4287ZM83.0843 40.8955L84.9919 37.0717H85.0169V40.8955H86.1415V35.6486H84.7253L82.8178 39.4723H82.7845V35.6486H81.6599V40.8955H83.0843ZM91.2728 36.5573V35.6486H86.7912V36.5573H88.4655V40.8955H89.5984V36.5573H91.2728ZM96.3374 39.2151C96.3374 38.1863 95.7127 37.5433 94.5964 37.5433H93.047V35.6486H91.9142V40.8955H94.6048C95.7127 40.8955 96.3374 40.2525 96.3374 39.2151ZM95.2045 39.2322C95.2045 39.6609 94.9879 39.9867 94.4798 39.9867H93.047V38.452H94.4548C94.938 38.452 95.2045 38.7778 95.2045 39.2322ZM101.061 40.8955V37.4061H101.077L102.293 40.8955H103.426L104.642 37.4061H104.667V40.8955H105.75V35.6486H104.268L102.893 39.8152H102.876L101.452 35.6486H99.9693V40.8955H101.061ZM109.291 35.4942C107.708 35.4942 106.692 36.5831 106.692 38.272C106.692 39.9781 107.7 41.0584 109.291 41.0584C110.848 41.0584 111.84 39.9781 111.84 38.272C111.84 36.5745 110.848 35.4942 109.291 35.4942ZM109.274 36.4116C110.157 36.4116 110.707 37.106 110.707 38.2549C110.707 39.438 110.174 40.1496 109.282 40.1496C108.374 40.1496 107.825 39.4466 107.825 38.272C107.825 37.1232 108.383 36.4116 109.274 36.4116ZM119.853 40.8955L117.662 37.8862L119.612 35.6486H118.245L116.496 37.8605H116.463V35.6486H115.38V37.8605H115.347L113.597 35.6486H112.231L114.18 37.8862L111.99 40.8955H113.339L114.905 38.6149L115.38 39.1636V40.8955H116.463V39.1636L116.938 38.6149L118.504 40.8955H119.853ZM124.809 39.2579H123.727C123.502 39.9267 123.135 40.2096 122.51 40.2096C121.644 40.2096 121.136 39.6095 121.111 38.5549H124.876V38.4349C124.876 36.6173 123.943 35.4942 122.452 35.4942C121.019 35.4942 119.986 36.6859 119.986 38.332C119.986 39.8924 120.919 41.0669 122.494 41.0669C123.643 41.0669 124.551 40.4068 124.809 39.2579ZM123.752 37.7833H121.128C121.236 36.8574 121.702 36.3601 122.444 36.3601C123.185 36.3601 123.677 36.9003 123.752 37.7833ZM129.558 36.5573V35.6486H125.076V36.5573H126.75V40.8955H127.875V36.5573H129.558ZM137.713 40.8955L135.497 37.749L137.488 35.6486H136.113L134.072 37.9719V35.6486H132.948V40.8955H134.072V39.2665L134.747 38.5464L136.347 40.8955H137.713ZM138.204 37.2603H139.27C139.362 36.5831 139.679 36.3259 140.412 36.3259C141.12 36.3259 141.461 36.5831 141.461 37.1232C141.461 37.3118 141.436 37.4318 141.386 37.5004C141.278 37.6462 141.053 37.6976 140.27 37.8005C139.254 37.9376 137.988 38.0662 137.988 39.4551C137.988 40.4239 138.654 41.0241 139.712 41.0241C140.378 41.0241 141.036 40.8526 141.494 40.3982C141.578 40.8526 141.894 41.0241 142.327 41.0241C142.544 41.0241 142.702 41.0069 143.061 40.9126V40.0981C142.919 40.1239 142.877 40.1239 142.802 40.1239C142.594 40.1239 142.536 40.0381 142.536 39.7381V37.0717C142.536 35.9401 141.644 35.4857 140.437 35.4857C139.195 35.4857 138.337 35.9743 138.204 37.2603ZM141.445 38.2549V38.8807C141.445 39.1979 141.461 39.5409 141.22 39.7809C140.961 40.0467 140.528 40.201 140.062 40.201C139.479 40.201 139.145 39.9181 139.145 39.4208C139.145 38.7264 139.737 38.6235 140.262 38.5464C140.67 38.4863 141.078 38.4692 141.445 38.2549ZM150.932 40.8955L148.742 37.8862L150.691 35.6486H149.325L147.575 37.8605H147.542V35.6486H146.459V37.8605H146.426L144.677 35.6486H143.319L145.26 37.8862L143.069 40.8955H144.418L145.984 38.6149L146.459 39.1636V40.8955H147.542V39.1636L148.017 38.6149L149.583 40.8955H150.932ZM156.68 42.5587V39.9781H155.997V35.6486H152.157V36.2315C152.157 37.9634 151.932 39.0693 151.557 39.9781H150.916V42.5587H151.982V40.8955H155.606V42.5587H156.68ZM154.889 39.9781H152.715C152.923 39.4551 153.24 38.1091 153.24 36.9003V36.5402H154.889V39.9781ZM162.236 35.6486V40.8955H163.369V35.6486H162.236ZM161.537 39.2151C161.537 38.1863 160.92 37.5433 159.796 37.5433H158.446V35.6486H157.322V40.8955H159.812C160.92 40.8955 161.537 40.2525 161.537 39.2151ZM160.412 39.2322C160.412 39.6609 160.195 39.9867 159.679 39.9867H158.446V38.452H159.662C160.145 38.452 160.412 38.7778 160.412 39.2322ZM168.367 33.4795H167.792C167.667 34.011 167.343 34.2511 166.743 34.2511C166.151 34.2511 165.827 34.011 165.702 33.4795H165.127C165.227 34.4569 165.735 34.9112 166.743 34.9112C167.751 34.9112 168.267 34.4569 168.367 33.4795ZM165.926 40.8955L167.834 37.0717H167.867V40.8955H168.992V35.6486H167.567L165.66 39.4723H165.627V35.6486H164.502V40.8955H165.926Z" fill="#37ADCF"/>
</svg>
