<svg width="36" height="36" viewBox="0 0 36 36" fill="none" xmlns="http://www.w3.org/2000/svg">
<path d="M33 0H3C1.35 0 0 1.35 0 3V33C0 34.65 1.35 36 3 36H33C34.65 36 36 34.65 36 33V3C36 1.35 34.65 0 33 0Z" fill="#F2720C"/>
<path d="M23.4444 18C22.6667 18 21.1111 19.4667 18 19.4667C14.8889 19.4667 13.3333 18 12.5556 18C11.7 18 11 18.66 11 19.4667C11 20.2 11.4667 20.5667 11.7778 20.7133C12.7111 21.2267 15.6667 22.4 15.6667 22.4L12.3222 26.36C12.3222 26.36 11.7 27.02 11.7 27.5333C11.7 28.34 12.4 29 13.2556 29C14.0333 29 14.4222 28.4867 14.4222 28.4867L18 24.6L21.5 28.4867C21.5 28.4867 21.8889 29 22.6667 29C23.5222 29 24.2222 28.34 24.2222 27.5333C24.2222 27.0933 23.6 26.36 23.6 26.36L20.3333 22.4C20.3333 22.4 23.2889 21.2267 24.2222 20.7133C24.5333 20.4933 25 20.2 25 19.4667C25 18.66 24.3 18 23.4444 18Z" fill="white"/>
<path d="M18 7C15.2143 7 13 9.21429 13 12C13 14.7857 15.2143 17 18 17C20.7857 17 23 14.7857 23 12C23 9.21429 20.7857 7 18 7ZM18 14.5C16.6429 14.5 15.5 13.3571 15.5 12C15.5 10.6429 16.6429 9.5 18 9.5C19.3571 9.5 20.5 10.6429 20.5 12C20.5 13.3571 19.3571 14.5 18 14.5Z" fill="white"/>
</svg>
