<svg width="36" height="36" viewBox="0 0 36 36" fill="none" xmlns="http://www.w3.org/2000/svg">
<path fill-rule="evenodd" clip-rule="evenodd" d="M5.90494 0H30.0951C33.3411 0 36 2.6589 36 5.90494V30.0951C36 33.3411 33.3411 36 30.0951 36H5.90494C2.6589 36 0 33.3411 0 30.0951V5.90494C0 2.6589 2.6589 0 5.90494 0Z" fill="#356396"/>
<path d="M25 21.1034C25 21.8976 24.8389 22.5937 24.5077 23.1996C24.1765 23.7973 23.7379 24.2968 23.1829 24.6899C22.5205 25.1566 21.7954 25.5005 21.0166 25.697C20.2289 25.9017 19.2263 26 18.009 26H11V10H17.1854C18.4744 10 19.4501 10.0409 20.1036 10.1392C20.766 10.2293 21.3926 10.4176 21.9744 10.7042C22.601 11.0154 23.0665 11.4248 23.3798 11.9406C23.6931 12.4565 23.8453 13.0542 23.8453 13.7257C23.8453 14.5036 23.6304 15.1996 23.2008 15.8055C22.7801 16.4115 22.1803 16.8618 21.4284 17.1484V17.2385C22.5115 17.4514 23.3708 17.869 24.0153 18.5077C24.6688 19.1464 24.991 20.0143 24.991 21.1034H25ZM19.3696 14.52C19.3696 14.2661 19.298 13.9959 19.1547 13.7257C19.0115 13.4555 18.7877 13.259 18.4744 13.1361C18.188 13.0215 17.8478 12.956 17.445 12.9478C17.0512 12.9396 16.4604 12.9314 15.6726 12.9314H15.3683V16.3214H15.9233C16.6752 16.3214 17.1944 16.3132 17.4987 16.2968C17.8031 16.2805 18.1074 16.2068 18.4297 16.0676C18.7788 15.9202 19.0205 15.7155 19.1547 15.4452C19.289 15.1832 19.3517 14.8721 19.3517 14.52H19.3696ZM20.4795 21.0379C20.4795 20.5384 20.3721 20.1617 20.1483 19.8751C19.9246 19.5967 19.6023 19.3838 19.1637 19.2446C18.8951 19.1464 18.5281 19.0972 18.0627 19.089C17.5972 19.0809 16.9706 19.0727 16.1829 19.0727H15.3772V23.0768H15.61C16.7558 23.0768 17.5435 23.0686 17.9821 23.0522C18.4207 23.0358 18.8683 22.9458 19.3248 22.7656C19.7187 22.61 20.0141 22.3808 20.202 22.0696C20.39 21.7666 20.4795 21.4227 20.4795 21.0379Z" fill="#FEFEFE"/>
</svg>
