<svg width="14" height="16" viewBox="0 0 14 16" fill="none" xmlns="http://www.w3.org/2000/svg">
<path d="M14 11.1034C14 11.8976 13.8389 12.5937 13.5077 13.1996C13.1765 13.7973 12.7379 14.2968 12.1829 14.6899C11.5205 15.1566 10.7954 15.5005 10.0166 15.697C9.2289 15.9017 8.22634 16 7.00895 16H0V0H6.18542C7.47443 0 8.45013 0.0409417 9.10358 0.139202C9.76598 0.229273 10.3926 0.417605 10.9744 0.704197C11.601 1.01535 12.0665 1.42477 12.3798 1.94063C12.6931 2.4565 12.8453 3.05425 12.8453 3.72569C12.8453 4.50358 12.6304 5.19959 12.2008 5.80553C11.7801 6.41146 11.1803 6.86182 10.4284 7.14841V7.23848C11.5115 7.45138 12.3708 7.86899 13.0153 8.50768C13.6688 9.14637 13.991 10.0143 13.991 11.1034H14ZM8.36957 4.51996C8.36957 4.26612 8.29795 3.99591 8.15473 3.72569C8.01151 3.45548 7.78772 3.25896 7.47442 3.13613C7.18798 3.02149 6.84783 2.95599 6.44501 2.9478C6.05115 2.93961 5.46036 2.93142 4.67263 2.93142H4.36829V6.32139H4.92327C5.67519 6.32139 6.19437 6.3132 6.49872 6.29683C6.80307 6.28045 7.10742 6.20676 7.42967 6.06755C7.77877 5.92016 8.02046 5.71546 8.15473 5.44524C8.289 5.18321 8.35166 4.87206 8.35166 4.51996H8.36957ZM9.47954 11.0379C9.47954 10.5384 9.37212 10.1617 9.14834 9.87513C8.92455 9.59672 8.6023 9.38383 8.16368 9.24463C7.89514 9.14637 7.52813 9.09724 7.06266 9.08905C6.59719 9.08086 5.97059 9.07267 5.18286 9.07267H4.37724V13.0768H4.60997C5.75575 13.0768 6.54348 13.0686 6.9821 13.0522C7.42072 13.0358 7.86829 12.9458 8.32481 12.7656C8.71867 12.61 9.01407 12.3808 9.20205 12.0696C9.39003 11.7666 9.47954 11.4227 9.47954 11.0379Z" fill="#FEFEFE"/>
</svg>
