<svg width="42" height="42" viewBox="0 0 42 42" fill="none" xmlns="http://www.w3.org/2000/svg">
<path fill-rule="evenodd" clip-rule="evenodd" d="M21 42C32.598 42 42 32.598 42 21C42 9.40202 32.598 0 21 0C9.40202 0 0 9.40202 0 21C0 32.598 9.40202 42 21 42ZM21 40C31.4934 40 40 31.4934 40 21C40 10.5066 31.4934 2 21 2C10.5066 2 2 10.5066 2 21C2 31.4934 10.5066 40 21 40Z" fill="#FAFAFA"/>
<circle cx="21" cy="9" r="3" fill="#E62C76"/>
<circle cx="21" cy="33" r="3" fill="#E62C76"/>
<circle cx="8.99951" cy="21" r="3" transform="rotate(-90 8.99951 21)" fill="#E62C76"/>
<circle cx="32.9998" cy="21" r="3" transform="rotate(-90 32.9998 21)" fill="#E62C76"/>
</svg>
